{
  "header": {
    "PPQ": 480,
    "bpm": 190.0002850004275,
    "timeSignature": [
      4,
      4
    ],
    "name": "Untitled"
  },
  "tempo": [
    {
      "absoluteTime": 0,
      "seconds": 0,
      "bpm": 190.0002850004275
    }
  ],
  "timeSignature": [
    {
      "absoluteTime": 0,
      "seconds": 0,
      "numerator": 4,
      "denominator": 2,
      "click": 24,
      "notesQ": 8
    }
  ],
  "startTime": 0,
  "duration": 236.14635630624838,
  "tracks": [
    {
      "startTime": 0,
      "duration": 0,
      "length": 0,
      "notes": [],
      "controlChanges": {},
      "id": 0,
      "name": "Untitled"
    },
    {
      "startTime": 0,
      "duration": 236.14635630624838,
      "length": 877,
      "notes": [
        {
          "name": "C#4",
          "midi": 61,
          "time": 0,
          "velocity": 0.6299212598425197,
          "duration": 0.44934143125
        },
        {
          "name": "E4",
          "midi": 64,
          "time": 0.4736835,
          "velocity": 0.6299212598425197,
          "duration": 0.44934143125
        },
        {
          "name": "C#4",
          "midi": 61,
          "time": 0.947367,
          "velocity": 0.6299212598425197,
          "duration": 0.2993416562500001
        },
        {
          "name": "C#4",
          "midi": 61,
          "time": 1.263156,
          "velocity": 0.6299212598425197,
          "duration": 0.4493414312499999
        },
        {
          "name": "E4",
          "midi": 64,
          "time": 1.7368394999999999,
          "velocity": 0.6299212598425197,
          "duration": 0.44934143125000015
        },
        {
          "name": "C#4",
          "midi": 61,
          "time": 2.2105230000000002,
          "velocity": 0.6299212598425197,
          "duration": 0.2993416562500002
        },
        {
          "name": "C#4",
          "midi": 61,
          "time": 2.5263120000000003,
          "velocity": 0.6299212598425197,
          "duration": 0.44934143125000015
        },
        {
          "name": "E4",
          "midi": 64,
          "time": 2.9999955000000007,
          "velocity": 0.6299212598425197,
          "duration": 0.44934143125000015
        },
        {
          "name": "C#4",
          "midi": 61,
          "time": 3.4736790000000006,
          "velocity": 0.6299212598425197,
          "duration": 0.2993416562500002
        },
        {
          "name": "D#4",
          "midi": 63,
          "time": 3.7894680000000007,
          "velocity": 0.6299212598425197,
          "duration": 0.44934143125000015
        },
        {
          "name": "C#4",
          "midi": 61,
          "time": 4.263151500000001,
          "velocity": 0.6299212598425197,
          "duration": 0.4493414312499997
        },
        {
          "name": "B3",
          "midi": 59,
          "time": 4.736835000000001,
          "velocity": 0.6299212598425197,
          "duration": 0.2993416562500002
        },
        {
          "name": "C#4",
          "midi": 61,
          "time": 5.052624000000002,
          "velocity": 0.6299212598425197,
          "duration": 0.4493414312499997
        },
        {
          "name": "E4",
          "midi": 64,
          "time": 5.5263075000000015,
          "velocity": 0.6299212598425197,
          "duration": 0.4493414312499997
        },
        {
          "name": "C#4",
          "midi": 61,
          "time": 5.999991000000001,
          "velocity": 0.6299212598425197,
          "duration": 0.2993416562500002
        },
        {
          "name": "C#4",
          "midi": 61,
          "time": 6.315780000000002,
          "velocity": 0.6299212598425197,
          "duration": 0.4493414312499997
        },
        {
          "name": "E4",
          "midi": 64,
          "time": 6.789463500000002,
          "velocity": 0.6299212598425197,
          "duration": 0.4493414312499997
        },
        {
          "name": "C#4",
          "midi": 61,
          "time": 7.263147000000002,
          "velocity": 0.6299212598425197,
          "duration": 0.2993416562500002
        },
        {
          "name": "C#4",
          "midi": 61,
          "time": 7.578936000000002,
          "velocity": 0.6299212598425197,
          "duration": 0.4493414312499997
        },
        {
          "name": "E4",
          "midi": 64,
          "time": 8.052619500000002,
          "velocity": 0.6299212598425197,
          "duration": 0.4493414312499997
        },
        {
          "name": "C#4",
          "midi": 61,
          "time": 8.526303000000002,
          "velocity": 0.6299212598425197,
          "duration": 0.2993416562500002
        },
        {
          "name": "D#4",
          "midi": 63,
          "time": 8.842092000000003,
          "velocity": 0.6299212598425197,
          "duration": 0.4493414312499997
        },
        {
          "name": "C#4",
          "midi": 61,
          "time": 9.315775500000003,
          "velocity": 0.6299212598425197,
          "duration": 0.4493414312499997
        },
        {
          "name": "B3",
          "midi": 59,
          "time": 9.789459000000003,
          "velocity": 0.6299212598425197,
          "duration": 0.1493418812500007
        },
        {
          "name": "C#4",
          "midi": 61,
          "time": 9.947353500000004,
          "velocity": 0.6299212598425197,
          "duration": 0.1493418812500007
        },
        {
          "name": "E4",
          "midi": 64,
          "time": 10.105248000000005,
          "velocity": 0.6299212598425197,
          "duration": 0.2993416562500002
        },
        {
          "name": "E4",
          "midi": 64,
          "time": 10.421037000000005,
          "velocity": 0.6299212598425197,
          "duration": 0.1493418812500007
        },
        {
          "name": "E4",
          "midi": 64,
          "time": 10.578931500000007,
          "velocity": 0.6299212598425197,
          "duration": 0.1493418812500007
        },
        {
          "name": "E4",
          "midi": 64,
          "time": 10.736826000000008,
          "velocity": 0.6299212598425197,
          "duration": 0.1493418812500007
        },
        {
          "name": "E4",
          "midi": 64,
          "time": 10.894720500000009,
          "velocity": 0.6299212598425197,
          "duration": 0.2993416562500002
        },
        {
          "name": "E4",
          "midi": 64,
          "time": 11.21050950000001,
          "velocity": 0.6299212598425197,
          "duration": 0.2993416562500002
        },
        {
          "name": "E4",
          "midi": 64,
          "time": 11.52629850000001,
          "velocity": 0.6299212598425197,
          "duration": 0.1493418812500007
        },
        {
          "name": "E4",
          "midi": 64,
          "time": 11.684193000000011,
          "velocity": 0.6299212598425197,
          "duration": 0.2993416562500002
        },
        {
          "name": "E4",
          "midi": 64,
          "time": 11.999982000000012,
          "velocity": 0.6299212598425197,
          "duration": 0.2993416562500002
        },
        {
          "name": "E4",
          "midi": 64,
          "time": 12.315771000000012,
          "velocity": 0.6299212598425197,
          "duration": 0.1493418812500007
        },
        {
          "name": "E4",
          "midi": 64,
          "time": 12.473665500000013,
          "velocity": 0.6299212598425197,
          "duration": 0.1493418812500007
        },
        {
          "name": "E4",
          "midi": 64,
          "time": 12.631560000000015,
          "velocity": 0.6299212598425197,
          "duration": 0.2993416562500002
        },
        {
          "name": "E4",
          "midi": 64,
          "time": 12.947349000000015,
          "velocity": 0.6299212598425197,
          "duration": 0.2993416562500002
        },
        {
          "name": "F#4",
          "midi": 66,
          "time": 13.263138000000016,
          "velocity": 0.6299212598425197,
          "duration": 0.1493418812500007
        },
        {
          "name": "G#4",
          "midi": 68,
          "time": 13.421032500000017,
          "velocity": 0.6299212598425197,
          "duration": 0.2993416562500002
        },
        {
          "name": "G#4",
          "midi": 68,
          "time": 13.736821500000017,
          "velocity": 0.6299212598425197,
          "duration": 0.7493409812500005
        },
        {
          "name": "B4",
          "midi": 71,
          "time": 15.157872000000017,
          "velocity": 0.6299212598425197,
          "duration": 0.1493418812500007
        },
        {
          "name": "F#4",
          "midi": 66,
          "time": 15.315766500000018,
          "velocity": 0.6299212598425197,
          "duration": 0.1493418812500007
        },
        {
          "name": "G#4",
          "midi": 68,
          "time": 15.47366100000002,
          "velocity": 0.6299212598425197,
          "duration": 0.1493418812500007
        },
        {
          "name": "G#4",
          "midi": 68,
          "time": 15.63155550000002,
          "velocity": 0.6299212598425197,
          "duration": 0.2993416562500002
        },
        {
          "name": "G#4",
          "midi": 68,
          "time": 15.947344500000021,
          "velocity": 0.6299212598425197,
          "duration": 0.2993416562500002
        },
        {
          "name": "G#4",
          "midi": 68,
          "time": 16.26313350000002,
          "velocity": 0.6299212598425197,
          "duration": 0.14934188124999892
        },
        {
          "name": "F#4",
          "midi": 66,
          "time": 16.421028000000017,
          "velocity": 0.6299212598425197,
          "duration": 0.14934188124999892
        },
        {
          "name": "F#4",
          "midi": 66,
          "time": 16.578922500000015,
          "velocity": 0.6299212598425197,
          "duration": 0.14934188124999892
        },
        {
          "name": "F#4",
          "midi": 66,
          "time": 16.736817000000013,
          "velocity": 0.6299212598425197,
          "duration": 0.14934188124999892
        },
        {
          "name": "G#4",
          "midi": 68,
          "time": 16.89471150000001,
          "velocity": 0.6299212598425197,
          "duration": 0.14934188124999892
        },
        {
          "name": "F#4",
          "midi": 66,
          "time": 17.052606000000008,
          "velocity": 0.6299212598425197,
          "duration": 0.2993416562500002
        },
        {
          "name": "F#4",
          "midi": 66,
          "time": 17.368395000000007,
          "velocity": 0.6299212598425197,
          "duration": 0.14934188124999892
        },
        {
          "name": "E4",
          "midi": 64,
          "time": 17.526289500000004,
          "velocity": 0.6299212598425197,
          "duration": 0.14934188124999892
        },
        {
          "name": "F#4",
          "midi": 66,
          "time": 17.684184000000002,
          "velocity": 0.6299212598425197,
          "duration": 0.2993416562500002
        },
        {
          "name": "F#4",
          "midi": 66,
          "time": 17.999973,
          "velocity": 0.6299212598425197,
          "duration": 0.14934188124999892
        },
        {
          "name": "F#4",
          "midi": 66,
          "time": 18.1578675,
          "velocity": 0.6299212598425197,
          "duration": 0.14934188124999892
        },
        {
          "name": "F#4",
          "midi": 66,
          "time": 18.315761999999996,
          "velocity": 0.6299212598425197,
          "duration": 0.14934188124999892
        },
        {
          "name": "E4",
          "midi": 64,
          "time": 18.473656499999993,
          "velocity": 0.6299212598425197,
          "duration": 0.2993416562500002
        },
        {
          "name": "C#4",
          "midi": 61,
          "time": 18.789445499999992,
          "velocity": 0.6299212598425197,
          "duration": 0.7493409812500005
        },
        {
          "name": "C#4",
          "midi": 61,
          "time": 20.052601499999994,
          "velocity": 0.6299212598425197,
          "duration": 0.14934188124999892
        },
        {
          "name": "G#4",
          "midi": 68,
          "time": 20.210495999999992,
          "velocity": 0.6299212598425197,
          "duration": 0.14934188124999892
        },
        {
          "name": "G#4",
          "midi": 68,
          "time": 20.36839049999999,
          "velocity": 0.6299212598425197,
          "duration": 0.14934188124999892
        },
        {
          "name": "G#4",
          "midi": 68,
          "time": 20.526284999999987,
          "velocity": 0.6299212598425197,
          "duration": 0.14934188124999892
        },
        {
          "name": "G#4",
          "midi": 68,
          "time": 20.684179499999985,
          "velocity": 0.6299212598425197,
          "duration": 0.14934188124999892
        },
        {
          "name": "G#4",
          "midi": 68,
          "time": 20.842073999999982,
          "velocity": 0.6299212598425197,
          "duration": 0.14934188124999892
        },
        {
          "name": "G#4",
          "midi": 68,
          "time": 20.99996849999998,
          "velocity": 0.6299212598425197,
          "duration": 0.14934188124999892
        },
        {
          "name": "G#4",
          "midi": 68,
          "time": 21.157862999999978,
          "velocity": 0.6299212598425197,
          "duration": 0.14934188124999892
        },
        {
          "name": "G#4",
          "midi": 68,
          "time": 21.315757499999975,
          "velocity": 0.6299212598425197,
          "duration": 0.14934188124999892
        },
        {
          "name": "G#4",
          "midi": 68,
          "time": 21.473651999999973,
          "velocity": 0.6299212598425197,
          "duration": 0.14934188124999892
        },
        {
          "name": "G#4",
          "midi": 68,
          "time": 21.63154649999997,
          "velocity": 0.6299212598425197,
          "duration": 0.14934188124999892
        },
        {
          "name": "G#4",
          "midi": 68,
          "time": 21.789440999999968,
          "velocity": 0.6299212598425197,
          "duration": 0.14934188124999892
        },
        {
          "name": "G#4",
          "midi": 68,
          "time": 21.947335499999966,
          "velocity": 0.6299212598425197,
          "duration": 0.2993416562500002
        },
        {
          "name": "G#4",
          "midi": 68,
          "time": 22.263124499999964,
          "velocity": 0.6299212598425197,
          "duration": 0.2993416562500002
        },
        {
          "name": "G#4",
          "midi": 68,
          "time": 22.578913499999963,
          "velocity": 0.6299212598425197,
          "duration": 0.14934188124999892
        },
        {
          "name": "B4",
          "midi": 71,
          "time": 22.73680799999996,
          "velocity": 0.6299212598425197,
          "duration": 0.2993416562500002
        },
        {
          "name": "G#4",
          "midi": 68,
          "time": 23.05259699999996,
          "velocity": 0.6299212598425197,
          "duration": 0.14934188124999892
        },
        {
          "name": "G#4",
          "midi": 68,
          "time": 23.210491499999957,
          "velocity": 0.6299212598425197,
          "duration": 0.14934188124999892
        },
        {
          "name": "F#4",
          "midi": 66,
          "time": 23.368385999999955,
          "velocity": 0.6299212598425197,
          "duration": 0.14934188124999892
        },
        {
          "name": "F#4",
          "midi": 66,
          "time": 23.526280499999952,
          "velocity": 0.6299212598425197,
          "duration": 0.14934188124999892
        },
        {
          "name": "E4",
          "midi": 64,
          "time": 23.68417499999995,
          "velocity": 0.6299212598425197,
          "duration": 0.14934188124999892
        },
        {
          "name": "G#4",
          "midi": 68,
          "time": 23.842069499999948,
          "velocity": 0.6299212598425197,
          "duration": 0.7493409812500005
        },
        {
          "name": "F#4",
          "midi": 66,
          "time": 24.63154199999995,
          "velocity": 0.6299212598425197,
          "duration": 0.14934188124999892
        },
        {
          "name": "E4",
          "midi": 64,
          "time": 24.789436499999947,
          "velocity": 0.6299212598425197,
          "duration": 0.14934188124999892
        },
        {
          "name": "E4",
          "midi": 64,
          "time": 24.947330999999945,
          "velocity": 0.6299212598425197,
          "duration": 0.14934188124999892
        },
        {
          "name": "E4",
          "midi": 64,
          "time": 25.105225499999943,
          "velocity": 0.6299212598425197,
          "duration": 0.14934188124999892
        },
        {
          "name": "E4",
          "midi": 64,
          "time": 25.26311999999994,
          "velocity": 0.6299212598425197,
          "duration": 0.4493414312500015
        },
        {
          "name": "B4",
          "midi": 71,
          "time": 25.73680349999994,
          "velocity": 0.6299212598425197,
          "duration": 0.2993416562500002
        },
        {
          "name": "G#4",
          "midi": 68,
          "time": 26.05259249999994,
          "velocity": 0.6299212598425197,
          "duration": 0.14934188124999892
        },
        {
          "name": "G#4",
          "midi": 68,
          "time": 26.210486999999937,
          "velocity": 0.6299212598425197,
          "duration": 0.14934188124999892
        },
        {
          "name": "G#4",
          "midi": 68,
          "time": 26.368381499999934,
          "velocity": 0.6299212598425197,
          "duration": 0.14934188124999892
        },
        {
          "name": "F#4",
          "midi": 66,
          "time": 26.526275999999932,
          "velocity": 0.6299212598425197,
          "duration": 0.14934188124999892
        },
        {
          "name": "F#4",
          "midi": 66,
          "time": 26.68417049999993,
          "velocity": 0.6299212598425197,
          "duration": 0.14934188124999892
        },
        {
          "name": "F#4",
          "midi": 66,
          "time": 26.842064999999927,
          "velocity": 0.6299212598425197,
          "duration": 0.14934188124999892
        },
        {
          "name": "F#4",
          "midi": 66,
          "time": 26.999959499999925,
          "velocity": 0.6299212598425197,
          "duration": 0.2993416562500002
        },
        {
          "name": "F#4",
          "midi": 66,
          "time": 27.315748499999923,
          "velocity": 0.6299212598425197,
          "duration": 0.2993416562500002
        },
        {
          "name": "F#4",
          "midi": 66,
          "time": 27.631537499999922,
          "velocity": 0.6299212598425197,
          "duration": 0.14934188124999892
        },
        {
          "name": "F#4",
          "midi": 66,
          "time": 27.78943199999992,
          "velocity": 0.6299212598425197,
          "duration": 0.2993416562500002
        },
        {
          "name": "F#4",
          "midi": 66,
          "time": 28.10522099999992,
          "velocity": 0.6299212598425197,
          "duration": 0.2993416562500002
        },
        {
          "name": "F#4",
          "midi": 66,
          "time": 28.421009999999917,
          "velocity": 0.6299212598425197,
          "duration": 0.2993416562500002
        },
        {
          "name": "E4",
          "midi": 64,
          "time": 28.736798999999916,
          "velocity": 0.6299212598425197,
          "duration": 0.14934188124999892
        },
        {
          "name": "C#4",
          "midi": 61,
          "time": 28.894693499999914,
          "velocity": 0.6299212598425197,
          "duration": 0.2993416562500002
        },
        {
          "name": "G#4",
          "midi": 68,
          "time": 29.210482499999912,
          "velocity": 0.6299212598425197,
          "duration": 0.14934188124999892
        },
        {
          "name": "G#4",
          "midi": 68,
          "time": 29.36837699999991,
          "velocity": 0.6299212598425197,
          "duration": 0.14934188124999892
        },
        {
          "name": "G#4",
          "midi": 68,
          "time": 29.526271499999908,
          "velocity": 0.6299212598425197,
          "duration": 0.14934188124999892
        },
        {
          "name": "B4",
          "midi": 71,
          "time": 29.684165999999905,
          "velocity": 0.6299212598425197,
          "duration": 0.14934188124999892
        },
        {
          "name": "C#5",
          "midi": 73,
          "time": 29.842060499999903,
          "velocity": 0.6299212598425197,
          "duration": 0.14934188124999892
        },
        {
          "name": "C#5",
          "midi": 73,
          "time": 29.9999549999999,
          "velocity": 0.6299212598425197,
          "duration": 0.2993416562500002
        },
        {
          "name": "C#5",
          "midi": 73,
          "time": 30.3157439999999,
          "velocity": 0.6299212598425197,
          "duration": 0.2993416562500002
        },
        {
          "name": "C#5",
          "midi": 73,
          "time": 30.631532999999898,
          "velocity": 0.6299212598425197,
          "duration": 0.2993416562500002
        },
        {
          "name": "C#5",
          "midi": 73,
          "time": 30.947321999999897,
          "velocity": 0.6299212598425197,
          "duration": 0.2993416562500002
        },
        {
          "name": "B4",
          "midi": 71,
          "time": 31.263110999999896,
          "velocity": 0.6299212598425197,
          "duration": 0.2993416562500002
        },
        {
          "name": "C#5",
          "midi": 73,
          "time": 31.578899999999894,
          "velocity": 0.6299212598425197,
          "duration": 0.2993416562500002
        },
        {
          "name": "G#5",
          "midi": 80,
          "time": 31.894688999999893,
          "velocity": 0.6299212598425197,
          "duration": 0.2993416562500002
        },
        {
          "name": "F#5",
          "midi": 78,
          "time": 32.210477999999895,
          "velocity": 0.6299212598425197,
          "duration": 0.5993412062500028
        },
        {
          "name": "E5",
          "midi": 76,
          "time": 32.8420559999999,
          "velocity": 0.6299212598425197,
          "duration": 0.14934188125000247
        },
        {
          "name": "F#5",
          "midi": 78,
          "time": 32.999950499999905,
          "velocity": 0.6299212598425197,
          "duration": 0.2993416562500002
        },
        {
          "name": "G#5",
          "midi": 80,
          "time": 33.31573949999991,
          "velocity": 0.6299212598425197,
          "duration": 0.14934188125000247
        },
        {
          "name": "F#5",
          "midi": 78,
          "time": 33.47363399999991,
          "velocity": 0.6299212598425197,
          "duration": 0.2993416562500002
        },
        {
          "name": "E5",
          "midi": 76,
          "time": 33.789422999999914,
          "velocity": 0.6299212598425197,
          "duration": 0.2993416562500002
        },
        {
          "name": "C#5",
          "midi": 73,
          "time": 34.105211999999916,
          "velocity": 0.6299212598425197,
          "duration": 0.2993416562500002
        },
        {
          "name": "E5",
          "midi": 76,
          "time": 34.42100099999992,
          "velocity": 0.6299212598425197,
          "duration": 0.2993416562500002
        },
        {
          "name": "G#5",
          "midi": 80,
          "time": 34.73678999999992,
          "velocity": 0.6299212598425197,
          "duration": 0.14934188125000247
        },
        {
          "name": "F#5",
          "midi": 78,
          "time": 34.894684499999926,
          "velocity": 0.6299212598425197,
          "duration": 0.14934188125000247
        },
        {
          "name": "F#5",
          "midi": 78,
          "time": 35.05257899999993,
          "velocity": 0.6299212598425197,
          "duration": 0.2993416562500002
        },
        {
          "name": "C#5",
          "midi": 73,
          "time": 35.36836799999993,
          "velocity": 0.6299212598425197,
          "duration": 0.5993412062500028
        },
        {
          "name": "B5",
          "midi": 83,
          "time": 35.99994599999994,
          "velocity": 0.6299212598425197,
          "duration": 0.14934188125000247
        },
        {
          "name": "F#5",
          "midi": 78,
          "time": 36.15784049999994,
          "velocity": 0.6299212598425197,
          "duration": 0.14934188125000247
        },
        {
          "name": "G#5",
          "midi": 80,
          "time": 36.31573499999995,
          "velocity": 0.6299212598425197,
          "duration": 0.2993416562500002
        },
        {
          "name": "F#5",
          "midi": 78,
          "time": 36.63152399999995,
          "velocity": 0.6299212598425197,
          "duration": 0.14934188125000247
        },
        {
          "name": "E5",
          "midi": 76,
          "time": 36.789418499999954,
          "velocity": 0.6299212598425197,
          "duration": 0.14934188125000247
        },
        {
          "name": "E5",
          "midi": 76,
          "time": 36.94731299999996,
          "velocity": 0.6299212598425197,
          "duration": 0.2993416562500002
        },
        {
          "name": "C#5",
          "midi": 73,
          "time": 37.26310199999996,
          "velocity": 0.6299212598425197,
          "duration": 0.5993412062500028
        },
        {
          "name": "E5",
          "midi": 76,
          "time": 37.894679999999966,
          "velocity": 0.6299212598425197,
          "duration": 0.14934188125000247
        },
        {
          "name": "F#5",
          "midi": 78,
          "time": 38.05257449999997,
          "velocity": 0.6299212598425197,
          "duration": 0.2993416562500002
        },
        {
          "name": "G#5",
          "midi": 80,
          "time": 38.36836349999997,
          "velocity": 0.6299212598425197,
          "duration": 0.14934188125000247
        },
        {
          "name": "F#5",
          "midi": 78,
          "time": 38.52625799999998,
          "velocity": 0.6299212598425197,
          "duration": 0.2993416562500002
        },
        {
          "name": "E5",
          "midi": 76,
          "time": 38.84204699999998,
          "velocity": 0.6299212598425197,
          "duration": 0.2993416562500002
        },
        {
          "name": "F#5",
          "midi": 78,
          "time": 39.15783599999998,
          "velocity": 0.6299212598425197,
          "duration": 0.2993416562500002
        },
        {
          "name": "E5",
          "midi": 76,
          "time": 39.473624999999984,
          "velocity": 0.6299212598425197,
          "duration": 0.2993416562500002
        },
        {
          "name": "C#5",
          "midi": 73,
          "time": 39.78941399999999,
          "velocity": 0.6299212598425197,
          "duration": 0.2993416562500002
        },
        {
          "name": "C#5",
          "midi": 73,
          "time": 40.10520299999999,
          "velocity": 0.6299212598425197,
          "duration": 0.2993416562500002
        },
        {
          "name": "C#5",
          "midi": 73,
          "time": 40.42099199999999,
          "velocity": 0.6299212598425197,
          "duration": 0.5993412062500028
        },
        {
          "name": "C#5",
          "midi": 73,
          "time": 41.052569999999996,
          "velocity": 0.6299212598425197,
          "duration": 0.2993416562500002
        },
        {
          "name": "B4",
          "midi": 71,
          "time": 41.368359,
          "velocity": 0.6299212598425197,
          "duration": 0.2993416562500002
        },
        {
          "name": "C#5",
          "midi": 73,
          "time": 41.684148,
          "velocity": 0.6299212598425197,
          "duration": 0.2993416562500002
        },
        {
          "name": "G#5",
          "midi": 80,
          "time": 41.999937,
          "velocity": 0.6299212598425197,
          "duration": 0.2993416562500002
        },
        {
          "name": "F#5",
          "midi": 78,
          "time": 42.315726000000005,
          "velocity": 0.6299212598425197,
          "duration": 0.5993412062500028
        },
        {
          "name": "E5",
          "midi": 76,
          "time": 42.94730400000001,
          "velocity": 0.6299212598425197,
          "duration": 0.14934188125000247
        },
        {
          "name": "F#5",
          "midi": 78,
          "time": 43.105198500000014,
          "velocity": 0.6299212598425197,
          "duration": 0.2993416562500002
        },
        {
          "name": "G#5",
          "midi": 80,
          "time": 43.42098750000002,
          "velocity": 0.6299212598425197,
          "duration": 0.14934188125000247
        },
        {
          "name": "F#5",
          "midi": 78,
          "time": 43.57888200000002,
          "velocity": 0.6299212598425197,
          "duration": 0.2993416562500002
        },
        {
          "name": "E5",
          "midi": 76,
          "time": 43.894671000000024,
          "velocity": 0.6299212598425197,
          "duration": 0.2993416562500002
        },
        {
          "name": "C#5",
          "midi": 73,
          "time": 44.210460000000026,
          "velocity": 0.6299212598425197,
          "duration": 0.2993416562500002
        },
        {
          "name": "E5",
          "midi": 76,
          "time": 44.52624900000003,
          "velocity": 0.6299212598425197,
          "duration": 0.2993416562500002
        },
        {
          "name": "G#5",
          "midi": 80,
          "time": 44.84203800000003,
          "velocity": 0.6299212598425197,
          "duration": 0.14934188125000247
        },
        {
          "name": "F#5",
          "midi": 78,
          "time": 44.999932500000035,
          "velocity": 0.6299212598425197,
          "duration": 0.14934188125000247
        },
        {
          "name": "F#5",
          "midi": 78,
          "time": 45.15782700000004,
          "velocity": 0.6299212598425197,
          "duration": 0.2993416562500002
        },
        {
          "name": "C#5",
          "midi": 73,
          "time": 45.47361600000004,
          "velocity": 0.6299212598425197,
          "duration": 0.5993412062500028
        },
        {
          "name": "B5",
          "midi": 83,
          "time": 46.10519400000005,
          "velocity": 0.6299212598425197,
          "duration": 0.14934188125000247
        },
        {
          "name": "F#5",
          "midi": 78,
          "time": 46.26308850000005,
          "velocity": 0.6299212598425197,
          "duration": 0.14934188125000247
        },
        {
          "name": "G#5",
          "midi": 80,
          "time": 46.42098300000006,
          "velocity": 0.6299212598425197,
          "duration": 0.2993416562500002
        },
        {
          "name": "F#5",
          "midi": 78,
          "time": 46.73677200000006,
          "velocity": 0.6299212598425197,
          "duration": 0.14934188125000247
        },
        {
          "name": "E5",
          "midi": 76,
          "time": 46.89466650000006,
          "velocity": 0.6299212598425197,
          "duration": 0.14934188125000247
        },
        {
          "name": "E5",
          "midi": 76,
          "time": 47.05256100000007,
          "velocity": 0.6299212598425197,
          "duration": 0.2993416562500002
        },
        {
          "name": "C#5",
          "midi": 73,
          "time": 47.36835000000007,
          "velocity": 0.6299212598425197,
          "duration": 0.2993416562500002
        },
        {
          "name": "C#5",
          "midi": 73,
          "time": 47.68413900000007,
          "velocity": 0.6299212598425197,
          "duration": 0.2993416562500002
        },
        {
          "name": "B5",
          "midi": 83,
          "time": 47.999928000000075,
          "velocity": 0.6299212598425197,
          "duration": 0.14934188125000247
        },
        {
          "name": "F#5",
          "midi": 78,
          "time": 48.15782250000008,
          "velocity": 0.6299212598425197,
          "duration": 0.14934188125000247
        },
        {
          "name": "G#5",
          "midi": 80,
          "time": 48.315717000000085,
          "velocity": 0.6299212598425197,
          "duration": 0.2993416562500002
        },
        {
          "name": "F#5",
          "midi": 78,
          "time": 48.63150600000009,
          "velocity": 0.6299212598425197,
          "duration": 0.14934188125000247
        },
        {
          "name": "E5",
          "midi": 76,
          "time": 48.78940050000009,
          "velocity": 0.6299212598425197,
          "duration": 0.14934188125000247
        },
        {
          "name": "E5",
          "midi": 76,
          "time": 48.947295000000096,
          "velocity": 0.6299212598425197,
          "duration": 0.2993416562500002
        },
        {
          "name": "C#5",
          "midi": 73,
          "time": 49.2630840000001,
          "velocity": 0.6299212598425197,
          "duration": 0.2993416562500002
        },
        {
          "name": "G#4",
          "midi": 68,
          "time": 49.5788730000001,
          "velocity": 0.6299212598425197,
          "duration": 0.2993416562500002
        },
        {
          "name": "B4",
          "midi": 71,
          "time": 49.8946620000001,
          "velocity": 0.6299212598425197,
          "duration": 0.2993416562500002
        },
        {
          "name": "C#5",
          "midi": 73,
          "time": 50.210451000000106,
          "velocity": 0.6299212598425197,
          "duration": 1.1993403062500008
        },
        {
          "name": "E5",
          "midi": 76,
          "time": 51.47360700000011,
          "velocity": 0.6299212598425197,
          "duration": 0.14934188125000247
        },
        {
          "name": "F#5",
          "midi": 78,
          "time": 51.63150150000011,
          "velocity": 0.6299212598425197,
          "duration": 0.14934188125000247
        },
        {
          "name": "G#5",
          "midi": 80,
          "time": 51.78939600000012,
          "velocity": 0.6299212598425197,
          "duration": 0.2993416562500002
        },
        {
          "name": "F#5",
          "midi": 78,
          "time": 52.10518500000012,
          "velocity": 0.6299212598425197,
          "duration": 0.14934188125000247
        },
        {
          "name": "E5",
          "midi": 76,
          "time": 52.263079500000124,
          "velocity": 0.6299212598425197,
          "duration": 0.14934188125000247
        },
        {
          "name": "E5",
          "midi": 76,
          "time": 52.42097400000013,
          "velocity": 0.6299212598425197,
          "duration": 0.2993416562500002
        },
        {
          "name": "F#5",
          "midi": 78,
          "time": 52.73676300000013,
          "velocity": 0.6299212598425197,
          "duration": 0.2993416562500002
        },
        {
          "name": "F#5",
          "midi": 78,
          "time": 53.052552000000134,
          "velocity": 0.6299212598425197,
          "duration": 0.5993412062500028
        },
        {
          "name": "C#5",
          "midi": 73,
          "time": 53.842024500000136,
          "velocity": 0.6299212598425197,
          "duration": 0.14934188125000247
        },
        {
          "name": "E5",
          "midi": 76,
          "time": 53.99991900000014,
          "velocity": 0.6299212598425197,
          "duration": 0.14934188125000247
        },
        {
          "name": "F#5",
          "midi": 78,
          "time": 54.157813500000145,
          "velocity": 0.6299212598425197,
          "duration": 0.14934188125000247
        },
        {
          "name": "G#5",
          "midi": 80,
          "time": 54.31570800000015,
          "velocity": 0.6299212598425197,
          "duration": 0.2993416562500002
        },
        {
          "name": "F#5",
          "midi": 78,
          "time": 54.63149700000015,
          "velocity": 0.6299212598425197,
          "duration": 0.14934188125000247
        },
        {
          "name": "E5",
          "midi": 76,
          "time": 54.78939150000016,
          "velocity": 0.6299212598425197,
          "duration": 0.14934188125000247
        },
        {
          "name": "E5",
          "midi": 76,
          "time": 54.94728600000016,
          "velocity": 0.6299212598425197,
          "duration": 0.2993416562500002
        },
        {
          "name": "F#5",
          "midi": 78,
          "time": 55.263075000000164,
          "velocity": 0.6299212598425197,
          "duration": 0.2993416562500002
        },
        {
          "name": "C#5",
          "midi": 73,
          "time": 55.578864000000166,
          "velocity": 0.6299212598425197,
          "duration": 0.5993412062500028
        },
        {
          "name": "C#5",
          "midi": 73,
          "time": 56.36833650000017,
          "velocity": 0.6299212598425197,
          "duration": 0.14934188125000247
        },
        {
          "name": "E5",
          "midi": 76,
          "time": 56.52623100000017,
          "velocity": 0.6299212598425197,
          "duration": 0.14934188125000247
        },
        {
          "name": "F#5",
          "midi": 78,
          "time": 56.68412550000018,
          "velocity": 0.6299212598425197,
          "duration": 0.14934188125000247
        },
        {
          "name": "G#5",
          "midi": 80,
          "time": 56.84202000000018,
          "velocity": 0.6299212598425197,
          "duration": 0.2993416562500002
        },
        {
          "name": "C#5",
          "midi": 73,
          "time": 57.157809000000185,
          "velocity": 0.6299212598425197,
          "duration": 0.2993416562500002
        },
        {
          "name": "E5",
          "midi": 76,
          "time": 57.47359800000019,
          "velocity": 0.6299212598425197,
          "duration": 0.2993416562500002
        },
        {
          "name": "F#5",
          "midi": 78,
          "time": 57.78938700000019,
          "velocity": 0.6299212598425197,
          "duration": 0.2993416562500002
        },
        {
          "name": "F#5",
          "midi": 78,
          "time": 58.10517600000019,
          "velocity": 0.6299212598425197,
          "duration": 0.8993407562499982
        },
        {
          "name": "E5",
          "midi": 76,
          "time": 59.05254300000019,
          "velocity": 0.6299212598425197,
          "duration": 0.14934188125000247
        },
        {
          "name": "F#5",
          "midi": 78,
          "time": 59.2104375000002,
          "velocity": 0.6299212598425197,
          "duration": 0.14934188125000247
        },
        {
          "name": "G#5",
          "midi": 80,
          "time": 59.3683320000002,
          "velocity": 0.6299212598425197,
          "duration": 0.2993416562500002
        },
        {
          "name": "F#5",
          "midi": 78,
          "time": 59.684121000000204,
          "velocity": 0.6299212598425197,
          "duration": 0.14934188125000247
        },
        {
          "name": "E5",
          "midi": 76,
          "time": 59.84201550000021,
          "velocity": 0.6299212598425197,
          "duration": 0.14934188125000247
        },
        {
          "name": "F#5",
          "midi": 78,
          "time": 59.99991000000021,
          "velocity": 0.6299212598425197,
          "duration": 0.4493414312499979
        },
        {
          "name": "C#5",
          "midi": 73,
          "time": 60.47359350000021,
          "velocity": 0.6299212598425197,
          "duration": 1.049340531250003
        },
        {
          "name": "E5",
          "midi": 76,
          "time": 61.57885500000022,
          "velocity": 0.6299212598425197,
          "duration": 0.2993416562500002
        },
        {
          "name": "G#5",
          "midi": 80,
          "time": 61.89464400000022,
          "velocity": 0.6299212598425197,
          "duration": 0.2993416562500002
        },
        {
          "name": "B5",
          "midi": 83,
          "time": 62.21043300000022,
          "velocity": 0.6299212598425197,
          "duration": 0.14934188125000247
        },
        {
          "name": "G#5",
          "midi": 80,
          "time": 62.36832750000023,
          "velocity": 0.6299212598425197,
          "duration": 0.14934188125000247
        },
        {
          "name": "F#5",
          "midi": 78,
          "time": 62.52622200000023,
          "velocity": 0.6299212598425197,
          "duration": 0.2993416562500002
        },
        {
          "name": "E5",
          "midi": 76,
          "time": 62.842011000000234,
          "velocity": 0.6299212598425197,
          "duration": 0.2993416562500002
        },
        {
          "name": "F#5",
          "midi": 78,
          "time": 63.157800000000236,
          "velocity": 0.6299212598425197,
          "duration": 0.5993412062500028
        },
        {
          "name": "C#5",
          "midi": 73,
          "time": 63.94727250000024,
          "velocity": 0.6299212598425197,
          "duration": 0.14934188124999537
        },
        {
          "name": "E5",
          "midi": 76,
          "time": 64.10516700000024,
          "velocity": 0.6299212598425197,
          "duration": 0.14934188124999537
        },
        {
          "name": "F#5",
          "midi": 78,
          "time": 64.26306150000023,
          "velocity": 0.6299212598425197,
          "duration": 0.14934188124999537
        },
        {
          "name": "G#5",
          "midi": 80,
          "time": 64.42095600000023,
          "velocity": 0.6299212598425197,
          "duration": 0.2993416562499931
        },
        {
          "name": "F#5",
          "midi": 78,
          "time": 64.73674500000023,
          "velocity": 0.6299212598425197,
          "duration": 0.14934188124999537
        },
        {
          "name": "E5",
          "midi": 76,
          "time": 64.89463950000022,
          "velocity": 0.6299212598425197,
          "duration": 0.14934188124999537
        },
        {
          "name": "E5",
          "midi": 76,
          "time": 65.05253400000022,
          "velocity": 0.6299212598425197,
          "duration": 0.2993416562499931
        },
        {
          "name": "C#5",
          "midi": 73,
          "time": 65.36832300000022,
          "velocity": 0.6299212598425197,
          "duration": 0.14934188124999537
        },
        {
          "name": "F#5",
          "midi": 78,
          "time": 65.52621750000021,
          "velocity": 0.6299212598425197,
          "duration": 0.14934188124999537
        },
        {
          "name": "C#5",
          "midi": 73,
          "time": 65.68411200000021,
          "velocity": 0.6299212598425197,
          "duration": 0.2993416562499931
        },
        {
          "name": "C#5",
          "midi": 73,
          "time": 65.99990100000021,
          "velocity": 0.6299212598425197,
          "duration": 0.14934188124999537
        },
        {
          "name": "C#5",
          "midi": 73,
          "time": 66.1577955000002,
          "velocity": 0.6299212598425197,
          "duration": 0.14934188124999537
        },
        {
          "name": "C#5",
          "midi": 73,
          "time": 66.3156900000002,
          "velocity": 0.6299212598425197,
          "duration": 0.14934188124999537
        },
        {
          "name": "C#5",
          "midi": 73,
          "time": 66.4735845000002,
          "velocity": 0.6299212598425197,
          "duration": 0.14934188124999537
        },
        {
          "name": "E5",
          "midi": 76,
          "time": 66.6314790000002,
          "velocity": 0.6299212598425197,
          "duration": 0.14934188124999537
        },
        {
          "name": "F#5",
          "midi": 78,
          "time": 66.7893735000002,
          "velocity": 0.6299212598425197,
          "duration": 0.14934188124999537
        },
        {
          "name": "G#5",
          "midi": 80,
          "time": 66.9472680000002,
          "velocity": 0.6299212598425197,
          "duration": 0.2993416562499931
        },
        {
          "name": "C#5",
          "midi": 73,
          "time": 67.26305700000019,
          "velocity": 0.6299212598425197,
          "duration": 0.2993416562499931
        },
        {
          "name": "E5",
          "midi": 76,
          "time": 67.57884600000018,
          "velocity": 0.6299212598425197,
          "duration": 0.2993416562499931
        },
        {
          "name": "F#5",
          "midi": 78,
          "time": 67.89463500000018,
          "velocity": 0.6299212598425197,
          "duration": 0.2993416562499931
        },
        {
          "name": "F#5",
          "midi": 78,
          "time": 68.21042400000017,
          "velocity": 0.6299212598425197,
          "duration": 0.8993407562499982
        },
        {
          "name": "E5",
          "midi": 76,
          "time": 69.15779100000017,
          "velocity": 0.6299212598425197,
          "duration": 0.14934188124999537
        },
        {
          "name": "F#5",
          "midi": 78,
          "time": 69.31568550000017,
          "velocity": 0.6299212598425197,
          "duration": 0.14934188124999537
        },
        {
          "name": "G#5",
          "midi": 80,
          "time": 69.47358000000017,
          "velocity": 0.6299212598425197,
          "duration": 0.2993416562499931
        },
        {
          "name": "F#5",
          "midi": 78,
          "time": 69.78936900000016,
          "velocity": 0.6299212598425197,
          "duration": 0.14934188124999537
        },
        {
          "name": "E5",
          "midi": 76,
          "time": 69.94726350000016,
          "velocity": 0.6299212598425197,
          "duration": 0.14934188124999537
        },
        {
          "name": "F#5",
          "midi": 78,
          "time": 70.10515800000016,
          "velocity": 0.6299212598425197,
          "duration": 0.44934143125000503
        },
        {
          "name": "C#5",
          "midi": 73,
          "time": 70.57884150000017,
          "velocity": 0.6299212598425197,
          "duration": 0.14934188124999537
        },
        {
          "name": "G#4",
          "midi": 68,
          "time": 70.73673600000016,
          "velocity": 0.6299212598425197,
          "duration": 0.2993416562499931
        },
        {
          "name": "C#5",
          "midi": 73,
          "time": 70.73673600000016,
          "velocity": 0.6299212598425197,
          "duration": 0.2993416562499931
        },
        {
          "name": "G#4",
          "midi": 68,
          "time": 71.05252500000016,
          "velocity": 0.6299212598425197,
          "duration": 0.2993416562499931
        },
        {
          "name": "C#5",
          "midi": 73,
          "time": 71.05252500000016,
          "velocity": 0.6299212598425197,
          "duration": 0.2993416562499931
        },
        {
          "name": "G#4",
          "midi": 68,
          "time": 71.36831400000015,
          "velocity": 0.6299212598425197,
          "duration": 0.2993416562499931
        },
        {
          "name": "E5",
          "midi": 76,
          "time": 71.36831400000015,
          "velocity": 0.6299212598425197,
          "duration": 0.2993416562499931
        },
        {
          "name": "G#4",
          "midi": 68,
          "time": 71.68410300000015,
          "velocity": 0.6299212598425197,
          "duration": 0.2993416562499931
        },
        {
          "name": "E5",
          "midi": 76,
          "time": 71.68410300000015,
          "velocity": 0.6299212598425197,
          "duration": 0.2993416562499931
        },
        {
          "name": "A4",
          "midi": 69,
          "time": 71.99989200000014,
          "velocity": 0.6299212598425197,
          "duration": 0.2993416562499931
        },
        {
          "name": "F#5",
          "midi": 78,
          "time": 71.99989200000014,
          "velocity": 0.6299212598425197,
          "duration": 0.2993416562499931
        },
        {
          "name": "A4",
          "midi": 69,
          "time": 72.31568100000014,
          "velocity": 0.6299212598425197,
          "duration": 0.2993416562499931
        },
        {
          "name": "F#5",
          "midi": 78,
          "time": 72.31568100000014,
          "velocity": 0.6299212598425197,
          "duration": 0.2993416562499931
        },
        {
          "name": "A4",
          "midi": 69,
          "time": 72.63147000000014,
          "velocity": 0.6299212598425197,
          "duration": 0.2993416562499931
        },
        {
          "name": "G#5",
          "midi": 80,
          "time": 72.63147000000014,
          "velocity": 0.6299212598425197,
          "duration": 0.2993416562499931
        },
        {
          "name": "A4",
          "midi": 69,
          "time": 72.94725900000013,
          "velocity": 0.6299212598425197,
          "duration": 1.1993403062499937
        },
        {
          "name": "G#5",
          "midi": 80,
          "time": 72.94725900000013,
          "velocity": 0.6299212598425197,
          "duration": 1.1993403062499937
        },
        {
          "name": "E5",
          "midi": 76,
          "time": 74.21041500000013,
          "velocity": 0.6299212598425197,
          "duration": 0.14934188124999537
        },
        {
          "name": "F#5",
          "midi": 78,
          "time": 74.36830950000012,
          "velocity": 0.6299212598425197,
          "duration": 0.14934188124999537
        },
        {
          "name": "G#5",
          "midi": 80,
          "time": 74.52620400000012,
          "velocity": 0.6299212598425197,
          "duration": 0.2993416562499931
        },
        {
          "name": "F#5",
          "midi": 78,
          "time": 74.84199300000012,
          "velocity": 0.6299212598425197,
          "duration": 0.14934188124999537
        },
        {
          "name": "E5",
          "midi": 76,
          "time": 74.99988750000011,
          "velocity": 0.6299212598425197,
          "duration": 0.14934188124999537
        },
        {
          "name": "F#5",
          "midi": 78,
          "time": 75.15778200000011,
          "velocity": 0.6299212598425197,
          "duration": 0.44934143125000503
        },
        {
          "name": "C#5",
          "midi": 73,
          "time": 75.63146550000012,
          "velocity": 0.6299212598425197,
          "duration": 0.14934188124999537
        },
        {
          "name": "G#4",
          "midi": 68,
          "time": 75.78936000000012,
          "velocity": 0.6299212598425197,
          "duration": 0.2993416562499931
        },
        {
          "name": "C#5",
          "midi": 73,
          "time": 75.78936000000012,
          "velocity": 0.6299212598425197,
          "duration": 0.2993416562499931
        },
        {
          "name": "G#4",
          "midi": 68,
          "time": 76.10514900000011,
          "velocity": 0.6299212598425197,
          "duration": 0.2993416562499931
        },
        {
          "name": "C#5",
          "midi": 73,
          "time": 76.10514900000011,
          "velocity": 0.6299212598425197,
          "duration": 0.2993416562499931
        },
        {
          "name": "G#4",
          "midi": 68,
          "time": 76.4209380000001,
          "velocity": 0.6299212598425197,
          "duration": 0.2993416562499931
        },
        {
          "name": "E5",
          "midi": 76,
          "time": 76.4209380000001,
          "velocity": 0.6299212598425197,
          "duration": 0.2993416562499931
        },
        {
          "name": "G#4",
          "midi": 68,
          "time": 76.7367270000001,
          "velocity": 0.6299212598425197,
          "duration": 0.2993416562499931
        },
        {
          "name": "E5",
          "midi": 76,
          "time": 76.7367270000001,
          "velocity": 0.6299212598425197,
          "duration": 0.2993416562499931
        },
        {
          "name": "A4",
          "midi": 69,
          "time": 77.0525160000001,
          "velocity": 0.6299212598425197,
          "duration": 0.2993416562499931
        },
        {
          "name": "F#5",
          "midi": 78,
          "time": 77.0525160000001,
          "velocity": 0.6299212598425197,
          "duration": 0.2993416562499931
        },
        {
          "name": "A4",
          "midi": 69,
          "time": 77.36830500000009,
          "velocity": 0.6299212598425197,
          "duration": 0.2993416562499931
        },
        {
          "name": "F#5",
          "midi": 78,
          "time": 77.36830500000009,
          "velocity": 0.6299212598425197,
          "duration": 0.2993416562499931
        },
        {
          "name": "A4",
          "midi": 69,
          "time": 77.68409400000009,
          "velocity": 0.6299212598425197,
          "duration": 0.2993416562499931
        },
        {
          "name": "G#5",
          "midi": 80,
          "time": 77.68409400000009,
          "velocity": 0.6299212598425197,
          "duration": 0.2993416562499931
        },
        {
          "name": "A4",
          "midi": 69,
          "time": 77.99988300000008,
          "velocity": 0.6299212598425197,
          "duration": 1.1993403062499937
        },
        {
          "name": "G#5",
          "midi": 80,
          "time": 77.99988300000008,
          "velocity": 0.6299212598425197,
          "duration": 1.1993403062499937
        },
        {
          "name": "E5",
          "midi": 76,
          "time": 79.26303900000008,
          "velocity": 0.6299212598425197,
          "duration": 0.14934188124999537
        },
        {
          "name": "F#5",
          "midi": 78,
          "time": 79.42093350000007,
          "velocity": 0.6299212598425197,
          "duration": 0.14934188124999537
        },
        {
          "name": "G#5",
          "midi": 80,
          "time": 79.57882800000007,
          "velocity": 0.6299212598425197,
          "duration": 0.2993416562499931
        },
        {
          "name": "F#5",
          "midi": 78,
          "time": 79.89461700000007,
          "velocity": 0.6299212598425197,
          "duration": 0.14934188124999537
        },
        {
          "name": "E5",
          "midi": 76,
          "time": 80.05251150000007,
          "velocity": 0.6299212598425197,
          "duration": 0.14934188124999537
        },
        {
          "name": "F#5",
          "midi": 78,
          "time": 80.21040600000006,
          "velocity": 0.6299212598425197,
          "duration": 0.44934143125000503
        },
        {
          "name": "C#5",
          "midi": 73,
          "time": 80.68408950000007,
          "velocity": 0.6299212598425197,
          "duration": 0.14934188124999537
        },
        {
          "name": "G#4",
          "midi": 68,
          "time": 80.84198400000007,
          "velocity": 0.6299212598425197,
          "duration": 0.2993416562499931
        },
        {
          "name": "C#5",
          "midi": 73,
          "time": 80.84198400000007,
          "velocity": 0.6299212598425197,
          "duration": 0.2993416562499931
        },
        {
          "name": "G#4",
          "midi": 68,
          "time": 81.15777300000006,
          "velocity": 0.6299212598425197,
          "duration": 0.2993416562499931
        },
        {
          "name": "C#5",
          "midi": 73,
          "time": 81.15777300000006,
          "velocity": 0.6299212598425197,
          "duration": 0.2993416562499931
        },
        {
          "name": "G#4",
          "midi": 68,
          "time": 81.47356200000006,
          "velocity": 0.6299212598425197,
          "duration": 0.2993416562499931
        },
        {
          "name": "E5",
          "midi": 76,
          "time": 81.47356200000006,
          "velocity": 0.6299212598425197,
          "duration": 0.2993416562499931
        },
        {
          "name": "G#4",
          "midi": 68,
          "time": 81.78935100000005,
          "velocity": 0.6299212598425197,
          "duration": 0.2993416562499931
        },
        {
          "name": "E5",
          "midi": 76,
          "time": 81.78935100000005,
          "velocity": 0.6299212598425197,
          "duration": 0.2993416562499931
        },
        {
          "name": "A4",
          "midi": 69,
          "time": 82.10514000000005,
          "velocity": 0.6299212598425197,
          "duration": 0.2993416562499931
        },
        {
          "name": "F#5",
          "midi": 78,
          "time": 82.10514000000005,
          "velocity": 0.6299212598425197,
          "duration": 0.2993416562499931
        },
        {
          "name": "A4",
          "midi": 69,
          "time": 82.42092900000004,
          "velocity": 0.6299212598425197,
          "duration": 0.2993416562499931
        },
        {
          "name": "F#5",
          "midi": 78,
          "time": 82.42092900000004,
          "velocity": 0.6299212598425197,
          "duration": 0.2993416562499931
        },
        {
          "name": "A4",
          "midi": 69,
          "time": 82.73671800000004,
          "velocity": 0.6299212598425197,
          "duration": 0.2993416562499931
        },
        {
          "name": "G#5",
          "midi": 80,
          "time": 82.73671800000004,
          "velocity": 0.6299212598425197,
          "duration": 0.2993416562499931
        },
        {
          "name": "A4",
          "midi": 69,
          "time": 83.05250700000003,
          "velocity": 0.6299212598425197,
          "duration": 1.1993403062499937
        },
        {
          "name": "G#5",
          "midi": 80,
          "time": 83.05250700000003,
          "velocity": 0.6299212598425197,
          "duration": 1.1993403062499937
        },
        {
          "name": "E5",
          "midi": 76,
          "time": 84.31566300000003,
          "velocity": 0.6299212598425197,
          "duration": 0.14934188124999537
        },
        {
          "name": "F#5",
          "midi": 78,
          "time": 84.47355750000003,
          "velocity": 0.6299212598425197,
          "duration": 0.14934188124999537
        },
        {
          "name": "G#5",
          "midi": 80,
          "time": 84.63145200000002,
          "velocity": 0.6299212598425197,
          "duration": 0.2993416562499931
        },
        {
          "name": "F#5",
          "midi": 78,
          "time": 84.94724100000002,
          "velocity": 0.6299212598425197,
          "duration": 0.14934188124999537
        },
        {
          "name": "E5",
          "midi": 76,
          "time": 85.10513550000002,
          "velocity": 0.6299212598425197,
          "duration": 0.14934188124999537
        },
        {
          "name": "F#5",
          "midi": 78,
          "time": 85.26303000000001,
          "velocity": 0.6299212598425197,
          "duration": 0.44934143125000503
        },
        {
          "name": "C#5",
          "midi": 73,
          "time": 85.73671350000002,
          "velocity": 0.6299212598425197,
          "duration": 0.44934143125000503
        },
        {
          "name": "C#5",
          "midi": 73,
          "time": 86.21039700000003,
          "velocity": 0.6299212598425197,
          "duration": 0.14934188124999537
        },
        {
          "name": "C#5",
          "midi": 73,
          "time": 86.36829150000003,
          "velocity": 0.6299212598425197,
          "duration": 0.14934188124999537
        },
        {
          "name": "C#5",
          "midi": 73,
          "time": 86.52618600000002,
          "velocity": 0.6299212598425197,
          "duration": 0.14934188124999537
        },
        {
          "name": "C#5",
          "midi": 73,
          "time": 86.68408050000002,
          "velocity": 0.6299212598425197,
          "duration": 0.14934188124999537
        },
        {
          "name": "E5",
          "midi": 76,
          "time": 86.84197500000002,
          "velocity": 0.6299212598425197,
          "duration": 0.14934188124999537
        },
        {
          "name": "F#5",
          "midi": 78,
          "time": 86.99986950000002,
          "velocity": 0.6299212598425197,
          "duration": 0.14934188124999537
        },
        {
          "name": "F#5",
          "midi": 78,
          "time": 87.15776400000001,
          "velocity": 0.6299212598425197,
          "duration": 0.2993416562499931
        },
        {
          "name": "C#5",
          "midi": 73,
          "time": 87.47355300000001,
          "velocity": 0.6299212598425197,
          "duration": 0.2993416562499931
        },
        {
          "name": "E5",
          "midi": 76,
          "time": 87.789342,
          "velocity": 0.6299212598425197,
          "duration": 0.2993416562499931
        },
        {
          "name": "F#5",
          "midi": 78,
          "time": 88.105131,
          "velocity": 0.6299212598425197,
          "duration": 0.2993416562499931
        },
        {
          "name": "F#5",
          "midi": 78,
          "time": 88.42092,
          "velocity": 0.6299212598425197,
          "duration": 0.8993407562499982
        },
        {
          "name": "E5",
          "midi": 76,
          "time": 89.368287,
          "velocity": 0.6299212598425197,
          "duration": 0.14934188124999537
        },
        {
          "name": "F#5",
          "midi": 78,
          "time": 89.52618149999999,
          "velocity": 0.6299212598425197,
          "duration": 0.14934188124999537
        },
        {
          "name": "G#5",
          "midi": 80,
          "time": 89.68407599999999,
          "velocity": 0.6299212598425197,
          "duration": 0.2993416562499931
        },
        {
          "name": "F#5",
          "midi": 78,
          "time": 89.99986499999999,
          "velocity": 0.6299212598425197,
          "duration": 0.14934188124999537
        },
        {
          "name": "E5",
          "midi": 76,
          "time": 90.15775949999998,
          "velocity": 0.6299212598425197,
          "duration": 0.14934188124999537
        },
        {
          "name": "E5",
          "midi": 76,
          "time": 90.31565399999998,
          "velocity": 0.6299212598425197,
          "duration": 0.2993416562499931
        },
        {
          "name": "F#5",
          "midi": 78,
          "time": 90.63144299999998,
          "velocity": 0.6299212598425197,
          "duration": 0.2993416562499931
        },
        {
          "name": "C#5",
          "midi": 73,
          "time": 90.94723199999997,
          "velocity": 0.6299212598425197,
          "duration": 0.14934188124999537
        },
        {
          "name": "E5",
          "midi": 76,
          "time": 91.10512649999997,
          "velocity": 0.6299212598425197,
          "duration": 0.2993416562499931
        },
        {
          "name": "E5",
          "midi": 76,
          "time": 91.42091549999996,
          "velocity": 0.6299212598425197,
          "duration": 0.2993416562499931
        },
        {
          "name": "E5",
          "midi": 76,
          "time": 91.73670449999996,
          "velocity": 0.6299212598425197,
          "duration": 0.14934188124999537
        },
        {
          "name": "E5",
          "midi": 76,
          "time": 91.89459899999996,
          "velocity": 0.6299212598425197,
          "duration": 0.14934188124999537
        },
        {
          "name": "E5",
          "midi": 76,
          "time": 92.05249349999995,
          "velocity": 0.6299212598425197,
          "duration": 0.14934188124999537
        },
        {
          "name": "E5",
          "midi": 76,
          "time": 92.21038799999995,
          "velocity": 0.6299212598425197,
          "duration": 0.14934188124999537
        },
        {
          "name": "E5",
          "midi": 76,
          "time": 92.36828249999995,
          "velocity": 0.6299212598425197,
          "duration": 0.14934188124999537
        },
        {
          "name": "E5",
          "midi": 76,
          "time": 92.52617699999995,
          "velocity": 0.6299212598425197,
          "duration": 0.14934188124999537
        },
        {
          "name": "E5",
          "midi": 76,
          "time": 92.68407149999994,
          "velocity": 0.6299212598425197,
          "duration": 0.2993416562499931
        },
        {
          "name": "E5",
          "midi": 76,
          "time": 92.99986049999994,
          "velocity": 0.6299212598425197,
          "duration": 0.14934188124999537
        },
        {
          "name": "E5",
          "midi": 76,
          "time": 93.15775499999994,
          "velocity": 0.6299212598425197,
          "duration": 0.14934188124999537
        },
        {
          "name": "E5",
          "midi": 76,
          "time": 93.31564949999994,
          "velocity": 0.6299212598425197,
          "duration": 0.14934188124999537
        },
        {
          "name": "E5",
          "midi": 76,
          "time": 93.47354399999993,
          "velocity": 0.6299212598425197,
          "duration": 0.2993416562499931
        },
        {
          "name": "E5",
          "midi": 76,
          "time": 93.78933299999993,
          "velocity": 0.6299212598425197,
          "duration": 0.2993416562499931
        },
        {
          "name": "F#5",
          "midi": 78,
          "time": 94.10512199999992,
          "velocity": 0.6299212598425197,
          "duration": 0.14934188124999537
        },
        {
          "name": "G#5",
          "midi": 80,
          "time": 94.26301649999992,
          "velocity": 0.6299212598425197,
          "duration": 0.2993416562499931
        },
        {
          "name": "G#5",
          "midi": 80,
          "time": 94.57880549999992,
          "velocity": 0.6299212598425197,
          "duration": 0.7493409812500005
        },
        {
          "name": "G#5",
          "midi": 80,
          "time": 95.52617249999992,
          "velocity": 0.6299212598425197,
          "duration": 0.14934188124999537
        },
        {
          "name": "G#5",
          "midi": 80,
          "time": 95.68406699999991,
          "velocity": 0.6299212598425197,
          "duration": 0.14934188124999537
        },
        {
          "name": "G#5",
          "midi": 80,
          "time": 95.84196149999991,
          "velocity": 0.6299212598425197,
          "duration": 0.14934188124999537
        },
        {
          "name": "B5",
          "midi": 83,
          "time": 95.99985599999991,
          "velocity": 0.6299212598425197,
          "duration": 0.2993416562499931
        },
        {
          "name": "G#5",
          "midi": 80,
          "time": 96.3156449999999,
          "velocity": 0.6299212598425197,
          "duration": 0.14934188124999537
        },
        {
          "name": "F#5",
          "midi": 78,
          "time": 96.4735394999999,
          "velocity": 0.6299212598425197,
          "duration": 0.2993416562499931
        },
        {
          "name": "F#5",
          "midi": 78,
          "time": 96.7893284999999,
          "velocity": 0.6299212598425197,
          "duration": 0.14934188124999537
        },
        {
          "name": "F#5",
          "midi": 78,
          "time": 96.9472229999999,
          "velocity": 0.6299212598425197,
          "duration": 0.14934188124999537
        },
        {
          "name": "F#5",
          "midi": 78,
          "time": 97.10511749999989,
          "velocity": 0.6299212598425197,
          "duration": 0.14934188124999537
        },
        {
          "name": "F#5",
          "midi": 78,
          "time": 97.26301199999989,
          "velocity": 0.6299212598425197,
          "duration": 0.14934188124999537
        },
        {
          "name": "F#5",
          "midi": 78,
          "time": 97.42090649999989,
          "velocity": 0.6299212598425197,
          "duration": 0.14934188124999537
        },
        {
          "name": "F#5",
          "midi": 78,
          "time": 97.57880099999988,
          "velocity": 0.6299212598425197,
          "duration": 0.14934188124999537
        },
        {
          "name": "F#5",
          "midi": 78,
          "time": 97.73669549999988,
          "velocity": 0.6299212598425197,
          "duration": 0.2993416562499931
        },
        {
          "name": "F#5",
          "midi": 78,
          "time": 98.05248449999988,
          "velocity": 0.6299212598425197,
          "duration": 0.14934188124999537
        },
        {
          "name": "F#5",
          "midi": 78,
          "time": 98.21037899999988,
          "velocity": 0.6299212598425197,
          "duration": 0.14934188124999537
        },
        {
          "name": "F#5",
          "midi": 78,
          "time": 98.36827349999987,
          "velocity": 0.6299212598425197,
          "duration": 0.14934188124999537
        },
        {
          "name": "F#5",
          "midi": 78,
          "time": 98.52616799999987,
          "velocity": 0.6299212598425197,
          "duration": 0.2993416562499931
        },
        {
          "name": "F#5",
          "midi": 78,
          "time": 98.84195699999987,
          "velocity": 0.6299212598425197,
          "duration": 0.14934188124999537
        },
        {
          "name": "F#5",
          "midi": 78,
          "time": 98.99985149999986,
          "velocity": 0.6299212598425197,
          "duration": 0.14934188124999537
        },
        {
          "name": "F#5",
          "midi": 78,
          "time": 99.15774599999986,
          "velocity": 0.6299212598425197,
          "duration": 0.14934188124999537
        },
        {
          "name": "E5",
          "midi": 76,
          "time": 99.31564049999986,
          "velocity": 0.6299212598425197,
          "duration": 0.14934188124999537
        },
        {
          "name": "E5",
          "midi": 76,
          "time": 99.47353499999986,
          "velocity": 0.6299212598425197,
          "duration": 0.14934188124999537
        },
        {
          "name": "E5",
          "midi": 76,
          "time": 99.63142949999985,
          "velocity": 0.6299212598425197,
          "duration": 0.7493409812500005
        },
        {
          "name": "G#5",
          "midi": 80,
          "time": 100.57879649999985,
          "velocity": 0.6299212598425197,
          "duration": 0.14934188124999537
        },
        {
          "name": "G#5",
          "midi": 80,
          "time": 100.73669099999985,
          "velocity": 0.6299212598425197,
          "duration": 0.14934188124999537
        },
        {
          "name": "G#5",
          "midi": 80,
          "time": 100.89458549999985,
          "velocity": 0.6299212598425197,
          "duration": 0.14934188124999537
        },
        {
          "name": "C#6",
          "midi": 85,
          "time": 101.05247999999985,
          "velocity": 0.6299212598425197,
          "duration": 0.14934188124999537
        },
        {
          "name": "C#6",
          "midi": 85,
          "time": 101.21037449999984,
          "velocity": 0.6299212598425197,
          "duration": 0.14934188124999537
        },
        {
          "name": "C#6",
          "midi": 85,
          "time": 101.36826899999984,
          "velocity": 0.6299212598425197,
          "duration": 0.14934188124999537
        },
        {
          "name": "C#6",
          "midi": 85,
          "time": 101.52616349999984,
          "velocity": 0.6299212598425197,
          "duration": 0.14934188124999537
        },
        {
          "name": "C#6",
          "midi": 85,
          "time": 101.68405799999984,
          "velocity": 0.6299212598425197,
          "duration": 0.14934188124999537
        },
        {
          "name": "B5",
          "midi": 83,
          "time": 101.84195249999983,
          "velocity": 0.6299212598425197,
          "duration": 0.14934188124999537
        },
        {
          "name": "G#5",
          "midi": 80,
          "time": 101.99984699999983,
          "velocity": 0.6299212598425197,
          "duration": 0.2993416562499931
        },
        {
          "name": "B5",
          "midi": 83,
          "time": 102.31563599999983,
          "velocity": 0.6299212598425197,
          "duration": 0.14934188124999537
        },
        {
          "name": "G#5",
          "midi": 80,
          "time": 102.47353049999982,
          "velocity": 0.6299212598425197,
          "duration": 0.14934188124999537
        },
        {
          "name": "G#5",
          "midi": 80,
          "time": 102.63142499999982,
          "velocity": 0.6299212598425197,
          "duration": 0.14934188124999537
        },
        {
          "name": "G#5",
          "midi": 80,
          "time": 102.78931949999982,
          "velocity": 0.6299212598425197,
          "duration": 0.14934188124999537
        },
        {
          "name": "F#5",
          "midi": 78,
          "time": 102.94721399999982,
          "velocity": 0.6299212598425197,
          "duration": 0.14934188124999537
        },
        {
          "name": "F#5",
          "midi": 78,
          "time": 103.10510849999982,
          "velocity": 0.6299212598425197,
          "duration": 0.14934188124999537
        },
        {
          "name": "F#5",
          "midi": 78,
          "time": 103.26300299999981,
          "velocity": 0.6299212598425197,
          "duration": 0.14934188124999537
        },
        {
          "name": "E5",
          "midi": 76,
          "time": 103.42089749999981,
          "velocity": 0.6299212598425197,
          "duration": 0.14934188124999537
        },
        {
          "name": "F#5",
          "midi": 78,
          "time": 103.57879199999981,
          "velocity": 0.6299212598425197,
          "duration": 0.14934188124999537
        },
        {
          "name": "F#5",
          "midi": 78,
          "time": 103.7366864999998,
          "velocity": 0.6299212598425197,
          "duration": 0.14934188124999537
        },
        {
          "name": "F#5",
          "midi": 78,
          "time": 103.8945809999998,
          "velocity": 0.6299212598425197,
          "duration": 0.14934188124999537
        },
        {
          "name": "F#5",
          "midi": 78,
          "time": 104.0524754999998,
          "velocity": 0.6299212598425197,
          "duration": 0.14934188124999537
        },
        {
          "name": "F#5",
          "midi": 78,
          "time": 104.2103699999998,
          "velocity": 0.6299212598425197,
          "duration": 0.14934188124999537
        },
        {
          "name": "F#5",
          "midi": 78,
          "time": 104.3682644999998,
          "velocity": 0.6299212598425197,
          "duration": 0.14934188124999537
        },
        {
          "name": "E5",
          "midi": 76,
          "time": 104.5261589999998,
          "velocity": 0.6299212598425197,
          "duration": 0.14934188124999537
        },
        {
          "name": "G#5",
          "midi": 80,
          "time": 104.68405349999979,
          "velocity": 0.6299212598425197,
          "duration": 0.7493409812500005
        },
        {
          "name": "E5",
          "midi": 76,
          "time": 105.63142049999979,
          "velocity": 0.6299212598425197,
          "duration": 0.14934188124999537
        },
        {
          "name": "E5",
          "midi": 76,
          "time": 105.78931499999979,
          "velocity": 0.6299212598425197,
          "duration": 0.14934188124999537
        },
        {
          "name": "E5",
          "midi": 76,
          "time": 105.94720949999979,
          "velocity": 0.6299212598425197,
          "duration": 0.14934188124999537
        },
        {
          "name": "E5",
          "midi": 76,
          "time": 106.10510399999978,
          "velocity": 0.6299212598425197,
          "duration": 0.14934188124999537
        },
        {
          "name": "E5",
          "midi": 76,
          "time": 106.26299849999978,
          "velocity": 0.6299212598425197,
          "duration": 0.14934188124999537
        },
        {
          "name": "E5",
          "midi": 76,
          "time": 106.42089299999978,
          "velocity": 0.6299212598425197,
          "duration": 0.14934188124999537
        },
        {
          "name": "G#5",
          "midi": 80,
          "time": 106.57878749999978,
          "velocity": 0.6299212598425197,
          "duration": 0.2993416562499931
        },
        {
          "name": "G#5",
          "midi": 80,
          "time": 106.89457649999977,
          "velocity": 0.6299212598425197,
          "duration": 0.44934143125000503
        },
        {
          "name": "E5",
          "midi": 76,
          "time": 107.36825999999978,
          "velocity": 0.6299212598425197,
          "duration": 0.14934188124999537
        },
        {
          "name": "E5",
          "midi": 76,
          "time": 107.52615449999978,
          "velocity": 0.6299212598425197,
          "duration": 0.14934188124999537
        },
        {
          "name": "E5",
          "midi": 76,
          "time": 107.68404899999977,
          "velocity": 0.6299212598425197,
          "duration": 0.14934188124999537
        },
        {
          "name": "G#5",
          "midi": 80,
          "time": 107.84194349999977,
          "velocity": 0.6299212598425197,
          "duration": 0.2993416562499931
        },
        {
          "name": "G#5",
          "midi": 80,
          "time": 108.15773249999977,
          "velocity": 0.6299212598425197,
          "duration": 0.14934188124999537
        },
        {
          "name": "G#5",
          "midi": 80,
          "time": 108.31562699999976,
          "velocity": 0.6299212598425197,
          "duration": 0.14934188124999537
        },
        {
          "name": "G#5",
          "midi": 80,
          "time": 108.47352149999976,
          "velocity": 0.6299212598425197,
          "duration": 0.14934188124999537
        },
        {
          "name": "F#5",
          "midi": 78,
          "time": 108.63141599999976,
          "velocity": 0.6299212598425197,
          "duration": 0.14934188124999537
        },
        {
          "name": "F#5",
          "midi": 78,
          "time": 108.78931049999976,
          "velocity": 0.6299212598425197,
          "duration": 0.14934188124999537
        },
        {
          "name": "F#5",
          "midi": 78,
          "time": 108.94720499999976,
          "velocity": 0.6299212598425197,
          "duration": 0.14934188124999537
        },
        {
          "name": "F#5",
          "midi": 78,
          "time": 109.10509949999975,
          "velocity": 0.6299212598425197,
          "duration": 0.14934188124999537
        },
        {
          "name": "F#5",
          "midi": 78,
          "time": 109.26299399999975,
          "velocity": 0.6299212598425197,
          "duration": 0.14934188124999537
        },
        {
          "name": "F#5",
          "midi": 78,
          "time": 109.42088849999975,
          "velocity": 0.6299212598425197,
          "duration": 0.14934188124999537
        },
        {
          "name": "E5",
          "midi": 76,
          "time": 109.57878299999975,
          "velocity": 0.6299212598425197,
          "duration": 0.14934188124999537
        },
        {
          "name": "E5",
          "midi": 76,
          "time": 109.73667749999974,
          "velocity": 0.6299212598425197,
          "duration": 0.2993416562499931
        },
        {
          "name": "G#4",
          "midi": 68,
          "time": 110.05246649999974,
          "velocity": 0.6299212598425197,
          "duration": 0.2993416562499931
        },
        {
          "name": "G#4",
          "midi": 68,
          "time": 110.36825549999973,
          "velocity": 0.6299212598425197,
          "duration": 0.14934188124999537
        },
        {
          "name": "B4",
          "midi": 71,
          "time": 110.52614999999973,
          "velocity": 0.6299212598425197,
          "duration": 0.14934188124999537
        },
        {
          "name": "C#5",
          "midi": 73,
          "time": 110.68404449999973,
          "velocity": 0.6299212598425197,
          "duration": 0.14934188124999537
        },
        {
          "name": "C#5",
          "midi": 73,
          "time": 110.84193899999973,
          "velocity": 0.6299212598425197,
          "duration": 0.2993416562499931
        },
        {
          "name": "C#5",
          "midi": 73,
          "time": 111.15772799999972,
          "velocity": 0.6299212598425197,
          "duration": 0.2993416562499931
        },
        {
          "name": "C#5",
          "midi": 73,
          "time": 111.47351699999972,
          "velocity": 0.6299212598425197,
          "duration": 0.2993416562499931
        },
        {
          "name": "C#5",
          "midi": 73,
          "time": 111.78930599999971,
          "velocity": 0.6299212598425197,
          "duration": 0.2993416562499931
        },
        {
          "name": "B4",
          "midi": 71,
          "time": 112.10509499999971,
          "velocity": 0.6299212598425197,
          "duration": 0.2993416562499931
        },
        {
          "name": "C#5",
          "midi": 73,
          "time": 112.4208839999997,
          "velocity": 0.6299212598425197,
          "duration": 0.2993416562499931
        },
        {
          "name": "G#5",
          "midi": 80,
          "time": 112.7366729999997,
          "velocity": 0.6299212598425197,
          "duration": 0.2993416562499931
        },
        {
          "name": "F#5",
          "midi": 78,
          "time": 113.0524619999997,
          "velocity": 0.6299212598425197,
          "duration": 0.5993412062500028
        },
        {
          "name": "E5",
          "midi": 76,
          "time": 113.6840399999997,
          "velocity": 0.6299212598425197,
          "duration": 0.14934188124999537
        },
        {
          "name": "F#5",
          "midi": 78,
          "time": 113.8419344999997,
          "velocity": 0.6299212598425197,
          "duration": 0.2993416562499931
        },
        {
          "name": "G#5",
          "midi": 80,
          "time": 114.15772349999969,
          "velocity": 0.6299212598425197,
          "duration": 0.14934188124999537
        },
        {
          "name": "F#5",
          "midi": 78,
          "time": 114.31561799999969,
          "velocity": 0.6299212598425197,
          "duration": 0.2993416562499931
        },
        {
          "name": "E5",
          "midi": 76,
          "time": 114.63140699999968,
          "velocity": 0.6299212598425197,
          "duration": 0.2993416562499931
        },
        {
          "name": "C#5",
          "midi": 73,
          "time": 114.94719599999968,
          "velocity": 0.6299212598425197,
          "duration": 0.2993416562499931
        },
        {
          "name": "E5",
          "midi": 76,
          "time": 115.26298499999967,
          "velocity": 0.6299212598425197,
          "duration": 0.2993416562499931
        },
        {
          "name": "G#5",
          "midi": 80,
          "time": 115.57877399999967,
          "velocity": 0.6299212598425197,
          "duration": 0.14934188124999537
        },
        {
          "name": "F#5",
          "midi": 78,
          "time": 115.73666849999967,
          "velocity": 0.6299212598425197,
          "duration": 0.14934188124999537
        },
        {
          "name": "F#5",
          "midi": 78,
          "time": 115.89456299999966,
          "velocity": 0.6299212598425197,
          "duration": 0.2993416562499931
        },
        {
          "name": "C#5",
          "midi": 73,
          "time": 116.21035199999966,
          "velocity": 0.6299212598425197,
          "duration": 0.5993412062500028
        },
        {
          "name": "B5",
          "midi": 83,
          "time": 116.84192999999966,
          "velocity": 0.6299212598425197,
          "duration": 0.14934188124999537
        },
        {
          "name": "F#5",
          "midi": 78,
          "time": 116.99982449999966,
          "velocity": 0.6299212598425197,
          "duration": 0.14934188124999537
        },
        {
          "name": "G#5",
          "midi": 80,
          "time": 117.15771899999966,
          "velocity": 0.6299212598425197,
          "duration": 0.2993416562499931
        },
        {
          "name": "F#5",
          "midi": 78,
          "time": 117.47350799999965,
          "velocity": 0.6299212598425197,
          "duration": 0.14934188124999537
        },
        {
          "name": "E5",
          "midi": 76,
          "time": 117.63140249999965,
          "velocity": 0.6299212598425197,
          "duration": 0.14934188124999537
        },
        {
          "name": "E5",
          "midi": 76,
          "time": 117.78929699999965,
          "velocity": 0.6299212598425197,
          "duration": 0.2993416562499931
        },
        {
          "name": "C#5",
          "midi": 73,
          "time": 118.10508599999964,
          "velocity": 0.6299212598425197,
          "duration": 0.5993412062500028
        },
        {
          "name": "E5",
          "midi": 76,
          "time": 118.73666399999965,
          "velocity": 0.6299212598425197,
          "duration": 0.14934188124999537
        },
        {
          "name": "F#5",
          "midi": 78,
          "time": 118.89455849999965,
          "velocity": 0.6299212598425197,
          "duration": 0.2993416562499931
        },
        {
          "name": "G#5",
          "midi": 80,
          "time": 119.21034749999964,
          "velocity": 0.6299212598425197,
          "duration": 0.14934188124999537
        },
        {
          "name": "F#5",
          "midi": 78,
          "time": 119.36824199999964,
          "velocity": 0.6299212598425197,
          "duration": 0.2993416562499931
        },
        {
          "name": "E5",
          "midi": 76,
          "time": 119.68403099999964,
          "velocity": 0.6299212598425197,
          "duration": 0.2993416562499931
        },
        {
          "name": "F#5",
          "midi": 78,
          "time": 119.99981999999963,
          "velocity": 0.6299212598425197,
          "duration": 0.2993416562499931
        },
        {
          "name": "E5",
          "midi": 76,
          "time": 120.31560899999963,
          "velocity": 0.6299212598425197,
          "duration": 0.2993416562499931
        },
        {
          "name": "C#5",
          "midi": 73,
          "time": 120.63139799999962,
          "velocity": 0.6299212598425197,
          "duration": 0.2993416562499931
        },
        {
          "name": "C#5",
          "midi": 73,
          "time": 120.94718699999962,
          "velocity": 0.6299212598425197,
          "duration": 0.2993416562499931
        },
        {
          "name": "C#5",
          "midi": 73,
          "time": 121.26297599999961,
          "velocity": 0.6299212598425197,
          "duration": 0.5993412062500028
        },
        {
          "name": "C#5",
          "midi": 73,
          "time": 121.89455399999962,
          "velocity": 0.6299212598425197,
          "duration": 0.2993416562499931
        },
        {
          "name": "B4",
          "midi": 71,
          "time": 122.21034299999961,
          "velocity": 0.6299212598425197,
          "duration": 0.2993416562499931
        },
        {
          "name": "C#5",
          "midi": 73,
          "time": 122.5261319999996,
          "velocity": 0.6299212598425197,
          "duration": 0.2993416562499931
        },
        {
          "name": "G#5",
          "midi": 80,
          "time": 122.8419209999996,
          "velocity": 0.6299212598425197,
          "duration": 0.2993416562499931
        },
        {
          "name": "F#5",
          "midi": 78,
          "time": 123.1577099999996,
          "velocity": 0.6299212598425197,
          "duration": 0.5993412062500028
        },
        {
          "name": "E5",
          "midi": 76,
          "time": 123.7892879999996,
          "velocity": 0.6299212598425197,
          "duration": 0.14934188124999537
        },
        {
          "name": "F#5",
          "midi": 78,
          "time": 123.9471824999996,
          "velocity": 0.6299212598425197,
          "duration": 0.2993416562499931
        },
        {
          "name": "G#5",
          "midi": 80,
          "time": 124.2629714999996,
          "velocity": 0.6299212598425197,
          "duration": 0.14934188124999537
        },
        {
          "name": "F#5",
          "midi": 78,
          "time": 124.42086599999959,
          "velocity": 0.6299212598425197,
          "duration": 0.2993416562499931
        },
        {
          "name": "E5",
          "midi": 76,
          "time": 124.73665499999959,
          "velocity": 0.6299212598425197,
          "duration": 0.2993416562499931
        },
        {
          "name": "C#5",
          "midi": 73,
          "time": 125.05244399999958,
          "velocity": 0.6299212598425197,
          "duration": 0.2993416562499931
        },
        {
          "name": "E5",
          "midi": 76,
          "time": 125.36823299999958,
          "velocity": 0.6299212598425197,
          "duration": 0.2993416562499931
        },
        {
          "name": "G#5",
          "midi": 80,
          "time": 125.68402199999957,
          "velocity": 0.6299212598425197,
          "duration": 0.14934188124999537
        },
        {
          "name": "F#5",
          "midi": 78,
          "time": 125.84191649999957,
          "velocity": 0.6299212598425197,
          "duration": 0.14934188124999537
        },
        {
          "name": "F#5",
          "midi": 78,
          "time": 125.99981099999957,
          "velocity": 0.6299212598425197,
          "duration": 0.2993416562499931
        },
        {
          "name": "C#5",
          "midi": 73,
          "time": 126.31559999999956,
          "velocity": 0.6299212598425197,
          "duration": 0.5993412062500028
        },
        {
          "name": "B5",
          "midi": 83,
          "time": 126.94717799999957,
          "velocity": 0.6299212598425197,
          "duration": 0.14934188124999537
        },
        {
          "name": "F#5",
          "midi": 78,
          "time": 127.10507249999957,
          "velocity": 0.6299212598425197,
          "duration": 0.14934188124999537
        },
        {
          "name": "G#5",
          "midi": 80,
          "time": 127.26296699999956,
          "velocity": 0.6299212598425197,
          "duration": 0.2993416562499931
        },
        {
          "name": "F#5",
          "midi": 78,
          "time": 127.57875599999956,
          "velocity": 0.6299212598425197,
          "duration": 0.14934188124999537
        },
        {
          "name": "E5",
          "midi": 76,
          "time": 127.73665049999956,
          "velocity": 0.6299212598425197,
          "duration": 0.14934188124999537
        },
        {
          "name": "E5",
          "midi": 76,
          "time": 127.89454499999955,
          "velocity": 0.6299212598425197,
          "duration": 0.2993416562500073
        },
        {
          "name": "C#5",
          "midi": 73,
          "time": 128.21033399999956,
          "velocity": 0.6299212598425197,
          "duration": 0.2993416562499931
        },
        {
          "name": "C#5",
          "midi": 73,
          "time": 128.52612299999956,
          "velocity": 0.6299212598425197,
          "duration": 0.2993416562499931
        },
        {
          "name": "B5",
          "midi": 83,
          "time": 128.84191199999955,
          "velocity": 0.6299212598425197,
          "duration": 0.14934188124999537
        },
        {
          "name": "F#5",
          "midi": 78,
          "time": 128.99980649999955,
          "velocity": 0.6299212598425197,
          "duration": 0.14934188124999537
        },
        {
          "name": "G#5",
          "midi": 80,
          "time": 129.15770099999955,
          "velocity": 0.6299212598425197,
          "duration": 0.2993416562499931
        },
        {
          "name": "F#5",
          "midi": 78,
          "time": 129.47348999999954,
          "velocity": 0.6299212598425197,
          "duration": 0.14934188124999537
        },
        {
          "name": "E5",
          "midi": 76,
          "time": 129.63138449999954,
          "velocity": 0.6299212598425197,
          "duration": 0.14934188124999537
        },
        {
          "name": "E5",
          "midi": 76,
          "time": 129.78927899999954,
          "velocity": 0.6299212598425197,
          "duration": 0.2993416562499931
        },
        {
          "name": "C#5",
          "midi": 73,
          "time": 130.10506799999953,
          "velocity": 0.6299212598425197,
          "duration": 0.2993416562499931
        },
        {
          "name": "G#4",
          "midi": 68,
          "time": 130.42085699999953,
          "velocity": 0.6299212598425197,
          "duration": 0.2993416562499931
        },
        {
          "name": "B4",
          "midi": 71,
          "time": 130.73664599999952,
          "velocity": 0.6299212598425197,
          "duration": 0.2993416562499931
        },
        {
          "name": "C#5",
          "midi": 73,
          "time": 131.05243499999952,
          "velocity": 0.6299212598425197,
          "duration": 1.1993403062500079
        },
        {
          "name": "E5",
          "midi": 76,
          "time": 132.31559099999953,
          "velocity": 0.6299212598425197,
          "duration": 0.14934188124999537
        },
        {
          "name": "F#5",
          "midi": 78,
          "time": 132.47348549999953,
          "velocity": 0.6299212598425197,
          "duration": 0.14934188124999537
        },
        {
          "name": "G#5",
          "midi": 80,
          "time": 132.63137999999952,
          "velocity": 0.6299212598425197,
          "duration": 0.2993416562499931
        },
        {
          "name": "F#5",
          "midi": 78,
          "time": 132.94716899999952,
          "velocity": 0.6299212598425197,
          "duration": 0.14934188124999537
        },
        {
          "name": "E5",
          "midi": 76,
          "time": 133.10506349999952,
          "velocity": 0.6299212598425197,
          "duration": 0.14934188124999537
        },
        {
          "name": "E5",
          "midi": 76,
          "time": 133.26295799999951,
          "velocity": 0.6299212598425197,
          "duration": 0.2993416562499931
        },
        {
          "name": "F#5",
          "midi": 78,
          "time": 133.5787469999995,
          "velocity": 0.6299212598425197,
          "duration": 0.2993416562499931
        },
        {
          "name": "F#5",
          "midi": 78,
          "time": 133.8945359999995,
          "velocity": 0.6299212598425197,
          "duration": 0.5993412062499885
        },
        {
          "name": "C#5",
          "midi": 73,
          "time": 134.6840084999995,
          "velocity": 0.6299212598425197,
          "duration": 0.14934188124999537
        },
        {
          "name": "E5",
          "midi": 76,
          "time": 134.8419029999995,
          "velocity": 0.6299212598425197,
          "duration": 0.14934188124999537
        },
        {
          "name": "F#5",
          "midi": 78,
          "time": 134.9997974999995,
          "velocity": 0.6299212598425197,
          "duration": 0.14934188124999537
        },
        {
          "name": "G#5",
          "midi": 80,
          "time": 135.15769199999949,
          "velocity": 0.6299212598425197,
          "duration": 0.2993416562499931
        },
        {
          "name": "F#5",
          "midi": 78,
          "time": 135.47348099999948,
          "velocity": 0.6299212598425197,
          "duration": 0.14934188124999537
        },
        {
          "name": "E5",
          "midi": 76,
          "time": 135.63137549999948,
          "velocity": 0.6299212598425197,
          "duration": 0.14934188124999537
        },
        {
          "name": "E5",
          "midi": 76,
          "time": 135.78926999999948,
          "velocity": 0.6299212598425197,
          "duration": 0.2993416562499931
        },
        {
          "name": "F#5",
          "midi": 78,
          "time": 136.10505899999947,
          "velocity": 0.6299212598425197,
          "duration": 0.2993416562499931
        },
        {
          "name": "C#5",
          "midi": 73,
          "time": 136.42084799999947,
          "velocity": 0.6299212598425197,
          "duration": 0.5993412062499885
        },
        {
          "name": "C#5",
          "midi": 73,
          "time": 137.21032049999945,
          "velocity": 0.6299212598425197,
          "duration": 0.14934188124999537
        },
        {
          "name": "E5",
          "midi": 76,
          "time": 137.36821499999945,
          "velocity": 0.6299212598425197,
          "duration": 0.14934188124999537
        },
        {
          "name": "F#5",
          "midi": 78,
          "time": 137.52610949999945,
          "velocity": 0.6299212598425197,
          "duration": 0.14934188124999537
        },
        {
          "name": "G#5",
          "midi": 80,
          "time": 137.68400399999945,
          "velocity": 0.6299212598425197,
          "duration": 0.2993416562499931
        },
        {
          "name": "C#5",
          "midi": 73,
          "time": 137.99979299999944,
          "velocity": 0.6299212598425197,
          "duration": 0.2993416562499931
        },
        {
          "name": "E5",
          "midi": 76,
          "time": 138.31558199999944,
          "velocity": 0.6299212598425197,
          "duration": 0.2993416562499931
        },
        {
          "name": "F#5",
          "midi": 78,
          "time": 138.63137099999943,
          "velocity": 0.6299212598425197,
          "duration": 0.2993416562499931
        },
        {
          "name": "F#5",
          "midi": 78,
          "time": 138.94715999999943,
          "velocity": 0.6299212598425197,
          "duration": 0.8993407562500124
        },
        {
          "name": "E5",
          "midi": 76,
          "time": 139.89452699999944,
          "velocity": 0.6299212598425197,
          "duration": 0.14934188124999537
        },
        {
          "name": "F#5",
          "midi": 78,
          "time": 140.05242149999944,
          "velocity": 0.6299212598425197,
          "duration": 0.14934188124999537
        },
        {
          "name": "G#5",
          "midi": 80,
          "time": 140.21031599999944,
          "velocity": 0.6299212598425197,
          "duration": 0.2993416562499931
        },
        {
          "name": "F#5",
          "midi": 78,
          "time": 140.52610499999943,
          "velocity": 0.6299212598425197,
          "duration": 0.14934188124999537
        },
        {
          "name": "E5",
          "midi": 76,
          "time": 140.68399949999943,
          "velocity": 0.6299212598425197,
          "duration": 0.14934188124999537
        },
        {
          "name": "F#5",
          "midi": 78,
          "time": 140.84189399999943,
          "velocity": 0.6299212598425197,
          "duration": 0.4493414312499908
        },
        {
          "name": "C#5",
          "midi": 73,
          "time": 141.31557749999942,
          "velocity": 0.6299212598425197,
          "duration": 1.0493405312500101
        },
        {
          "name": "E5",
          "midi": 76,
          "time": 142.42083899999943,
          "velocity": 0.6299212598425197,
          "duration": 0.2993416562499931
        },
        {
          "name": "G#5",
          "midi": 80,
          "time": 142.73662799999943,
          "velocity": 0.6299212598425197,
          "duration": 0.2993416562499931
        },
        {
          "name": "B5",
          "midi": 83,
          "time": 143.05241699999942,
          "velocity": 0.6299212598425197,
          "duration": 0.14934188124999537
        },
        {
          "name": "G#5",
          "midi": 80,
          "time": 143.21031149999942,
          "velocity": 0.6299212598425197,
          "duration": 0.14934188124999537
        },
        {
          "name": "F#5",
          "midi": 78,
          "time": 143.36820599999942,
          "velocity": 0.6299212598425197,
          "duration": 0.2993416562499931
        },
        {
          "name": "E5",
          "midi": 76,
          "time": 143.6839949999994,
          "velocity": 0.6299212598425197,
          "duration": 0.2993416562499931
        },
        {
          "name": "F#5",
          "midi": 78,
          "time": 143.9997839999994,
          "velocity": 0.6299212598425197,
          "duration": 0.5993412062499885
        },
        {
          "name": "C#5",
          "midi": 73,
          "time": 144.7892564999994,
          "velocity": 0.6299212598425197,
          "duration": 0.14934188124999537
        },
        {
          "name": "E5",
          "midi": 76,
          "time": 144.9471509999994,
          "velocity": 0.6299212598425197,
          "duration": 0.14934188124999537
        },
        {
          "name": "F#5",
          "midi": 78,
          "time": 145.1050454999994,
          "velocity": 0.6299212598425197,
          "duration": 0.14934188124999537
        },
        {
          "name": "G#5",
          "midi": 80,
          "time": 145.2629399999994,
          "velocity": 0.6299212598425197,
          "duration": 0.2993416562499931
        },
        {
          "name": "F#5",
          "midi": 78,
          "time": 145.57872899999938,
          "velocity": 0.6299212598425197,
          "duration": 0.14934188124999537
        },
        {
          "name": "E5",
          "midi": 76,
          "time": 145.73662349999938,
          "velocity": 0.6299212598425197,
          "duration": 0.14934188124999537
        },
        {
          "name": "E5",
          "midi": 76,
          "time": 145.89451799999938,
          "velocity": 0.6299212598425197,
          "duration": 0.2993416562499931
        },
        {
          "name": "C#5",
          "midi": 73,
          "time": 146.21030699999937,
          "velocity": 0.6299212598425197,
          "duration": 0.14934188124999537
        },
        {
          "name": "F#5",
          "midi": 78,
          "time": 146.36820149999937,
          "velocity": 0.6299212598425197,
          "duration": 0.14934188124999537
        },
        {
          "name": "C#5",
          "midi": 73,
          "time": 146.52609599999937,
          "velocity": 0.6299212598425197,
          "duration": 0.2993416562499931
        },
        {
          "name": "C#5",
          "midi": 73,
          "time": 146.84188499999937,
          "velocity": 0.6299212598425197,
          "duration": 0.14934188124999537
        },
        {
          "name": "C#5",
          "midi": 73,
          "time": 146.99977949999936,
          "velocity": 0.6299212598425197,
          "duration": 0.14934188124999537
        },
        {
          "name": "C#5",
          "midi": 73,
          "time": 147.15767399999936,
          "velocity": 0.6299212598425197,
          "duration": 0.14934188124999537
        },
        {
          "name": "C#5",
          "midi": 73,
          "time": 147.31556849999936,
          "velocity": 0.6299212598425197,
          "duration": 0.14934188124999537
        },
        {
          "name": "E5",
          "midi": 76,
          "time": 147.47346299999936,
          "velocity": 0.6299212598425197,
          "duration": 0.14934188124999537
        },
        {
          "name": "F#5",
          "midi": 78,
          "time": 147.63135749999935,
          "velocity": 0.6299212598425197,
          "duration": 0.14934188124999537
        },
        {
          "name": "G#5",
          "midi": 80,
          "time": 147.78925199999935,
          "velocity": 0.6299212598425197,
          "duration": 0.2993416562499931
        },
        {
          "name": "C#5",
          "midi": 73,
          "time": 148.10504099999935,
          "velocity": 0.6299212598425197,
          "duration": 0.2993416562499931
        },
        {
          "name": "E5",
          "midi": 76,
          "time": 148.42082999999934,
          "velocity": 0.6299212598425197,
          "duration": 0.2993416562499931
        },
        {
          "name": "F#5",
          "midi": 78,
          "time": 148.73661899999934,
          "velocity": 0.6299212598425197,
          "duration": 0.2993416562499931
        },
        {
          "name": "F#5",
          "midi": 78,
          "time": 149.05240799999933,
          "velocity": 0.6299212598425197,
          "duration": 0.8993407562500124
        },
        {
          "name": "E5",
          "midi": 76,
          "time": 149.99977499999935,
          "velocity": 0.6299212598425197,
          "duration": 0.14934188124999537
        },
        {
          "name": "F#5",
          "midi": 78,
          "time": 150.15766949999934,
          "velocity": 0.6299212598425197,
          "duration": 0.14934188124999537
        },
        {
          "name": "G#5",
          "midi": 80,
          "time": 150.31556399999934,
          "velocity": 0.6299212598425197,
          "duration": 0.2993416562499931
        },
        {
          "name": "F#5",
          "midi": 78,
          "time": 150.63135299999934,
          "velocity": 0.6299212598425197,
          "duration": 0.14934188124999537
        },
        {
          "name": "E5",
          "midi": 76,
          "time": 150.78924749999933,
          "velocity": 0.6299212598425197,
          "duration": 0.14934188124999537
        },
        {
          "name": "F#5",
          "midi": 78,
          "time": 150.94714199999933,
          "velocity": 0.6299212598425197,
          "duration": 0.4493414312499908
        },
        {
          "name": "C#5",
          "midi": 73,
          "time": 151.42082549999932,
          "velocity": 0.6299212598425197,
          "duration": 0.14934188124999537
        },
        {
          "name": "G#4",
          "midi": 68,
          "time": 151.57871999999932,
          "velocity": 0.6299212598425197,
          "duration": 0.2993416562499931
        },
        {
          "name": "C#5",
          "midi": 73,
          "time": 151.57871999999932,
          "velocity": 0.6299212598425197,
          "duration": 0.2993416562499931
        },
        {
          "name": "G#4",
          "midi": 68,
          "time": 151.89450899999932,
          "velocity": 0.6299212598425197,
          "duration": 0.2993416562499931
        },
        {
          "name": "C#5",
          "midi": 73,
          "time": 151.89450899999932,
          "velocity": 0.6299212598425197,
          "duration": 0.2993416562499931
        },
        {
          "name": "G#4",
          "midi": 68,
          "time": 152.2102979999993,
          "velocity": 0.6299212598425197,
          "duration": 0.2993416562499931
        },
        {
          "name": "E5",
          "midi": 76,
          "time": 152.2102979999993,
          "velocity": 0.6299212598425197,
          "duration": 0.2993416562499931
        },
        {
          "name": "G#4",
          "midi": 68,
          "time": 152.5260869999993,
          "velocity": 0.6299212598425197,
          "duration": 0.2993416562499931
        },
        {
          "name": "E5",
          "midi": 76,
          "time": 152.5260869999993,
          "velocity": 0.6299212598425197,
          "duration": 0.2993416562499931
        },
        {
          "name": "A4",
          "midi": 69,
          "time": 152.8418759999993,
          "velocity": 0.6299212598425197,
          "duration": 0.2993416562499931
        },
        {
          "name": "F#5",
          "midi": 78,
          "time": 152.8418759999993,
          "velocity": 0.6299212598425197,
          "duration": 0.2993416562499931
        },
        {
          "name": "A4",
          "midi": 69,
          "time": 153.1576649999993,
          "velocity": 0.6299212598425197,
          "duration": 0.2993416562499931
        },
        {
          "name": "F#5",
          "midi": 78,
          "time": 153.1576649999993,
          "velocity": 0.6299212598425197,
          "duration": 0.2993416562499931
        },
        {
          "name": "A4",
          "midi": 69,
          "time": 153.4734539999993,
          "velocity": 0.6299212598425197,
          "duration": 0.2993416562499931
        },
        {
          "name": "G#5",
          "midi": 80,
          "time": 153.4734539999993,
          "velocity": 0.6299212598425197,
          "duration": 0.2993416562499931
        },
        {
          "name": "A4",
          "midi": 69,
          "time": 153.7892429999993,
          "velocity": 0.6299212598425197,
          "duration": 1.1993403062500079
        },
        {
          "name": "G#5",
          "midi": 80,
          "time": 153.7892429999993,
          "velocity": 0.6299212598425197,
          "duration": 1.1993403062500079
        },
        {
          "name": "E5",
          "midi": 76,
          "time": 155.0523989999993,
          "velocity": 0.6299212598425197,
          "duration": 0.14934188124999537
        },
        {
          "name": "F#5",
          "midi": 78,
          "time": 155.2102934999993,
          "velocity": 0.6299212598425197,
          "duration": 0.14934188124999537
        },
        {
          "name": "G#5",
          "midi": 80,
          "time": 155.3681879999993,
          "velocity": 0.6299212598425197,
          "duration": 0.2993416562499931
        },
        {
          "name": "F#5",
          "midi": 78,
          "time": 155.6839769999993,
          "velocity": 0.6299212598425197,
          "duration": 0.14934188124999537
        },
        {
          "name": "E5",
          "midi": 76,
          "time": 155.84187149999929,
          "velocity": 0.6299212598425197,
          "duration": 0.14934188124999537
        },
        {
          "name": "F#5",
          "midi": 78,
          "time": 155.99976599999928,
          "velocity": 0.6299212598425197,
          "duration": 0.4493414312499908
        },
        {
          "name": "C#5",
          "midi": 73,
          "time": 156.47344949999928,
          "velocity": 0.6299212598425197,
          "duration": 0.14934188124999537
        },
        {
          "name": "G#4",
          "midi": 68,
          "time": 156.63134399999927,
          "velocity": 0.6299212598425197,
          "duration": 0.2993416562499931
        },
        {
          "name": "C#5",
          "midi": 73,
          "time": 156.63134399999927,
          "velocity": 0.6299212598425197,
          "duration": 0.2993416562499931
        },
        {
          "name": "G#4",
          "midi": 68,
          "time": 156.94713299999927,
          "velocity": 0.6299212598425197,
          "duration": 0.2993416562499931
        },
        {
          "name": "C#5",
          "midi": 73,
          "time": 156.94713299999927,
          "velocity": 0.6299212598425197,
          "duration": 0.2993416562499931
        },
        {
          "name": "G#4",
          "midi": 68,
          "time": 157.26292199999926,
          "velocity": 0.6299212598425197,
          "duration": 0.2993416562499931
        },
        {
          "name": "E5",
          "midi": 76,
          "time": 157.26292199999926,
          "velocity": 0.6299212598425197,
          "duration": 0.2993416562499931
        },
        {
          "name": "G#4",
          "midi": 68,
          "time": 157.57871099999926,
          "velocity": 0.6299212598425197,
          "duration": 0.2993416562499931
        },
        {
          "name": "E5",
          "midi": 76,
          "time": 157.57871099999926,
          "velocity": 0.6299212598425197,
          "duration": 0.2993416562499931
        },
        {
          "name": "A4",
          "midi": 69,
          "time": 157.89449999999925,
          "velocity": 0.6299212598425197,
          "duration": 0.2993416562499931
        },
        {
          "name": "F#5",
          "midi": 78,
          "time": 157.89449999999925,
          "velocity": 0.6299212598425197,
          "duration": 0.2993416562499931
        },
        {
          "name": "A4",
          "midi": 69,
          "time": 158.21028899999925,
          "velocity": 0.6299212598425197,
          "duration": 0.2993416562499931
        },
        {
          "name": "F#5",
          "midi": 78,
          "time": 158.21028899999925,
          "velocity": 0.6299212598425197,
          "duration": 0.2993416562499931
        },
        {
          "name": "A4",
          "midi": 69,
          "time": 158.52607799999925,
          "velocity": 0.6299212598425197,
          "duration": 0.2993416562499931
        },
        {
          "name": "G#5",
          "midi": 80,
          "time": 158.52607799999925,
          "velocity": 0.6299212598425197,
          "duration": 0.2993416562499931
        },
        {
          "name": "A4",
          "midi": 69,
          "time": 158.84186699999924,
          "velocity": 0.6299212598425197,
          "duration": 1.1993403062500079
        },
        {
          "name": "G#5",
          "midi": 80,
          "time": 158.84186699999924,
          "velocity": 0.6299212598425197,
          "duration": 1.1993403062500079
        },
        {
          "name": "E5",
          "midi": 76,
          "time": 160.10502299999925,
          "velocity": 0.6299212598425197,
          "duration": 0.14934188124999537
        },
        {
          "name": "F#5",
          "midi": 78,
          "time": 160.26291749999925,
          "velocity": 0.6299212598425197,
          "duration": 0.14934188124999537
        },
        {
          "name": "G#5",
          "midi": 80,
          "time": 160.42081199999924,
          "velocity": 0.6299212598425197,
          "duration": 0.2993416562499931
        },
        {
          "name": "F#5",
          "midi": 78,
          "time": 160.73660099999924,
          "velocity": 0.6299212598425197,
          "duration": 0.14934188124999537
        },
        {
          "name": "E5",
          "midi": 76,
          "time": 160.89449549999924,
          "velocity": 0.6299212598425197,
          "duration": 0.14934188124999537
        },
        {
          "name": "F#5",
          "midi": 78,
          "time": 161.05238999999924,
          "velocity": 0.6299212598425197,
          "duration": 0.4493414312499908
        },
        {
          "name": "C#5",
          "midi": 73,
          "time": 161.52607349999923,
          "velocity": 0.6299212598425197,
          "duration": 0.14934188124999537
        },
        {
          "name": "G#4",
          "midi": 68,
          "time": 161.68396799999923,
          "velocity": 0.6299212598425197,
          "duration": 0.2993416562499931
        },
        {
          "name": "C#5",
          "midi": 73,
          "time": 161.68396799999923,
          "velocity": 0.6299212598425197,
          "duration": 0.2993416562499931
        },
        {
          "name": "G#4",
          "midi": 68,
          "time": 161.99975699999922,
          "velocity": 0.6299212598425197,
          "duration": 0.2993416562499931
        },
        {
          "name": "C#5",
          "midi": 73,
          "time": 161.99975699999922,
          "velocity": 0.6299212598425197,
          "duration": 0.2993416562499931
        },
        {
          "name": "G#4",
          "midi": 68,
          "time": 162.31554599999922,
          "velocity": 0.6299212598425197,
          "duration": 0.2993416562499931
        },
        {
          "name": "E5",
          "midi": 76,
          "time": 162.31554599999922,
          "velocity": 0.6299212598425197,
          "duration": 0.2993416562499931
        },
        {
          "name": "G#4",
          "midi": 68,
          "time": 162.6313349999992,
          "velocity": 0.6299212598425197,
          "duration": 0.2993416562499931
        },
        {
          "name": "E5",
          "midi": 76,
          "time": 162.6313349999992,
          "velocity": 0.6299212598425197,
          "duration": 0.2993416562499931
        },
        {
          "name": "A4",
          "midi": 69,
          "time": 162.9471239999992,
          "velocity": 0.6299212598425197,
          "duration": 0.2993416562499931
        },
        {
          "name": "F#5",
          "midi": 78,
          "time": 162.9471239999992,
          "velocity": 0.6299212598425197,
          "duration": 0.2993416562499931
        },
        {
          "name": "A4",
          "midi": 69,
          "time": 163.2629129999992,
          "velocity": 0.6299212598425197,
          "duration": 0.2993416562499931
        },
        {
          "name": "F#5",
          "midi": 78,
          "time": 163.2629129999992,
          "velocity": 0.6299212598425197,
          "duration": 0.2993416562499931
        },
        {
          "name": "A4",
          "midi": 69,
          "time": 163.5787019999992,
          "velocity": 0.6299212598425197,
          "duration": 0.2993416562499931
        },
        {
          "name": "G#5",
          "midi": 80,
          "time": 163.5787019999992,
          "velocity": 0.6299212598425197,
          "duration": 0.2993416562499931
        },
        {
          "name": "A4",
          "midi": 69,
          "time": 163.8944909999992,
          "velocity": 0.6299212598425197,
          "duration": 1.1993403062500079
        },
        {
          "name": "G#5",
          "midi": 80,
          "time": 163.8944909999992,
          "velocity": 0.6299212598425197,
          "duration": 1.1993403062500079
        },
        {
          "name": "E5",
          "midi": 76,
          "time": 165.1576469999992,
          "velocity": 0.6299212598425197,
          "duration": 0.14934188124999537
        },
        {
          "name": "F#5",
          "midi": 78,
          "time": 165.3155414999992,
          "velocity": 0.6299212598425197,
          "duration": 0.14934188124999537
        },
        {
          "name": "G#5",
          "midi": 80,
          "time": 165.4734359999992,
          "velocity": 0.6299212598425197,
          "duration": 0.2993416562499931
        },
        {
          "name": "F#5",
          "midi": 78,
          "time": 165.7892249999992,
          "velocity": 0.6299212598425197,
          "duration": 0.14934188124999537
        },
        {
          "name": "E5",
          "midi": 76,
          "time": 165.9471194999992,
          "velocity": 0.6299212598425197,
          "duration": 0.14934188124999537
        },
        {
          "name": "F#5",
          "midi": 78,
          "time": 166.1050139999992,
          "velocity": 0.6299212598425197,
          "duration": 0.4493414312499908
        },
        {
          "name": "C#5",
          "midi": 73,
          "time": 166.57869749999918,
          "velocity": 0.6299212598425197,
          "duration": 0.4493414312499908
        },
        {
          "name": "C#5",
          "midi": 73,
          "time": 167.05238099999917,
          "velocity": 0.6299212598425197,
          "duration": 0.14934188124999537
        },
        {
          "name": "C#5",
          "midi": 73,
          "time": 167.21027549999917,
          "velocity": 0.6299212598425197,
          "duration": 0.14934188124999537
        },
        {
          "name": "C#5",
          "midi": 73,
          "time": 167.36816999999917,
          "velocity": 0.6299212598425197,
          "duration": 0.14934188124999537
        },
        {
          "name": "C#5",
          "midi": 73,
          "time": 167.52606449999917,
          "velocity": 0.6299212598425197,
          "duration": 0.14934188124999537
        },
        {
          "name": "E5",
          "midi": 76,
          "time": 167.68395899999916,
          "velocity": 0.6299212598425197,
          "duration": 0.14934188124999537
        },
        {
          "name": "F#5",
          "midi": 78,
          "time": 167.84185349999916,
          "velocity": 0.6299212598425197,
          "duration": 0.14934188124999537
        },
        {
          "name": "F#5",
          "midi": 78,
          "time": 167.99974799999916,
          "velocity": 0.6299212598425197,
          "duration": 0.2993416562499931
        },
        {
          "name": "C#5",
          "midi": 73,
          "time": 168.31553699999915,
          "velocity": 0.6299212598425197,
          "duration": 0.2993416562499931
        },
        {
          "name": "E5",
          "midi": 76,
          "time": 168.63132599999915,
          "velocity": 0.6299212598425197,
          "duration": 0.2993416562499931
        },
        {
          "name": "F#5",
          "midi": 78,
          "time": 168.94711499999914,
          "velocity": 0.6299212598425197,
          "duration": 0.2993416562499931
        },
        {
          "name": "F#5",
          "midi": 78,
          "time": 169.26290399999914,
          "velocity": 0.6299212598425197,
          "duration": 0.8993407562500124
        },
        {
          "name": "E5",
          "midi": 76,
          "time": 170.21027099999915,
          "velocity": 0.6299212598425197,
          "duration": 0.14934188124999537
        },
        {
          "name": "F#5",
          "midi": 78,
          "time": 170.36816549999915,
          "velocity": 0.6299212598425197,
          "duration": 0.14934188124999537
        },
        {
          "name": "G#5",
          "midi": 80,
          "time": 170.52605999999915,
          "velocity": 0.6299212598425197,
          "duration": 0.2993416562499931
        },
        {
          "name": "F#5",
          "midi": 78,
          "time": 170.84184899999914,
          "velocity": 0.6299212598425197,
          "duration": 0.14934188124999537
        },
        {
          "name": "E5",
          "midi": 76,
          "time": 170.99974349999914,
          "velocity": 0.6299212598425197,
          "duration": 0.14934188124999537
        },
        {
          "name": "E5",
          "midi": 76,
          "time": 171.15763799999914,
          "velocity": 0.6299212598425197,
          "duration": 0.2993416562499931
        },
        {
          "name": "F#5",
          "midi": 78,
          "time": 171.47342699999913,
          "velocity": 0.6299212598425197,
          "duration": 0.2993416562499931
        },
        {
          "name": "C#5",
          "midi": 73,
          "time": 171.78921599999913,
          "velocity": 0.6299212598425197,
          "duration": 0.2993416562499931
        },
        {
          "name": "G#5",
          "midi": 80,
          "time": 172.10500499999912,
          "velocity": 0.6299212598425197,
          "duration": 0.14934188124999537
        },
        {
          "name": "G#5",
          "midi": 80,
          "time": 172.26289949999912,
          "velocity": 0.6299212598425197,
          "duration": 0.2993416562499931
        },
        {
          "name": "F#5",
          "midi": 78,
          "time": 172.57868849999912,
          "velocity": 0.6299212598425197,
          "duration": 0.2993416562499931
        },
        {
          "name": "E5",
          "midi": 76,
          "time": 172.8944774999991,
          "velocity": 0.6299212598425197,
          "duration": 0.14934188124999537
        },
        {
          "name": "F#5",
          "midi": 78,
          "time": 173.0523719999991,
          "velocity": 0.6299212598425197,
          "duration": 0.2993416562499931
        },
        {
          "name": "G#5",
          "midi": 80,
          "time": 173.3681609999991,
          "velocity": 0.6299212598425197,
          "duration": 0.2993416562499931
        },
        {
          "name": "C#5",
          "midi": 73,
          "time": 173.6839499999991,
          "velocity": 0.6299212598425197,
          "duration": 0.2993416562499931
        },
        {
          "name": "C#5",
          "midi": 73,
          "time": 173.9997389999991,
          "velocity": 0.6299212598425197,
          "duration": 0.5993412062499885
        },
        {
          "name": "G#5",
          "midi": 80,
          "time": 174.6313169999991,
          "velocity": 0.6299212598425197,
          "duration": 0.14934188124999537
        },
        {
          "name": "G#5",
          "midi": 80,
          "time": 174.78921149999908,
          "velocity": 0.6299212598425197,
          "duration": 0.2993416562499931
        },
        {
          "name": "F#5",
          "midi": 78,
          "time": 175.10500049999908,
          "velocity": 0.6299212598425197,
          "duration": 0.2993416562499931
        },
        {
          "name": "E5",
          "midi": 76,
          "time": 175.42078949999907,
          "velocity": 0.6299212598425197,
          "duration": 0.14934188124999537
        },
        {
          "name": "F#5",
          "midi": 78,
          "time": 175.57868399999907,
          "velocity": 0.6299212598425197,
          "duration": 0.2993416562499931
        },
        {
          "name": "E5",
          "midi": 76,
          "time": 175.89447299999907,
          "velocity": 0.6299212598425197,
          "duration": 0.2993416562499931
        },
        {
          "name": "C#5",
          "midi": 73,
          "time": 176.21026199999906,
          "velocity": 0.6299212598425197,
          "duration": 0.2993416562499931
        },
        {
          "name": "C#5",
          "midi": 73,
          "time": 176.52605099999906,
          "velocity": 0.6299212598425197,
          "duration": 0.5993412062499885
        },
        {
          "name": "G#5",
          "midi": 80,
          "time": 177.15762899999905,
          "velocity": 0.6299212598425197,
          "duration": 0.14934188124999537
        },
        {
          "name": "G#5",
          "midi": 80,
          "time": 177.31552349999905,
          "velocity": 0.6299212598425197,
          "duration": 0.2993416562499931
        },
        {
          "name": "F#5",
          "midi": 78,
          "time": 177.63131249999904,
          "velocity": 0.6299212598425197,
          "duration": 0.2993416562499931
        },
        {
          "name": "E5",
          "midi": 76,
          "time": 177.94710149999904,
          "velocity": 0.6299212598425197,
          "duration": 0.14934188124999537
        },
        {
          "name": "F#5",
          "midi": 78,
          "time": 178.10499599999903,
          "velocity": 0.6299212598425197,
          "duration": 0.2993416562499931
        },
        {
          "name": "G#5",
          "midi": 80,
          "time": 178.42078499999903,
          "velocity": 0.6299212598425197,
          "duration": 0.2993416562499931
        },
        {
          "name": "C#5",
          "midi": 73,
          "time": 178.73657399999902,
          "velocity": 0.6299212598425197,
          "duration": 0.2993416562499931
        },
        {
          "name": "C#5",
          "midi": 73,
          "time": 179.05236299999902,
          "velocity": 0.6299212598425197,
          "duration": 0.5993412062499885
        },
        {
          "name": "G#5",
          "midi": 80,
          "time": 179.683940999999,
          "velocity": 0.6299212598425197,
          "duration": 0.14934188124999537
        },
        {
          "name": "G#5",
          "midi": 80,
          "time": 179.841835499999,
          "velocity": 0.6299212598425197,
          "duration": 0.2993416562499931
        },
        {
          "name": "F#5",
          "midi": 78,
          "time": 180.157624499999,
          "velocity": 0.6299212598425197,
          "duration": 0.2993416562499931
        },
        {
          "name": "E5",
          "midi": 76,
          "time": 180.473413499999,
          "velocity": 0.6299212598425197,
          "duration": 0.14934188124999537
        },
        {
          "name": "F#5",
          "midi": 78,
          "time": 180.631307999999,
          "velocity": 0.6299212598425197,
          "duration": 0.2993416562499931
        },
        {
          "name": "E5",
          "midi": 76,
          "time": 180.947096999999,
          "velocity": 0.6299212598425197,
          "duration": 0.2993416562499931
        },
        {
          "name": "C#5",
          "midi": 73,
          "time": 181.26288599999899,
          "velocity": 0.6299212598425197,
          "duration": 0.2993416562499931
        },
        {
          "name": "C#5",
          "midi": 73,
          "time": 181.57867499999898,
          "velocity": 0.6299212598425197,
          "duration": 0.5993412062499885
        },
        {
          "name": "G#5",
          "midi": 80,
          "time": 182.21025299999897,
          "velocity": 0.6299212598425197,
          "duration": 0.14934188124999537
        },
        {
          "name": "G#5",
          "midi": 80,
          "time": 182.36814749999897,
          "velocity": 0.6299212598425197,
          "duration": 0.2993416562499931
        },
        {
          "name": "F#5",
          "midi": 78,
          "time": 182.68393649999896,
          "velocity": 0.6299212598425197,
          "duration": 0.2993416562499931
        },
        {
          "name": "E5",
          "midi": 76,
          "time": 182.99972549999896,
          "velocity": 0.6299212598425197,
          "duration": 0.14934188124999537
        },
        {
          "name": "F#5",
          "midi": 78,
          "time": 183.15761999999896,
          "velocity": 0.6299212598425197,
          "duration": 0.2993416562499931
        },
        {
          "name": "G#5",
          "midi": 80,
          "time": 183.47340899999895,
          "velocity": 0.6299212598425197,
          "duration": 0.2993416562499931
        },
        {
          "name": "C#5",
          "midi": 73,
          "time": 183.78919799999895,
          "velocity": 0.6299212598425197,
          "duration": 0.2993416562499931
        },
        {
          "name": "C#5",
          "midi": 73,
          "time": 184.10498699999894,
          "velocity": 0.6299212598425197,
          "duration": 0.5993412062499885
        },
        {
          "name": "G#5",
          "midi": 80,
          "time": 184.73656499999893,
          "velocity": 0.6299212598425197,
          "duration": 0.14934188124999537
        },
        {
          "name": "G#5",
          "midi": 80,
          "time": 184.89445949999893,
          "velocity": 0.6299212598425197,
          "duration": 0.2993416562499931
        },
        {
          "name": "F#5",
          "midi": 78,
          "time": 185.21024849999893,
          "velocity": 0.6299212598425197,
          "duration": 0.2993416562499931
        },
        {
          "name": "E5",
          "midi": 76,
          "time": 185.52603749999892,
          "velocity": 0.6299212598425197,
          "duration": 0.14934188124999537
        },
        {
          "name": "F#5",
          "midi": 78,
          "time": 185.68393199999892,
          "velocity": 0.6299212598425197,
          "duration": 0.2993416562499931
        },
        {
          "name": "E5",
          "midi": 76,
          "time": 185.9997209999989,
          "velocity": 0.6299212598425197,
          "duration": 0.2993416562499931
        },
        {
          "name": "C#5",
          "midi": 73,
          "time": 186.3155099999989,
          "velocity": 0.6299212598425197,
          "duration": 0.2993416562499931
        },
        {
          "name": "C#5",
          "midi": 73,
          "time": 186.6312989999989,
          "velocity": 0.6299212598425197,
          "duration": 0.5993412062499885
        },
        {
          "name": "G#5",
          "midi": 80,
          "time": 187.2628769999989,
          "velocity": 0.6299212598425197,
          "duration": 0.14934188124999537
        },
        {
          "name": "G#5",
          "midi": 80,
          "time": 187.4207714999989,
          "velocity": 0.6299212598425197,
          "duration": 0.2993416562499931
        },
        {
          "name": "F#5",
          "midi": 78,
          "time": 187.7365604999989,
          "velocity": 0.6299212598425197,
          "duration": 0.2993416562499931
        },
        {
          "name": "E5",
          "midi": 76,
          "time": 188.05234949999888,
          "velocity": 0.6299212598425197,
          "duration": 0.14934188124999537
        },
        {
          "name": "F#5",
          "midi": 78,
          "time": 188.21024399999888,
          "velocity": 0.6299212598425197,
          "duration": 0.2993416562499931
        },
        {
          "name": "G#5",
          "midi": 80,
          "time": 188.52603299999888,
          "velocity": 0.6299212598425197,
          "duration": 0.2993416562499931
        },
        {
          "name": "C#5",
          "midi": 73,
          "time": 188.84182199999887,
          "velocity": 0.6299212598425197,
          "duration": 0.2993416562499931
        },
        {
          "name": "C#5",
          "midi": 73,
          "time": 189.15761099999887,
          "velocity": 0.6299212598425197,
          "duration": 0.5993412062499885
        },
        {
          "name": "G#5",
          "midi": 80,
          "time": 189.78918899999886,
          "velocity": 0.6299212598425197,
          "duration": 0.14934188124999537
        },
        {
          "name": "G#5",
          "midi": 80,
          "time": 189.94708349999885,
          "velocity": 0.6299212598425197,
          "duration": 0.2993416562499931
        },
        {
          "name": "F#5",
          "midi": 78,
          "time": 190.26287249999885,
          "velocity": 0.6299212598425197,
          "duration": 0.2993416562499931
        },
        {
          "name": "E5",
          "midi": 76,
          "time": 190.57866149999884,
          "velocity": 0.6299212598425197,
          "duration": 0.14934188124999537
        },
        {
          "name": "F#5",
          "midi": 78,
          "time": 190.73655599999884,
          "velocity": 0.6299212598425197,
          "duration": 0.2993416562499931
        },
        {
          "name": "E5",
          "midi": 76,
          "time": 191.05234499999884,
          "velocity": 0.6299212598425197,
          "duration": 0.2993416562499931
        },
        {
          "name": "C#5",
          "midi": 73,
          "time": 191.36813399999883,
          "velocity": 0.6299212598425197,
          "duration": 0.2993416562499931
        },
        {
          "name": "C#5",
          "midi": 73,
          "time": 191.68392299999883,
          "velocity": 0.6299212598425197,
          "duration": 0.5993412062499885
        },
        {
          "name": "G#5",
          "midi": 80,
          "time": 192.31550099999882,
          "velocity": 0.6299212598425197,
          "duration": 0.14934188124999537
        },
        {
          "name": "G#5",
          "midi": 80,
          "time": 192.47339549999882,
          "velocity": 0.6299212598425197,
          "duration": 0.2993416562499931
        },
        {
          "name": "F#5",
          "midi": 78,
          "time": 192.7891844999988,
          "velocity": 0.6299212598425197,
          "duration": 0.2993416562499931
        },
        {
          "name": "E5",
          "midi": 76,
          "time": 193.1049734999988,
          "velocity": 0.6299212598425197,
          "duration": 0.14934188124999537
        },
        {
          "name": "F#5",
          "midi": 78,
          "time": 193.2628679999988,
          "velocity": 0.6299212598425197,
          "duration": 0.2993416562499931
        },
        {
          "name": "G#5",
          "midi": 80,
          "time": 193.5786569999988,
          "velocity": 0.6299212598425197,
          "duration": 0.2993416562499931
        },
        {
          "name": "C#5",
          "midi": 73,
          "time": 193.8944459999988,
          "velocity": 0.6299212598425197,
          "duration": 0.2993416562499931
        },
        {
          "name": "C#5",
          "midi": 73,
          "time": 194.2102349999988,
          "velocity": 0.6299212598425197,
          "duration": 0.2993416562499931
        },
        {
          "name": "E5",
          "midi": 76,
          "time": 195.47339099999877,
          "velocity": 0.6299212598425197,
          "duration": 0.14934188124999537
        },
        {
          "name": "F#5",
          "midi": 78,
          "time": 195.63128549999877,
          "velocity": 0.6299212598425197,
          "duration": 0.14934188124999537
        },
        {
          "name": "G#5",
          "midi": 80,
          "time": 195.78917999999877,
          "velocity": 0.6299212598425197,
          "duration": 0.2993416562499931
        },
        {
          "name": "F#5",
          "midi": 78,
          "time": 196.10496899999876,
          "velocity": 0.6299212598425197,
          "duration": 0.14934188124999537
        },
        {
          "name": "E5",
          "midi": 76,
          "time": 196.26286349999876,
          "velocity": 0.6299212598425197,
          "duration": 0.14934188124999537
        },
        {
          "name": "E5",
          "midi": 76,
          "time": 196.42075799999876,
          "velocity": 0.6299212598425197,
          "duration": 0.2993416562499931
        },
        {
          "name": "F#5",
          "midi": 78,
          "time": 196.73654699999875,
          "velocity": 0.6299212598425197,
          "duration": 0.2993416562499931
        },
        {
          "name": "F#5",
          "midi": 78,
          "time": 197.05233599999875,
          "velocity": 0.6299212598425197,
          "duration": 0.5993412062499885
        },
        {
          "name": "C#5",
          "midi": 73,
          "time": 197.84180849999873,
          "velocity": 0.6299212598425197,
          "duration": 0.14934188124999537
        },
        {
          "name": "E5",
          "midi": 76,
          "time": 197.99970299999873,
          "velocity": 0.6299212598425197,
          "duration": 0.14934188124999537
        },
        {
          "name": "F#5",
          "midi": 78,
          "time": 198.15759749999873,
          "velocity": 0.6299212598425197,
          "duration": 0.14934188124999537
        },
        {
          "name": "G#5",
          "midi": 80,
          "time": 198.31549199999873,
          "velocity": 0.6299212598425197,
          "duration": 0.2993416562499931
        },
        {
          "name": "F#5",
          "midi": 78,
          "time": 198.63128099999872,
          "velocity": 0.6299212598425197,
          "duration": 0.14934188124999537
        },
        {
          "name": "E5",
          "midi": 76,
          "time": 198.78917549999872,
          "velocity": 0.6299212598425197,
          "duration": 0.14934188124999537
        },
        {
          "name": "E5",
          "midi": 76,
          "time": 198.94706999999872,
          "velocity": 0.6299212598425197,
          "duration": 0.2993416562499931
        },
        {
          "name": "F#5",
          "midi": 78,
          "time": 199.2628589999987,
          "velocity": 0.6299212598425197,
          "duration": 0.2993416562499931
        },
        {
          "name": "C#5",
          "midi": 73,
          "time": 199.5786479999987,
          "velocity": 0.6299212598425197,
          "duration": 0.5993412062499885
        },
        {
          "name": "C#5",
          "midi": 73,
          "time": 200.3681204999987,
          "velocity": 0.6299212598425197,
          "duration": 0.14934188124999537
        },
        {
          "name": "E5",
          "midi": 76,
          "time": 200.5260149999987,
          "velocity": 0.6299212598425197,
          "duration": 0.14934188124999537
        },
        {
          "name": "F#5",
          "midi": 78,
          "time": 200.6839094999987,
          "velocity": 0.6299212598425197,
          "duration": 0.14934188124999537
        },
        {
          "name": "G#5",
          "midi": 80,
          "time": 200.8418039999987,
          "velocity": 0.6299212598425197,
          "duration": 0.2993416562499931
        },
        {
          "name": "C#5",
          "midi": 73,
          "time": 201.15759299999868,
          "velocity": 0.6299212598425197,
          "duration": 0.2993416562499931
        },
        {
          "name": "E5",
          "midi": 76,
          "time": 201.47338199999868,
          "velocity": 0.6299212598425197,
          "duration": 0.2993416562499931
        },
        {
          "name": "F#5",
          "midi": 78,
          "time": 201.78917099999867,
          "velocity": 0.6299212598425197,
          "duration": 0.2993416562499931
        },
        {
          "name": "F#5",
          "midi": 78,
          "time": 202.10495999999867,
          "velocity": 0.6299212598425197,
          "duration": 0.8993407562500124
        },
        {
          "name": "E5",
          "midi": 76,
          "time": 203.05232699999868,
          "velocity": 0.6299212598425197,
          "duration": 0.14934188124999537
        },
        {
          "name": "F#5",
          "midi": 78,
          "time": 203.21022149999868,
          "velocity": 0.6299212598425197,
          "duration": 0.14934188124999537
        },
        {
          "name": "G#5",
          "midi": 80,
          "time": 203.36811599999868,
          "velocity": 0.6299212598425197,
          "duration": 0.2993416562499931
        },
        {
          "name": "F#5",
          "midi": 78,
          "time": 203.68390499999867,
          "velocity": 0.6299212598425197,
          "duration": 0.14934188124999537
        },
        {
          "name": "E5",
          "midi": 76,
          "time": 203.84179949999867,
          "velocity": 0.6299212598425197,
          "duration": 0.14934188124999537
        },
        {
          "name": "F#5",
          "midi": 78,
          "time": 203.99969399999867,
          "velocity": 0.6299212598425197,
          "duration": 0.4493414312499908
        },
        {
          "name": "C#5",
          "midi": 73,
          "time": 204.47337749999866,
          "velocity": 0.6299212598425197,
          "duration": 1.0493405312500101
        },
        {
          "name": "E5",
          "midi": 76,
          "time": 205.57863899999867,
          "velocity": 0.6299212598425197,
          "duration": 0.2993416562499931
        },
        {
          "name": "G#5",
          "midi": 80,
          "time": 205.89442799999867,
          "velocity": 0.6299212598425197,
          "duration": 0.2993416562499931
        },
        {
          "name": "B5",
          "midi": 83,
          "time": 206.21021699999866,
          "velocity": 0.6299212598425197,
          "duration": 0.14934188124999537
        },
        {
          "name": "G#5",
          "midi": 80,
          "time": 206.36811149999866,
          "velocity": 0.6299212598425197,
          "duration": 0.14934188124999537
        },
        {
          "name": "F#5",
          "midi": 78,
          "time": 206.52600599999866,
          "velocity": 0.6299212598425197,
          "duration": 0.2993416562499931
        },
        {
          "name": "E5",
          "midi": 76,
          "time": 206.84179499999865,
          "velocity": 0.6299212598425197,
          "duration": 0.2993416562499931
        },
        {
          "name": "F#5",
          "midi": 78,
          "time": 207.15758399999865,
          "velocity": 0.6299212598425197,
          "duration": 0.5993412062499885
        },
        {
          "name": "C#5",
          "midi": 73,
          "time": 207.94705649999864,
          "velocity": 0.6299212598425197,
          "duration": 0.14934188124999537
        },
        {
          "name": "E5",
          "midi": 76,
          "time": 208.10495099999864,
          "velocity": 0.6299212598425197,
          "duration": 0.14934188124999537
        },
        {
          "name": "F#5",
          "midi": 78,
          "time": 208.26284549999863,
          "velocity": 0.6299212598425197,
          "duration": 0.14934188124999537
        },
        {
          "name": "G#5",
          "midi": 80,
          "time": 208.42073999999863,
          "velocity": 0.6299212598425197,
          "duration": 0.2993416562499931
        },
        {
          "name": "F#5",
          "midi": 78,
          "time": 208.73652899999863,
          "velocity": 0.6299212598425197,
          "duration": 0.14934188124999537
        },
        {
          "name": "E5",
          "midi": 76,
          "time": 208.89442349999862,
          "velocity": 0.6299212598425197,
          "duration": 0.14934188124999537
        },
        {
          "name": "E5",
          "midi": 76,
          "time": 209.05231799999862,
          "velocity": 0.6299212598425197,
          "duration": 0.2993416562499931
        },
        {
          "name": "C#5",
          "midi": 73,
          "time": 209.36810699999862,
          "velocity": 0.6299212598425197,
          "duration": 0.14934188124999537
        },
        {
          "name": "F#5",
          "midi": 78,
          "time": 209.5260014999986,
          "velocity": 0.6299212598425197,
          "duration": 0.14934188124999537
        },
        {
          "name": "C#5",
          "midi": 73,
          "time": 209.6838959999986,
          "velocity": 0.6299212598425197,
          "duration": 0.2993416562499931
        },
        {
          "name": "C#5",
          "midi": 73,
          "time": 209.9996849999986,
          "velocity": 0.6299212598425197,
          "duration": 0.14934188124999537
        },
        {
          "name": "C#5",
          "midi": 73,
          "time": 210.1575794999986,
          "velocity": 0.6299212598425197,
          "duration": 0.14934188124999537
        },
        {
          "name": "C#5",
          "midi": 73,
          "time": 210.3154739999986,
          "velocity": 0.6299212598425197,
          "duration": 0.14934188124999537
        },
        {
          "name": "C#5",
          "midi": 73,
          "time": 210.4733684999986,
          "velocity": 0.6299212598425197,
          "duration": 0.14934188124999537
        },
        {
          "name": "E5",
          "midi": 76,
          "time": 210.6312629999986,
          "velocity": 0.6299212598425197,
          "duration": 0.14934188124999537
        },
        {
          "name": "F#5",
          "midi": 78,
          "time": 210.7891574999986,
          "velocity": 0.6299212598425197,
          "duration": 0.14934188124999537
        },
        {
          "name": "G#5",
          "midi": 80,
          "time": 210.9470519999986,
          "velocity": 0.6299212598425197,
          "duration": 0.2993416562499931
        },
        {
          "name": "C#5",
          "midi": 73,
          "time": 211.2628409999986,
          "velocity": 0.6299212598425197,
          "duration": 0.2993416562499931
        },
        {
          "name": "E5",
          "midi": 76,
          "time": 211.57862999999858,
          "velocity": 0.6299212598425197,
          "duration": 0.2993416562499931
        },
        {
          "name": "F#5",
          "midi": 78,
          "time": 211.89441899999858,
          "velocity": 0.6299212598425197,
          "duration": 0.2993416562499931
        },
        {
          "name": "F#5",
          "midi": 78,
          "time": 212.21020799999857,
          "velocity": 0.6299212598425197,
          "duration": 0.8993407562500124
        },
        {
          "name": "E5",
          "midi": 76,
          "time": 213.1575749999986,
          "velocity": 0.6299212598425197,
          "duration": 0.14934188124999537
        },
        {
          "name": "F#5",
          "midi": 78,
          "time": 213.31546949999858,
          "velocity": 0.6299212598425197,
          "duration": 0.14934188124999537
        },
        {
          "name": "G#5",
          "midi": 80,
          "time": 213.47336399999858,
          "velocity": 0.6299212598425197,
          "duration": 0.2993416562499931
        },
        {
          "name": "F#5",
          "midi": 78,
          "time": 213.78915299999858,
          "velocity": 0.6299212598425197,
          "duration": 0.14934188124999537
        },
        {
          "name": "E5",
          "midi": 76,
          "time": 213.94704749999858,
          "velocity": 0.6299212598425197,
          "duration": 0.14934188124999537
        },
        {
          "name": "F#5",
          "midi": 78,
          "time": 214.10494199999857,
          "velocity": 0.6299212598425197,
          "duration": 0.4493414312499908
        },
        {
          "name": "C#5",
          "midi": 73,
          "time": 214.57862549999857,
          "velocity": 0.6299212598425197,
          "duration": 0.14934188124999537
        },
        {
          "name": "G#4",
          "midi": 68,
          "time": 214.73651999999856,
          "velocity": 0.6299212598425197,
          "duration": 0.2993416562499931
        },
        {
          "name": "C#5",
          "midi": 73,
          "time": 214.73651999999856,
          "velocity": 0.6299212598425197,
          "duration": 0.2993416562499931
        },
        {
          "name": "G#4",
          "midi": 68,
          "time": 215.05230899999856,
          "velocity": 0.6299212598425197,
          "duration": 0.2993416562499931
        },
        {
          "name": "C#5",
          "midi": 73,
          "time": 215.05230899999856,
          "velocity": 0.6299212598425197,
          "duration": 0.2993416562499931
        },
        {
          "name": "G#4",
          "midi": 68,
          "time": 215.36809799999855,
          "velocity": 0.6299212598425197,
          "duration": 0.2993416562499931
        },
        {
          "name": "E5",
          "midi": 76,
          "time": 215.36809799999855,
          "velocity": 0.6299212598425197,
          "duration": 0.2993416562499931
        },
        {
          "name": "G#4",
          "midi": 68,
          "time": 215.68388699999855,
          "velocity": 0.6299212598425197,
          "duration": 0.2993416562499931
        },
        {
          "name": "E5",
          "midi": 76,
          "time": 215.68388699999855,
          "velocity": 0.6299212598425197,
          "duration": 0.2993416562499931
        },
        {
          "name": "A4",
          "midi": 69,
          "time": 215.99967599999854,
          "velocity": 0.6299212598425197,
          "duration": 0.2993416562499931
        },
        {
          "name": "F#5",
          "midi": 78,
          "time": 215.99967599999854,
          "velocity": 0.6299212598425197,
          "duration": 0.2993416562499931
        },
        {
          "name": "A4",
          "midi": 69,
          "time": 216.31546499999854,
          "velocity": 0.6299212598425197,
          "duration": 0.2993416562499931
        },
        {
          "name": "F#5",
          "midi": 78,
          "time": 216.31546499999854,
          "velocity": 0.6299212598425197,
          "duration": 0.2993416562499931
        },
        {
          "name": "A4",
          "midi": 69,
          "time": 216.63125399999853,
          "velocity": 0.6299212598425197,
          "duration": 0.2993416562499931
        },
        {
          "name": "G#5",
          "midi": 80,
          "time": 216.63125399999853,
          "velocity": 0.6299212598425197,
          "duration": 0.2993416562499931
        },
        {
          "name": "A4",
          "midi": 69,
          "time": 216.94704299999853,
          "velocity": 0.6299212598425197,
          "duration": 1.1993403062500079
        },
        {
          "name": "G#5",
          "midi": 80,
          "time": 216.94704299999853,
          "velocity": 0.6299212598425197,
          "duration": 1.1993403062500079
        },
        {
          "name": "E5",
          "midi": 76,
          "time": 218.21019899999854,
          "velocity": 0.6299212598425197,
          "duration": 0.14934188124999537
        },
        {
          "name": "F#5",
          "midi": 78,
          "time": 218.36809349999854,
          "velocity": 0.6299212598425197,
          "duration": 0.14934188124999537
        },
        {
          "name": "G#5",
          "midi": 80,
          "time": 218.52598799999853,
          "velocity": 0.6299212598425197,
          "duration": 0.2993416562499931
        },
        {
          "name": "F#5",
          "midi": 78,
          "time": 218.84177699999853,
          "velocity": 0.6299212598425197,
          "duration": 0.14934188124999537
        },
        {
          "name": "E5",
          "midi": 76,
          "time": 218.99967149999853,
          "velocity": 0.6299212598425197,
          "duration": 0.14934188124999537
        },
        {
          "name": "F#5",
          "midi": 78,
          "time": 219.15756599999852,
          "velocity": 0.6299212598425197,
          "duration": 0.4493414312499908
        },
        {
          "name": "C#5",
          "midi": 73,
          "time": 219.63124949999852,
          "velocity": 0.6299212598425197,
          "duration": 0.14934188124999537
        },
        {
          "name": "G#4",
          "midi": 68,
          "time": 219.78914399999852,
          "velocity": 0.6299212598425197,
          "duration": 0.2993416562499931
        },
        {
          "name": "C#5",
          "midi": 73,
          "time": 219.78914399999852,
          "velocity": 0.6299212598425197,
          "duration": 0.2993416562499931
        },
        {
          "name": "G#4",
          "midi": 68,
          "time": 220.1049329999985,
          "velocity": 0.6299212598425197,
          "duration": 0.2993416562499931
        },
        {
          "name": "C#5",
          "midi": 73,
          "time": 220.1049329999985,
          "velocity": 0.6299212598425197,
          "duration": 0.2993416562499931
        },
        {
          "name": "G#4",
          "midi": 68,
          "time": 220.4207219999985,
          "velocity": 0.6299212598425197,
          "duration": 0.2993416562499931
        },
        {
          "name": "E5",
          "midi": 76,
          "time": 220.4207219999985,
          "velocity": 0.6299212598425197,
          "duration": 0.2993416562499931
        },
        {
          "name": "G#4",
          "midi": 68,
          "time": 220.7365109999985,
          "velocity": 0.6299212598425197,
          "duration": 0.2993416562499931
        },
        {
          "name": "E5",
          "midi": 76,
          "time": 220.7365109999985,
          "velocity": 0.6299212598425197,
          "duration": 0.2993416562499931
        },
        {
          "name": "A4",
          "midi": 69,
          "time": 221.0522999999985,
          "velocity": 0.6299212598425197,
          "duration": 0.2993416562499931
        },
        {
          "name": "F#5",
          "midi": 78,
          "time": 221.0522999999985,
          "velocity": 0.6299212598425197,
          "duration": 0.2993416562499931
        },
        {
          "name": "A4",
          "midi": 69,
          "time": 221.3680889999985,
          "velocity": 0.6299212598425197,
          "duration": 0.2993416562499931
        },
        {
          "name": "F#5",
          "midi": 78,
          "time": 221.3680889999985,
          "velocity": 0.6299212598425197,
          "duration": 0.2993416562499931
        },
        {
          "name": "A4",
          "midi": 69,
          "time": 221.6838779999985,
          "velocity": 0.6299212598425197,
          "duration": 0.2993416562499931
        },
        {
          "name": "G#5",
          "midi": 80,
          "time": 221.6838779999985,
          "velocity": 0.6299212598425197,
          "duration": 0.2993416562499931
        },
        {
          "name": "A4",
          "midi": 69,
          "time": 221.99966699999848,
          "velocity": 0.6299212598425197,
          "duration": 1.1993403062500079
        },
        {
          "name": "G#5",
          "midi": 80,
          "time": 221.99966699999848,
          "velocity": 0.6299212598425197,
          "duration": 1.1993403062500079
        },
        {
          "name": "E5",
          "midi": 76,
          "time": 223.2628229999985,
          "velocity": 0.6299212598425197,
          "duration": 0.14934188124999537
        },
        {
          "name": "F#5",
          "midi": 78,
          "time": 223.4207174999985,
          "velocity": 0.6299212598425197,
          "duration": 0.14934188124999537
        },
        {
          "name": "G#5",
          "midi": 80,
          "time": 223.5786119999985,
          "velocity": 0.6299212598425197,
          "duration": 0.2993416562499931
        },
        {
          "name": "F#5",
          "midi": 78,
          "time": 223.89440099999848,
          "velocity": 0.6299212598425197,
          "duration": 0.14934188124999537
        },
        {
          "name": "E5",
          "midi": 76,
          "time": 224.05229549999848,
          "velocity": 0.6299212598425197,
          "duration": 0.14934188124999537
        },
        {
          "name": "F#5",
          "midi": 78,
          "time": 224.21018999999848,
          "velocity": 0.6299212598425197,
          "duration": 0.4493414312499908
        },
        {
          "name": "C#5",
          "midi": 73,
          "time": 224.68387349999847,
          "velocity": 0.6299212598425197,
          "duration": 0.14934188124999537
        },
        {
          "name": "G#4",
          "midi": 68,
          "time": 224.84176799999847,
          "velocity": 0.6299212598425197,
          "duration": 0.2993416562499931
        },
        {
          "name": "C#5",
          "midi": 73,
          "time": 224.84176799999847,
          "velocity": 0.6299212598425197,
          "duration": 0.2993416562499931
        },
        {
          "name": "G#4",
          "midi": 68,
          "time": 225.15755699999846,
          "velocity": 0.6299212598425197,
          "duration": 0.2993416562499931
        },
        {
          "name": "C#5",
          "midi": 73,
          "time": 225.15755699999846,
          "velocity": 0.6299212598425197,
          "duration": 0.2993416562499931
        },
        {
          "name": "G#4",
          "midi": 68,
          "time": 225.47334599999846,
          "velocity": 0.6299212598425197,
          "duration": 0.2993416562499931
        },
        {
          "name": "E5",
          "midi": 76,
          "time": 225.47334599999846,
          "velocity": 0.6299212598425197,
          "duration": 0.2993416562499931
        },
        {
          "name": "G#4",
          "midi": 68,
          "time": 225.78913499999845,
          "velocity": 0.6299212598425197,
          "duration": 0.2993416562499931
        },
        {
          "name": "E5",
          "midi": 76,
          "time": 225.78913499999845,
          "velocity": 0.6299212598425197,
          "duration": 0.2993416562499931
        },
        {
          "name": "A4",
          "midi": 69,
          "time": 226.10492399999845,
          "velocity": 0.6299212598425197,
          "duration": 0.2993416562499931
        },
        {
          "name": "F#5",
          "midi": 78,
          "time": 226.10492399999845,
          "velocity": 0.6299212598425197,
          "duration": 0.2993416562499931
        },
        {
          "name": "A4",
          "midi": 69,
          "time": 226.42071299999844,
          "velocity": 0.6299212598425197,
          "duration": 0.2993416562499931
        },
        {
          "name": "F#5",
          "midi": 78,
          "time": 226.42071299999844,
          "velocity": 0.6299212598425197,
          "duration": 0.2993416562499931
        },
        {
          "name": "A4",
          "midi": 69,
          "time": 226.73650199999844,
          "velocity": 0.6299212598425197,
          "duration": 0.2993416562499931
        },
        {
          "name": "G#5",
          "midi": 80,
          "time": 226.73650199999844,
          "velocity": 0.6299212598425197,
          "duration": 0.2993416562499931
        },
        {
          "name": "A4",
          "midi": 69,
          "time": 227.05229099999843,
          "velocity": 0.6299212598425197,
          "duration": 1.1993403062500079
        },
        {
          "name": "G#5",
          "midi": 80,
          "time": 227.05229099999843,
          "velocity": 0.6299212598425197,
          "duration": 1.1993403062500079
        },
        {
          "name": "E5",
          "midi": 76,
          "time": 228.31544699999844,
          "velocity": 0.6299212598425197,
          "duration": 0.14934188124999537
        },
        {
          "name": "F#5",
          "midi": 78,
          "time": 228.47334149999844,
          "velocity": 0.6299212598425197,
          "duration": 0.14934188124999537
        },
        {
          "name": "G#5",
          "midi": 80,
          "time": 228.63123599999844,
          "velocity": 0.6299212598425197,
          "duration": 0.2993416562499931
        },
        {
          "name": "F#5",
          "midi": 78,
          "time": 228.94702499999843,
          "velocity": 0.6299212598425197,
          "duration": 0.14934188124999537
        },
        {
          "name": "E5",
          "midi": 76,
          "time": 229.10491949999843,
          "velocity": 0.6299212598425197,
          "duration": 0.14934188124999537
        },
        {
          "name": "F#5",
          "midi": 78,
          "time": 229.26281399999843,
          "velocity": 0.6299212598425197,
          "duration": 0.4493414312499908
        },
        {
          "name": "C#5",
          "midi": 73,
          "time": 229.73649749999842,
          "velocity": 0.6299212598425197,
          "duration": 0.4493414312499908
        },
        {
          "name": "C#5",
          "midi": 73,
          "time": 230.2101809999984,
          "velocity": 0.6299212598425197,
          "duration": 0.14934188124999537
        },
        {
          "name": "C#5",
          "midi": 73,
          "time": 230.3680754999984,
          "velocity": 0.6299212598425197,
          "duration": 0.14934188124999537
        },
        {
          "name": "C#5",
          "midi": 73,
          "time": 230.5259699999984,
          "velocity": 0.6299212598425197,
          "duration": 0.14934188124999537
        },
        {
          "name": "C#5",
          "midi": 73,
          "time": 230.6838644999984,
          "velocity": 0.6299212598425197,
          "duration": 0.14934188124999537
        },
        {
          "name": "E5",
          "midi": 76,
          "time": 230.8417589999984,
          "velocity": 0.6299212598425197,
          "duration": 0.14934188124999537
        },
        {
          "name": "F#5",
          "midi": 78,
          "time": 230.9996534999984,
          "velocity": 0.6299212598425197,
          "duration": 0.14934188124999537
        },
        {
          "name": "F#5",
          "midi": 78,
          "time": 231.1575479999984,
          "velocity": 0.6299212598425197,
          "duration": 0.2993416562499931
        },
        {
          "name": "C#5",
          "midi": 73,
          "time": 231.4733369999984,
          "velocity": 0.6299212598425197,
          "duration": 0.2993416562499931
        },
        {
          "name": "E5",
          "midi": 76,
          "time": 231.7891259999984,
          "velocity": 0.6299212598425197,
          "duration": 0.2993416562499931
        },
        {
          "name": "F#5",
          "midi": 78,
          "time": 232.10491499999839,
          "velocity": 0.6299212598425197,
          "duration": 0.2993416562499931
        },
        {
          "name": "F#5",
          "midi": 78,
          "time": 232.42070399999838,
          "velocity": 0.6299212598425197,
          "duration": 0.8993407562500124
        },
        {
          "name": "E5",
          "midi": 76,
          "time": 233.3680709999984,
          "velocity": 0.6299212598425197,
          "duration": 0.14934188124999537
        },
        {
          "name": "F#5",
          "midi": 78,
          "time": 233.5259654999984,
          "velocity": 0.6299212598425197,
          "duration": 0.14934188124999537
        },
        {
          "name": "G#5",
          "midi": 80,
          "time": 233.6838599999984,
          "velocity": 0.6299212598425197,
          "duration": 0.2993416562499931
        },
        {
          "name": "F#5",
          "midi": 78,
          "time": 233.99964899999839,
          "velocity": 0.6299212598425197,
          "duration": 0.14934188124999537
        },
        {
          "name": "E5",
          "midi": 76,
          "time": 234.15754349999838,
          "velocity": 0.6299212598425197,
          "duration": 0.14934188124999537
        },
        {
          "name": "F#5",
          "midi": 78,
          "time": 234.31543799999838,
          "velocity": 0.6299212598425197,
          "duration": 0.2993416562499931
        },
        {
          "name": "F#5",
          "midi": 78,
          "time": 234.63122699999838,
          "velocity": 0.6299212598425197,
          "duration": 0.2993416562499931
        },
        {
          "name": "C#5",
          "midi": 73,
          "time": 234.94701599999837,
          "velocity": 0.6299212598425197,
          "duration": 1.1993403062500079
        }
      ],
      "controlChanges": {
        "7": [
          {
            "number": 7,
            "time": 0,
            "value": 1
          },
          {
            "number": 7,
            "time": 0,
            "value": 0.7874015748031497
          }
        ],
        "10": [
          {
            "number": 10,
            "time": 0,
            "value": 0.5039370078740157
          }
        ],
        "32": [
          {
            "number": 32,
            "time": 0,
            "value": 0
          }
        ],
        "91": [
          {
            "number": 91,
            "time": 0,
            "value": 0
          }
        ],
        "93": [
          {
            "number": 93,
            "time": 0,
            "value": 0
          }
        ],
        "127": [
          {
            "number": 127,
            "time": 236.20951410624838,
            "value": 0
          }
        ]
      },
      "id": 1,
      "name": "Untitled",
      "instrumentNumber": 0,
      "instrument": "acoustic grand piano",
      "instrumentFamily": "piano",
      "channelNumber": 0,
      "isPercussion": false
    },
    {
      "startTime": 0,
      "duration": 233.9082017687477,
      "length": 1045,
      "notes": [
        {
          "name": "C#3",
          "midi": 49,
          "time": 0,
          "velocity": 0.6299212598425197,
          "duration": 0.14934188125
        },
        {
          "name": "G#3",
          "midi": 56,
          "time": 0,
          "velocity": 0.6299212598425197,
          "duration": 0.14934188125
        },
        {
          "name": "C#3",
          "midi": 49,
          "time": 0.47368350000000004,
          "velocity": 0.6299212598425197,
          "duration": 0.14934188125000003
        },
        {
          "name": "G#3",
          "midi": 56,
          "time": 0.47368350000000004,
          "velocity": 0.6299212598425197,
          "duration": 0.14934188125000003
        },
        {
          "name": "C#3",
          "midi": 49,
          "time": 0.9473670000000001,
          "velocity": 0.6299212598425197,
          "duration": 0.14934188125000003
        },
        {
          "name": "G#3",
          "midi": 56,
          "time": 0.9473670000000001,
          "velocity": 0.6299212598425197,
          "duration": 0.14934188125000003
        },
        {
          "name": "F#2",
          "midi": 42,
          "time": 1.2631560000000002,
          "velocity": 0.6299212598425197,
          "duration": 0.14934188125000003
        },
        {
          "name": "C#3",
          "midi": 49,
          "time": 1.2631560000000002,
          "velocity": 0.6299212598425197,
          "duration": 0.14934188125000003
        },
        {
          "name": "F#2",
          "midi": 42,
          "time": 1.7368395000000003,
          "velocity": 0.6299212598425197,
          "duration": 0.14934188125000003
        },
        {
          "name": "C#3",
          "midi": 49,
          "time": 1.7368395000000003,
          "velocity": 0.6299212598425197,
          "duration": 0.14934188125000003
        },
        {
          "name": "F#2",
          "midi": 42,
          "time": 2.2105230000000002,
          "velocity": 0.6299212598425197,
          "duration": 0.1493418812499998
        },
        {
          "name": "C#3",
          "midi": 49,
          "time": 2.2105230000000002,
          "velocity": 0.6299212598425197,
          "duration": 0.1493418812499998
        },
        {
          "name": "A2",
          "midi": 45,
          "time": 2.526312,
          "velocity": 0.6299212598425197,
          "duration": 0.1493418812499998
        },
        {
          "name": "E3",
          "midi": 52,
          "time": 2.526312,
          "velocity": 0.6299212598425197,
          "duration": 0.1493418812499998
        },
        {
          "name": "A2",
          "midi": 45,
          "time": 2.9999955,
          "velocity": 0.6299212598425197,
          "duration": 0.1493418812499998
        },
        {
          "name": "E3",
          "midi": 52,
          "time": 2.9999955,
          "velocity": 0.6299212598425197,
          "duration": 0.1493418812499998
        },
        {
          "name": "A2",
          "midi": 45,
          "time": 3.4736789999999997,
          "velocity": 0.6299212598425197,
          "duration": 0.1493418812499998
        },
        {
          "name": "E3",
          "midi": 52,
          "time": 3.4736789999999997,
          "velocity": 0.6299212598425197,
          "duration": 0.1493418812499998
        },
        {
          "name": "B2",
          "midi": 47,
          "time": 3.7894679999999994,
          "velocity": 0.6299212598425197,
          "duration": 0.1493418812499998
        },
        {
          "name": "F#3",
          "midi": 54,
          "time": 3.7894679999999994,
          "velocity": 0.6299212598425197,
          "duration": 0.1493418812499998
        },
        {
          "name": "B2",
          "midi": 47,
          "time": 4.263151499999999,
          "velocity": 0.6299212598425197,
          "duration": 0.1493418812499998
        },
        {
          "name": "F#3",
          "midi": 54,
          "time": 4.263151499999999,
          "velocity": 0.6299212598425197,
          "duration": 0.1493418812499998
        },
        {
          "name": "B2",
          "midi": 47,
          "time": 4.736834999999999,
          "velocity": 0.6299212598425197,
          "duration": 0.1493418812499998
        },
        {
          "name": "F#3",
          "midi": 54,
          "time": 4.736834999999999,
          "velocity": 0.6299212598425197,
          "duration": 0.1493418812499998
        },
        {
          "name": "C#3",
          "midi": 49,
          "time": 5.052623999999999,
          "velocity": 0.6299212598425197,
          "duration": 0.1493418812499998
        },
        {
          "name": "G#3",
          "midi": 56,
          "time": 5.052623999999999,
          "velocity": 0.6299212598425197,
          "duration": 0.1493418812499998
        },
        {
          "name": "C#3",
          "midi": 49,
          "time": 5.526307499999999,
          "velocity": 0.6299212598425197,
          "duration": 0.1493418812499998
        },
        {
          "name": "G#3",
          "midi": 56,
          "time": 5.526307499999999,
          "velocity": 0.6299212598425197,
          "duration": 0.1493418812499998
        },
        {
          "name": "C#3",
          "midi": 49,
          "time": 5.999990999999999,
          "velocity": 0.6299212598425197,
          "duration": 0.1493418812499998
        },
        {
          "name": "G#3",
          "midi": 56,
          "time": 5.999990999999999,
          "velocity": 0.6299212598425197,
          "duration": 0.1493418812499998
        },
        {
          "name": "F#2",
          "midi": 42,
          "time": 6.315779999999998,
          "velocity": 0.6299212598425197,
          "duration": 0.1493418812499998
        },
        {
          "name": "C#3",
          "midi": 49,
          "time": 6.315779999999998,
          "velocity": 0.6299212598425197,
          "duration": 0.1493418812499998
        },
        {
          "name": "F#2",
          "midi": 42,
          "time": 6.789463499999998,
          "velocity": 0.6299212598425197,
          "duration": 0.1493418812499998
        },
        {
          "name": "C#3",
          "midi": 49,
          "time": 6.789463499999998,
          "velocity": 0.6299212598425197,
          "duration": 0.1493418812499998
        },
        {
          "name": "F#2",
          "midi": 42,
          "time": 7.263146999999998,
          "velocity": 0.6299212598425197,
          "duration": 0.1493418812499998
        },
        {
          "name": "C#3",
          "midi": 49,
          "time": 7.263146999999998,
          "velocity": 0.6299212598425197,
          "duration": 0.1493418812499998
        },
        {
          "name": "A2",
          "midi": 45,
          "time": 7.578935999999998,
          "velocity": 0.6299212598425197,
          "duration": 0.1493418812499998
        },
        {
          "name": "E3",
          "midi": 52,
          "time": 7.578935999999998,
          "velocity": 0.6299212598425197,
          "duration": 0.1493418812499998
        },
        {
          "name": "A2",
          "midi": 45,
          "time": 8.052619499999997,
          "velocity": 0.6299212598425197,
          "duration": 0.1493418812500007
        },
        {
          "name": "E3",
          "midi": 52,
          "time": 8.052619499999997,
          "velocity": 0.6299212598425197,
          "duration": 0.1493418812500007
        },
        {
          "name": "A2",
          "midi": 45,
          "time": 8.526302999999997,
          "velocity": 0.6299212598425197,
          "duration": 0.1493418812500007
        },
        {
          "name": "E3",
          "midi": 52,
          "time": 8.526302999999997,
          "velocity": 0.6299212598425197,
          "duration": 0.1493418812500007
        },
        {
          "name": "B2",
          "midi": 47,
          "time": 8.842091999999997,
          "velocity": 0.6299212598425197,
          "duration": 0.1493418812500007
        },
        {
          "name": "F#3",
          "midi": 54,
          "time": 8.842091999999997,
          "velocity": 0.6299212598425197,
          "duration": 0.1493418812500007
        },
        {
          "name": "B2",
          "midi": 47,
          "time": 9.315775499999997,
          "velocity": 0.6299212598425197,
          "duration": 0.1493418812500007
        },
        {
          "name": "F#3",
          "midi": 54,
          "time": 9.315775499999997,
          "velocity": 0.6299212598425197,
          "duration": 0.1493418812500007
        },
        {
          "name": "B2",
          "midi": 47,
          "time": 9.789458999999997,
          "velocity": 0.6299212598425197,
          "duration": 0.1493418812500007
        },
        {
          "name": "F#3",
          "midi": 54,
          "time": 9.789458999999997,
          "velocity": 0.6299212598425197,
          "duration": 0.1493418812500007
        },
        {
          "name": "C#3",
          "midi": 49,
          "time": 10.105247999999998,
          "velocity": 0.6299212598425197,
          "duration": 0.1493418812500007
        },
        {
          "name": "G#3",
          "midi": 56,
          "time": 10.105247999999998,
          "velocity": 0.6299212598425197,
          "duration": 0.1493418812500007
        },
        {
          "name": "C#3",
          "midi": 49,
          "time": 10.578931499999998,
          "velocity": 0.6299212598425197,
          "duration": 0.1493418812500007
        },
        {
          "name": "G#3",
          "midi": 56,
          "time": 10.578931499999998,
          "velocity": 0.6299212598425197,
          "duration": 0.1493418812500007
        },
        {
          "name": "C#3",
          "midi": 49,
          "time": 11.052614999999998,
          "velocity": 0.6299212598425197,
          "duration": 0.1493418812500007
        },
        {
          "name": "G#3",
          "midi": 56,
          "time": 11.052614999999998,
          "velocity": 0.6299212598425197,
          "duration": 0.1493418812500007
        },
        {
          "name": "F#2",
          "midi": 42,
          "time": 11.368403999999998,
          "velocity": 0.6299212598425197,
          "duration": 0.1493418812500007
        },
        {
          "name": "C#3",
          "midi": 49,
          "time": 11.368403999999998,
          "velocity": 0.6299212598425197,
          "duration": 0.1493418812500007
        },
        {
          "name": "F#2",
          "midi": 42,
          "time": 11.842087499999998,
          "velocity": 0.6299212598425197,
          "duration": 0.1493418812500007
        },
        {
          "name": "C#3",
          "midi": 49,
          "time": 11.842087499999998,
          "velocity": 0.6299212598425197,
          "duration": 0.1493418812500007
        },
        {
          "name": "F#2",
          "midi": 42,
          "time": 12.315770999999998,
          "velocity": 0.6299212598425197,
          "duration": 0.1493418812500007
        },
        {
          "name": "C#3",
          "midi": 49,
          "time": 12.315770999999998,
          "velocity": 0.6299212598425197,
          "duration": 0.1493418812500007
        },
        {
          "name": "A2",
          "midi": 45,
          "time": 12.631559999999999,
          "velocity": 0.6299212598425197,
          "duration": 0.1493418812500007
        },
        {
          "name": "E3",
          "midi": 52,
          "time": 12.631559999999999,
          "velocity": 0.6299212598425197,
          "duration": 0.1493418812500007
        },
        {
          "name": "A2",
          "midi": 45,
          "time": 13.105243499999998,
          "velocity": 0.6299212598425197,
          "duration": 0.1493418812500007
        },
        {
          "name": "E3",
          "midi": 52,
          "time": 13.105243499999998,
          "velocity": 0.6299212598425197,
          "duration": 0.1493418812500007
        },
        {
          "name": "A2",
          "midi": 45,
          "time": 13.578926999999998,
          "velocity": 0.6299212598425197,
          "duration": 0.1493418812500007
        },
        {
          "name": "E3",
          "midi": 52,
          "time": 13.578926999999998,
          "velocity": 0.6299212598425197,
          "duration": 0.1493418812500007
        },
        {
          "name": "B2",
          "midi": 47,
          "time": 13.894715999999999,
          "velocity": 0.6299212598425197,
          "duration": 0.1493418812500007
        },
        {
          "name": "F#3",
          "midi": 54,
          "time": 13.894715999999999,
          "velocity": 0.6299212598425197,
          "duration": 0.1493418812500007
        },
        {
          "name": "B2",
          "midi": 47,
          "time": 14.368399499999999,
          "velocity": 0.6299212598425197,
          "duration": 0.1493418812500007
        },
        {
          "name": "F#3",
          "midi": 54,
          "time": 14.368399499999999,
          "velocity": 0.6299212598425197,
          "duration": 0.1493418812500007
        },
        {
          "name": "B2",
          "midi": 47,
          "time": 14.842082999999999,
          "velocity": 0.6299212598425197,
          "duration": 0.1493418812500007
        },
        {
          "name": "F#3",
          "midi": 54,
          "time": 14.842082999999999,
          "velocity": 0.6299212598425197,
          "duration": 0.1493418812500007
        },
        {
          "name": "C#3",
          "midi": 49,
          "time": 15.157872,
          "velocity": 0.6299212598425197,
          "duration": 0.1493418812500007
        },
        {
          "name": "G#3",
          "midi": 56,
          "time": 15.157872,
          "velocity": 0.6299212598425197,
          "duration": 0.1493418812500007
        },
        {
          "name": "C#3",
          "midi": 49,
          "time": 15.6315555,
          "velocity": 0.6299212598425197,
          "duration": 0.1493418812500007
        },
        {
          "name": "G#3",
          "midi": 56,
          "time": 15.6315555,
          "velocity": 0.6299212598425197,
          "duration": 0.1493418812500007
        },
        {
          "name": "C#3",
          "midi": 49,
          "time": 16.105239,
          "velocity": 0.6299212598425197,
          "duration": 0.14934188124999892
        },
        {
          "name": "G#3",
          "midi": 56,
          "time": 16.105239,
          "velocity": 0.6299212598425197,
          "duration": 0.14934188124999892
        },
        {
          "name": "F#2",
          "midi": 42,
          "time": 16.421028,
          "velocity": 0.6299212598425197,
          "duration": 0.14934188124999892
        },
        {
          "name": "C#3",
          "midi": 49,
          "time": 16.421028,
          "velocity": 0.6299212598425197,
          "duration": 0.14934188124999892
        },
        {
          "name": "F#2",
          "midi": 42,
          "time": 16.8947115,
          "velocity": 0.6299212598425197,
          "duration": 0.14934188124999892
        },
        {
          "name": "C#3",
          "midi": 49,
          "time": 16.8947115,
          "velocity": 0.6299212598425197,
          "duration": 0.14934188124999892
        },
        {
          "name": "F#2",
          "midi": 42,
          "time": 17.368395,
          "velocity": 0.6299212598425197,
          "duration": 0.14934188124999892
        },
        {
          "name": "C#3",
          "midi": 49,
          "time": 17.368395,
          "velocity": 0.6299212598425197,
          "duration": 0.14934188124999892
        },
        {
          "name": "A2",
          "midi": 45,
          "time": 17.684184,
          "velocity": 0.6299212598425197,
          "duration": 0.14934188124999892
        },
        {
          "name": "E3",
          "midi": 52,
          "time": 17.684184,
          "velocity": 0.6299212598425197,
          "duration": 0.14934188124999892
        },
        {
          "name": "A2",
          "midi": 45,
          "time": 18.1578675,
          "velocity": 0.6299212598425197,
          "duration": 0.14934188124999892
        },
        {
          "name": "E3",
          "midi": 52,
          "time": 18.1578675,
          "velocity": 0.6299212598425197,
          "duration": 0.14934188124999892
        },
        {
          "name": "A2",
          "midi": 45,
          "time": 18.631550999999998,
          "velocity": 0.6299212598425197,
          "duration": 0.14934188124999892
        },
        {
          "name": "E3",
          "midi": 52,
          "time": 18.631550999999998,
          "velocity": 0.6299212598425197,
          "duration": 0.14934188124999892
        },
        {
          "name": "B2",
          "midi": 47,
          "time": 18.947339999999997,
          "velocity": 0.6299212598425197,
          "duration": 0.14934188124999892
        },
        {
          "name": "F#3",
          "midi": 54,
          "time": 18.947339999999997,
          "velocity": 0.6299212598425197,
          "duration": 0.14934188124999892
        },
        {
          "name": "B2",
          "midi": 47,
          "time": 19.421023499999997,
          "velocity": 0.6299212598425197,
          "duration": 0.14934188124999892
        },
        {
          "name": "F#3",
          "midi": 54,
          "time": 19.421023499999997,
          "velocity": 0.6299212598425197,
          "duration": 0.14934188124999892
        },
        {
          "name": "B2",
          "midi": 47,
          "time": 19.894706999999997,
          "velocity": 0.6299212598425197,
          "duration": 0.14934188124999892
        },
        {
          "name": "F#3",
          "midi": 54,
          "time": 19.894706999999997,
          "velocity": 0.6299212598425197,
          "duration": 0.14934188124999892
        },
        {
          "name": "C#3",
          "midi": 49,
          "time": 20.210495999999996,
          "velocity": 0.6299212598425197,
          "duration": 0.14934188124999892
        },
        {
          "name": "G#3",
          "midi": 56,
          "time": 20.210495999999996,
          "velocity": 0.6299212598425197,
          "duration": 0.14934188124999892
        },
        {
          "name": "C#3",
          "midi": 49,
          "time": 20.684179499999995,
          "velocity": 0.6299212598425197,
          "duration": 0.14934188124999892
        },
        {
          "name": "G#3",
          "midi": 56,
          "time": 20.684179499999995,
          "velocity": 0.6299212598425197,
          "duration": 0.14934188124999892
        },
        {
          "name": "C#3",
          "midi": 49,
          "time": 21.157862999999995,
          "velocity": 0.6299212598425197,
          "duration": 0.14934188124999892
        },
        {
          "name": "G#3",
          "midi": 56,
          "time": 21.157862999999995,
          "velocity": 0.6299212598425197,
          "duration": 0.14934188124999892
        },
        {
          "name": "F#2",
          "midi": 42,
          "time": 21.473651999999994,
          "velocity": 0.6299212598425197,
          "duration": 0.14934188124999892
        },
        {
          "name": "C#3",
          "midi": 49,
          "time": 21.473651999999994,
          "velocity": 0.6299212598425197,
          "duration": 0.14934188124999892
        },
        {
          "name": "F#2",
          "midi": 42,
          "time": 21.947335499999994,
          "velocity": 0.6299212598425197,
          "duration": 0.14934188124999892
        },
        {
          "name": "C#3",
          "midi": 49,
          "time": 21.947335499999994,
          "velocity": 0.6299212598425197,
          "duration": 0.14934188124999892
        },
        {
          "name": "F#2",
          "midi": 42,
          "time": 22.421018999999994,
          "velocity": 0.6299212598425197,
          "duration": 0.14934188124999892
        },
        {
          "name": "C#3",
          "midi": 49,
          "time": 22.421018999999994,
          "velocity": 0.6299212598425197,
          "duration": 0.14934188124999892
        },
        {
          "name": "A2",
          "midi": 45,
          "time": 22.736807999999993,
          "velocity": 0.6299212598425197,
          "duration": 0.14934188124999892
        },
        {
          "name": "E3",
          "midi": 52,
          "time": 22.736807999999993,
          "velocity": 0.6299212598425197,
          "duration": 0.14934188124999892
        },
        {
          "name": "A2",
          "midi": 45,
          "time": 23.210491499999993,
          "velocity": 0.6299212598425197,
          "duration": 0.14934188124999892
        },
        {
          "name": "E3",
          "midi": 52,
          "time": 23.210491499999993,
          "velocity": 0.6299212598425197,
          "duration": 0.14934188124999892
        },
        {
          "name": "A2",
          "midi": 45,
          "time": 23.684174999999993,
          "velocity": 0.6299212598425197,
          "duration": 0.14934188124999892
        },
        {
          "name": "E3",
          "midi": 52,
          "time": 23.684174999999993,
          "velocity": 0.6299212598425197,
          "duration": 0.14934188124999892
        },
        {
          "name": "B2",
          "midi": 47,
          "time": 23.99996399999999,
          "velocity": 0.6299212598425197,
          "duration": 0.14934188124999892
        },
        {
          "name": "F#3",
          "midi": 54,
          "time": 23.99996399999999,
          "velocity": 0.6299212598425197,
          "duration": 0.14934188124999892
        },
        {
          "name": "B2",
          "midi": 47,
          "time": 24.47364749999999,
          "velocity": 0.6299212598425197,
          "duration": 0.14934188124999892
        },
        {
          "name": "F#3",
          "midi": 54,
          "time": 24.47364749999999,
          "velocity": 0.6299212598425197,
          "duration": 0.14934188124999892
        },
        {
          "name": "B2",
          "midi": 47,
          "time": 24.94733099999999,
          "velocity": 0.6299212598425197,
          "duration": 0.14934188124999892
        },
        {
          "name": "F#3",
          "midi": 54,
          "time": 24.94733099999999,
          "velocity": 0.6299212598425197,
          "duration": 0.14934188124999892
        },
        {
          "name": "C#3",
          "midi": 49,
          "time": 25.26311999999999,
          "velocity": 0.6299212598425197,
          "duration": 0.14934188124999892
        },
        {
          "name": "G#3",
          "midi": 56,
          "time": 25.26311999999999,
          "velocity": 0.6299212598425197,
          "duration": 0.14934188124999892
        },
        {
          "name": "C#3",
          "midi": 49,
          "time": 25.73680349999999,
          "velocity": 0.6299212598425197,
          "duration": 0.14934188124999892
        },
        {
          "name": "G#3",
          "midi": 56,
          "time": 25.73680349999999,
          "velocity": 0.6299212598425197,
          "duration": 0.14934188124999892
        },
        {
          "name": "C#3",
          "midi": 49,
          "time": 26.21048699999999,
          "velocity": 0.6299212598425197,
          "duration": 0.14934188124999892
        },
        {
          "name": "G#3",
          "midi": 56,
          "time": 26.21048699999999,
          "velocity": 0.6299212598425197,
          "duration": 0.14934188124999892
        },
        {
          "name": "F#2",
          "midi": 42,
          "time": 26.52627599999999,
          "velocity": 0.6299212598425197,
          "duration": 0.14934188124999892
        },
        {
          "name": "C#3",
          "midi": 49,
          "time": 26.52627599999999,
          "velocity": 0.6299212598425197,
          "duration": 0.14934188124999892
        },
        {
          "name": "F#2",
          "midi": 42,
          "time": 26.99995949999999,
          "velocity": 0.6299212598425197,
          "duration": 0.14934188124999892
        },
        {
          "name": "C#3",
          "midi": 49,
          "time": 26.99995949999999,
          "velocity": 0.6299212598425197,
          "duration": 0.14934188124999892
        },
        {
          "name": "F#2",
          "midi": 42,
          "time": 27.47364299999999,
          "velocity": 0.6299212598425197,
          "duration": 0.14934188124999892
        },
        {
          "name": "C#3",
          "midi": 49,
          "time": 27.47364299999999,
          "velocity": 0.6299212598425197,
          "duration": 0.14934188124999892
        },
        {
          "name": "A2",
          "midi": 45,
          "time": 27.789431999999987,
          "velocity": 0.6299212598425197,
          "duration": 0.14934188124999892
        },
        {
          "name": "E3",
          "midi": 52,
          "time": 27.789431999999987,
          "velocity": 0.6299212598425197,
          "duration": 0.14934188124999892
        },
        {
          "name": "A2",
          "midi": 45,
          "time": 28.263115499999987,
          "velocity": 0.6299212598425197,
          "duration": 0.14934188124999892
        },
        {
          "name": "E3",
          "midi": 52,
          "time": 28.263115499999987,
          "velocity": 0.6299212598425197,
          "duration": 0.14934188124999892
        },
        {
          "name": "A2",
          "midi": 45,
          "time": 28.736798999999987,
          "velocity": 0.6299212598425197,
          "duration": 0.14934188124999892
        },
        {
          "name": "E3",
          "midi": 52,
          "time": 28.736798999999987,
          "velocity": 0.6299212598425197,
          "duration": 0.14934188124999892
        },
        {
          "name": "B2",
          "midi": 47,
          "time": 29.052587999999986,
          "velocity": 0.6299212598425197,
          "duration": 0.14934188124999892
        },
        {
          "name": "F#3",
          "midi": 54,
          "time": 29.052587999999986,
          "velocity": 0.6299212598425197,
          "duration": 0.14934188124999892
        },
        {
          "name": "B2",
          "midi": 47,
          "time": 29.526271499999986,
          "velocity": 0.6299212598425197,
          "duration": 0.14934188124999892
        },
        {
          "name": "F#3",
          "midi": 54,
          "time": 29.526271499999986,
          "velocity": 0.6299212598425197,
          "duration": 0.14934188124999892
        },
        {
          "name": "B2",
          "midi": 47,
          "time": 29.999954999999986,
          "velocity": 0.6299212598425197,
          "duration": 0.14934188124999892
        },
        {
          "name": "F#3",
          "midi": 54,
          "time": 29.999954999999986,
          "velocity": 0.6299212598425197,
          "duration": 0.14934188124999892
        },
        {
          "name": "C#3",
          "midi": 49,
          "time": 30.315743999999984,
          "velocity": 0.6299212598425197,
          "duration": 0.14934188124999892
        },
        {
          "name": "G#3",
          "midi": 56,
          "time": 30.315743999999984,
          "velocity": 0.6299212598425197,
          "duration": 0.14934188124999892
        },
        {
          "name": "C#3",
          "midi": 49,
          "time": 30.789427499999984,
          "velocity": 0.6299212598425197,
          "duration": 0.14934188124999892
        },
        {
          "name": "G#3",
          "midi": 56,
          "time": 30.789427499999984,
          "velocity": 0.6299212598425197,
          "duration": 0.14934188124999892
        },
        {
          "name": "C#3",
          "midi": 49,
          "time": 31.263110999999984,
          "velocity": 0.6299212598425197,
          "duration": 0.14934188124999892
        },
        {
          "name": "G#3",
          "midi": 56,
          "time": 31.263110999999984,
          "velocity": 0.6299212598425197,
          "duration": 0.14934188124999892
        },
        {
          "name": "F#2",
          "midi": 42,
          "time": 31.578899999999983,
          "velocity": 0.6299212598425197,
          "duration": 0.14934188124999892
        },
        {
          "name": "C#3",
          "midi": 49,
          "time": 31.578899999999983,
          "velocity": 0.6299212598425197,
          "duration": 0.14934188124999892
        },
        {
          "name": "F#2",
          "midi": 42,
          "time": 32.05258349999998,
          "velocity": 0.6299212598425197,
          "duration": 0.14934188125000247
        },
        {
          "name": "C#3",
          "midi": 49,
          "time": 32.05258349999998,
          "velocity": 0.6299212598425197,
          "duration": 0.14934188125000247
        },
        {
          "name": "F#2",
          "midi": 42,
          "time": 32.52626699999998,
          "velocity": 0.6299212598425197,
          "duration": 0.14934188125000247
        },
        {
          "name": "C#3",
          "midi": 49,
          "time": 32.52626699999998,
          "velocity": 0.6299212598425197,
          "duration": 0.14934188125000247
        },
        {
          "name": "A2",
          "midi": 45,
          "time": 32.842055999999985,
          "velocity": 0.6299212598425197,
          "duration": 0.14934188125000247
        },
        {
          "name": "E3",
          "midi": 52,
          "time": 32.842055999999985,
          "velocity": 0.6299212598425197,
          "duration": 0.14934188125000247
        },
        {
          "name": "A2",
          "midi": 45,
          "time": 33.315739499999985,
          "velocity": 0.6299212598425197,
          "duration": 0.14934188125000247
        },
        {
          "name": "E3",
          "midi": 52,
          "time": 33.315739499999985,
          "velocity": 0.6299212598425197,
          "duration": 0.14934188125000247
        },
        {
          "name": "A2",
          "midi": 45,
          "time": 33.789422999999985,
          "velocity": 0.6299212598425197,
          "duration": 0.14934188125000247
        },
        {
          "name": "E3",
          "midi": 52,
          "time": 33.789422999999985,
          "velocity": 0.6299212598425197,
          "duration": 0.14934188125000247
        },
        {
          "name": "B2",
          "midi": 47,
          "time": 34.10521199999999,
          "velocity": 0.6299212598425197,
          "duration": 0.14934188125000247
        },
        {
          "name": "F#3",
          "midi": 54,
          "time": 34.10521199999999,
          "velocity": 0.6299212598425197,
          "duration": 0.14934188125000247
        },
        {
          "name": "B2",
          "midi": 47,
          "time": 34.57889549999999,
          "velocity": 0.6299212598425197,
          "duration": 0.14934188125000247
        },
        {
          "name": "F#3",
          "midi": 54,
          "time": 34.57889549999999,
          "velocity": 0.6299212598425197,
          "duration": 0.14934188125000247
        },
        {
          "name": "B2",
          "midi": 47,
          "time": 35.05257899999999,
          "velocity": 0.6299212598425197,
          "duration": 0.14934188125000247
        },
        {
          "name": "F#3",
          "midi": 54,
          "time": 35.05257899999999,
          "velocity": 0.6299212598425197,
          "duration": 0.14934188125000247
        },
        {
          "name": "C#3",
          "midi": 49,
          "time": 35.36836799999999,
          "velocity": 0.6299212598425197,
          "duration": 0.14934188125000247
        },
        {
          "name": "G#3",
          "midi": 56,
          "time": 35.36836799999999,
          "velocity": 0.6299212598425197,
          "duration": 0.14934188125000247
        },
        {
          "name": "C#3",
          "midi": 49,
          "time": 35.84205149999999,
          "velocity": 0.6299212598425197,
          "duration": 0.14934188125000247
        },
        {
          "name": "G#3",
          "midi": 56,
          "time": 35.84205149999999,
          "velocity": 0.6299212598425197,
          "duration": 0.14934188125000247
        },
        {
          "name": "C#3",
          "midi": 49,
          "time": 36.31573499999999,
          "velocity": 0.6299212598425197,
          "duration": 0.14934188125000247
        },
        {
          "name": "G#3",
          "midi": 56,
          "time": 36.31573499999999,
          "velocity": 0.6299212598425197,
          "duration": 0.14934188125000247
        },
        {
          "name": "F#2",
          "midi": 42,
          "time": 36.63152399999999,
          "velocity": 0.6299212598425197,
          "duration": 0.14934188125000247
        },
        {
          "name": "C#3",
          "midi": 49,
          "time": 36.63152399999999,
          "velocity": 0.6299212598425197,
          "duration": 0.14934188125000247
        },
        {
          "name": "F#2",
          "midi": 42,
          "time": 37.10520749999999,
          "velocity": 0.6299212598425197,
          "duration": 0.14934188125000247
        },
        {
          "name": "C#3",
          "midi": 49,
          "time": 37.10520749999999,
          "velocity": 0.6299212598425197,
          "duration": 0.14934188125000247
        },
        {
          "name": "F#2",
          "midi": 42,
          "time": 37.57889099999999,
          "velocity": 0.6299212598425197,
          "duration": 0.14934188125000247
        },
        {
          "name": "C#3",
          "midi": 49,
          "time": 37.57889099999999,
          "velocity": 0.6299212598425197,
          "duration": 0.14934188125000247
        },
        {
          "name": "A2",
          "midi": 45,
          "time": 37.894679999999994,
          "velocity": 0.6299212598425197,
          "duration": 0.14934188125000247
        },
        {
          "name": "E3",
          "midi": 52,
          "time": 37.894679999999994,
          "velocity": 0.6299212598425197,
          "duration": 0.14934188125000247
        },
        {
          "name": "A2",
          "midi": 45,
          "time": 38.368363499999994,
          "velocity": 0.6299212598425197,
          "duration": 0.14934188125000247
        },
        {
          "name": "E3",
          "midi": 52,
          "time": 38.368363499999994,
          "velocity": 0.6299212598425197,
          "duration": 0.14934188125000247
        },
        {
          "name": "A2",
          "midi": 45,
          "time": 38.842046999999994,
          "velocity": 0.6299212598425197,
          "duration": 0.14934188125000247
        },
        {
          "name": "E3",
          "midi": 52,
          "time": 38.842046999999994,
          "velocity": 0.6299212598425197,
          "duration": 0.14934188125000247
        },
        {
          "name": "B2",
          "midi": 47,
          "time": 39.157835999999996,
          "velocity": 0.6299212598425197,
          "duration": 0.14934188125000247
        },
        {
          "name": "F#3",
          "midi": 54,
          "time": 39.157835999999996,
          "velocity": 0.6299212598425197,
          "duration": 0.14934188125000247
        },
        {
          "name": "B2",
          "midi": 47,
          "time": 39.631519499999996,
          "velocity": 0.6299212598425197,
          "duration": 0.14934188125000247
        },
        {
          "name": "F#3",
          "midi": 54,
          "time": 39.631519499999996,
          "velocity": 0.6299212598425197,
          "duration": 0.14934188125000247
        },
        {
          "name": "B2",
          "midi": 47,
          "time": 40.105202999999996,
          "velocity": 0.6299212598425197,
          "duration": 0.14934188125000247
        },
        {
          "name": "F#3",
          "midi": 54,
          "time": 40.105202999999996,
          "velocity": 0.6299212598425197,
          "duration": 0.14934188125000247
        },
        {
          "name": "C#3",
          "midi": 49,
          "time": 40.420992,
          "velocity": 0.6299212598425197,
          "duration": 0.14934188125000247
        },
        {
          "name": "G#3",
          "midi": 56,
          "time": 40.420992,
          "velocity": 0.6299212598425197,
          "duration": 0.14934188125000247
        },
        {
          "name": "C#3",
          "midi": 49,
          "time": 40.8946755,
          "velocity": 0.6299212598425197,
          "duration": 0.14934188125000247
        },
        {
          "name": "G#3",
          "midi": 56,
          "time": 40.8946755,
          "velocity": 0.6299212598425197,
          "duration": 0.14934188125000247
        },
        {
          "name": "C#3",
          "midi": 49,
          "time": 41.368359,
          "velocity": 0.6299212598425197,
          "duration": 0.14934188125000247
        },
        {
          "name": "G#3",
          "midi": 56,
          "time": 41.368359,
          "velocity": 0.6299212598425197,
          "duration": 0.14934188125000247
        },
        {
          "name": "F#2",
          "midi": 42,
          "time": 41.684148,
          "velocity": 0.6299212598425197,
          "duration": 0.14934188125000247
        },
        {
          "name": "C#3",
          "midi": 49,
          "time": 41.684148,
          "velocity": 0.6299212598425197,
          "duration": 0.14934188125000247
        },
        {
          "name": "F#2",
          "midi": 42,
          "time": 42.1578315,
          "velocity": 0.6299212598425197,
          "duration": 0.14934188125000247
        },
        {
          "name": "C#3",
          "midi": 49,
          "time": 42.1578315,
          "velocity": 0.6299212598425197,
          "duration": 0.14934188125000247
        },
        {
          "name": "F#2",
          "midi": 42,
          "time": 42.631515,
          "velocity": 0.6299212598425197,
          "duration": 0.14934188125000247
        },
        {
          "name": "C#3",
          "midi": 49,
          "time": 42.631515,
          "velocity": 0.6299212598425197,
          "duration": 0.14934188125000247
        },
        {
          "name": "A2",
          "midi": 45,
          "time": 42.947304,
          "velocity": 0.6299212598425197,
          "duration": 0.14934188125000247
        },
        {
          "name": "E3",
          "midi": 52,
          "time": 42.947304,
          "velocity": 0.6299212598425197,
          "duration": 0.14934188125000247
        },
        {
          "name": "A2",
          "midi": 45,
          "time": 43.4209875,
          "velocity": 0.6299212598425197,
          "duration": 0.14934188125000247
        },
        {
          "name": "E3",
          "midi": 52,
          "time": 43.4209875,
          "velocity": 0.6299212598425197,
          "duration": 0.14934188125000247
        },
        {
          "name": "A2",
          "midi": 45,
          "time": 43.894671,
          "velocity": 0.6299212598425197,
          "duration": 0.14934188125000247
        },
        {
          "name": "E3",
          "midi": 52,
          "time": 43.894671,
          "velocity": 0.6299212598425197,
          "duration": 0.14934188125000247
        },
        {
          "name": "B2",
          "midi": 47,
          "time": 44.210460000000005,
          "velocity": 0.6299212598425197,
          "duration": 0.14934188125000247
        },
        {
          "name": "F#3",
          "midi": 54,
          "time": 44.210460000000005,
          "velocity": 0.6299212598425197,
          "duration": 0.14934188125000247
        },
        {
          "name": "B2",
          "midi": 47,
          "time": 44.684143500000005,
          "velocity": 0.6299212598425197,
          "duration": 0.14934188125000247
        },
        {
          "name": "F#3",
          "midi": 54,
          "time": 44.684143500000005,
          "velocity": 0.6299212598425197,
          "duration": 0.14934188125000247
        },
        {
          "name": "B2",
          "midi": 47,
          "time": 45.157827000000005,
          "velocity": 0.6299212598425197,
          "duration": 0.14934188125000247
        },
        {
          "name": "F#3",
          "midi": 54,
          "time": 45.157827000000005,
          "velocity": 0.6299212598425197,
          "duration": 0.14934188125000247
        },
        {
          "name": "C#3",
          "midi": 49,
          "time": 45.47361600000001,
          "velocity": 0.6299212598425197,
          "duration": 0.14934188125000247
        },
        {
          "name": "G#3",
          "midi": 56,
          "time": 45.47361600000001,
          "velocity": 0.6299212598425197,
          "duration": 0.14934188125000247
        },
        {
          "name": "C#3",
          "midi": 49,
          "time": 45.94729950000001,
          "velocity": 0.6299212598425197,
          "duration": 0.14934188125000247
        },
        {
          "name": "G#3",
          "midi": 56,
          "time": 45.94729950000001,
          "velocity": 0.6299212598425197,
          "duration": 0.14934188125000247
        },
        {
          "name": "C#3",
          "midi": 49,
          "time": 46.42098300000001,
          "velocity": 0.6299212598425197,
          "duration": 0.14934188125000247
        },
        {
          "name": "G#3",
          "midi": 56,
          "time": 46.42098300000001,
          "velocity": 0.6299212598425197,
          "duration": 0.14934188125000247
        },
        {
          "name": "F#2",
          "midi": 42,
          "time": 46.73677200000001,
          "velocity": 0.6299212598425197,
          "duration": 0.14934188125000247
        },
        {
          "name": "C#3",
          "midi": 49,
          "time": 46.73677200000001,
          "velocity": 0.6299212598425197,
          "duration": 0.14934188125000247
        },
        {
          "name": "F#2",
          "midi": 42,
          "time": 47.21045550000001,
          "velocity": 0.6299212598425197,
          "duration": 0.14934188125000247
        },
        {
          "name": "C#3",
          "midi": 49,
          "time": 47.21045550000001,
          "velocity": 0.6299212598425197,
          "duration": 0.14934188125000247
        },
        {
          "name": "F#2",
          "midi": 42,
          "time": 47.68413900000001,
          "velocity": 0.6299212598425197,
          "duration": 0.14934188125000247
        },
        {
          "name": "C#3",
          "midi": 49,
          "time": 47.68413900000001,
          "velocity": 0.6299212598425197,
          "duration": 0.14934188125000247
        },
        {
          "name": "A2",
          "midi": 45,
          "time": 47.99992800000001,
          "velocity": 0.6299212598425197,
          "duration": 0.14934188125000247
        },
        {
          "name": "E3",
          "midi": 52,
          "time": 47.99992800000001,
          "velocity": 0.6299212598425197,
          "duration": 0.14934188125000247
        },
        {
          "name": "A2",
          "midi": 45,
          "time": 48.47361150000001,
          "velocity": 0.6299212598425197,
          "duration": 0.14934188125000247
        },
        {
          "name": "E3",
          "midi": 52,
          "time": 48.47361150000001,
          "velocity": 0.6299212598425197,
          "duration": 0.14934188125000247
        },
        {
          "name": "A2",
          "midi": 45,
          "time": 48.94729500000001,
          "velocity": 0.6299212598425197,
          "duration": 0.14934188125000247
        },
        {
          "name": "E3",
          "midi": 52,
          "time": 48.94729500000001,
          "velocity": 0.6299212598425197,
          "duration": 0.14934188125000247
        },
        {
          "name": "B2",
          "midi": 47,
          "time": 49.26308400000001,
          "velocity": 0.6299212598425197,
          "duration": 0.14934188125000247
        },
        {
          "name": "F#3",
          "midi": 54,
          "time": 49.26308400000001,
          "velocity": 0.6299212598425197,
          "duration": 0.14934188125000247
        },
        {
          "name": "C#3",
          "midi": 49,
          "time": 50.526240000000016,
          "velocity": 0.6299212598425197,
          "duration": 0.14934188125000247
        },
        {
          "name": "G#3",
          "midi": 56,
          "time": 50.526240000000016,
          "velocity": 0.6299212598425197,
          "duration": 0.14934188125000247
        },
        {
          "name": "C#3",
          "midi": 49,
          "time": 50.999923500000016,
          "velocity": 0.6299212598425197,
          "duration": 0.14934188125000247
        },
        {
          "name": "G#3",
          "midi": 56,
          "time": 50.999923500000016,
          "velocity": 0.6299212598425197,
          "duration": 0.14934188125000247
        },
        {
          "name": "C#3",
          "midi": 49,
          "time": 51.473607000000015,
          "velocity": 0.6299212598425197,
          "duration": 0.14934188125000247
        },
        {
          "name": "G#3",
          "midi": 56,
          "time": 51.473607000000015,
          "velocity": 0.6299212598425197,
          "duration": 0.14934188125000247
        },
        {
          "name": "F#2",
          "midi": 42,
          "time": 51.78939600000002,
          "velocity": 0.6299212598425197,
          "duration": 0.14934188125000247
        },
        {
          "name": "C#3",
          "midi": 49,
          "time": 51.78939600000002,
          "velocity": 0.6299212598425197,
          "duration": 0.14934188125000247
        },
        {
          "name": "F#2",
          "midi": 42,
          "time": 52.26307950000002,
          "velocity": 0.6299212598425197,
          "duration": 0.14934188125000247
        },
        {
          "name": "C#3",
          "midi": 49,
          "time": 52.26307950000002,
          "velocity": 0.6299212598425197,
          "duration": 0.14934188125000247
        },
        {
          "name": "F#2",
          "midi": 42,
          "time": 52.73676300000002,
          "velocity": 0.6299212598425197,
          "duration": 0.14934188125000247
        },
        {
          "name": "C#3",
          "midi": 49,
          "time": 52.73676300000002,
          "velocity": 0.6299212598425197,
          "duration": 0.14934188125000247
        },
        {
          "name": "A2",
          "midi": 45,
          "time": 53.05255200000002,
          "velocity": 0.6299212598425197,
          "duration": 0.14934188125000247
        },
        {
          "name": "E3",
          "midi": 52,
          "time": 53.05255200000002,
          "velocity": 0.6299212598425197,
          "duration": 0.14934188125000247
        },
        {
          "name": "A2",
          "midi": 45,
          "time": 53.52623550000002,
          "velocity": 0.6299212598425197,
          "duration": 0.14934188125000247
        },
        {
          "name": "E3",
          "midi": 52,
          "time": 53.52623550000002,
          "velocity": 0.6299212598425197,
          "duration": 0.14934188125000247
        },
        {
          "name": "A2",
          "midi": 45,
          "time": 53.99991900000002,
          "velocity": 0.6299212598425197,
          "duration": 0.14934188125000247
        },
        {
          "name": "E3",
          "midi": 52,
          "time": 53.99991900000002,
          "velocity": 0.6299212598425197,
          "duration": 0.14934188125000247
        },
        {
          "name": "B2",
          "midi": 47,
          "time": 54.31570800000002,
          "velocity": 0.6299212598425197,
          "duration": 0.14934188125000247
        },
        {
          "name": "F#3",
          "midi": 54,
          "time": 54.31570800000002,
          "velocity": 0.6299212598425197,
          "duration": 0.14934188125000247
        },
        {
          "name": "B2",
          "midi": 47,
          "time": 54.78939150000002,
          "velocity": 0.6299212598425197,
          "duration": 0.14934188125000247
        },
        {
          "name": "F#3",
          "midi": 54,
          "time": 54.78939150000002,
          "velocity": 0.6299212598425197,
          "duration": 0.14934188125000247
        },
        {
          "name": "B2",
          "midi": 47,
          "time": 55.26307500000002,
          "velocity": 0.6299212598425197,
          "duration": 0.14934188125000247
        },
        {
          "name": "F#3",
          "midi": 54,
          "time": 55.26307500000002,
          "velocity": 0.6299212598425197,
          "duration": 0.14934188125000247
        },
        {
          "name": "C#3",
          "midi": 49,
          "time": 55.578864000000024,
          "velocity": 0.6299212598425197,
          "duration": 0.14934188125000247
        },
        {
          "name": "G#3",
          "midi": 56,
          "time": 55.578864000000024,
          "velocity": 0.6299212598425197,
          "duration": 0.14934188125000247
        },
        {
          "name": "C#3",
          "midi": 49,
          "time": 56.052547500000024,
          "velocity": 0.6299212598425197,
          "duration": 0.14934188125000247
        },
        {
          "name": "G#3",
          "midi": 56,
          "time": 56.052547500000024,
          "velocity": 0.6299212598425197,
          "duration": 0.14934188125000247
        },
        {
          "name": "C#3",
          "midi": 49,
          "time": 56.526231000000024,
          "velocity": 0.6299212598425197,
          "duration": 0.14934188125000247
        },
        {
          "name": "G#3",
          "midi": 56,
          "time": 56.526231000000024,
          "velocity": 0.6299212598425197,
          "duration": 0.14934188125000247
        },
        {
          "name": "F#2",
          "midi": 42,
          "time": 56.842020000000026,
          "velocity": 0.6299212598425197,
          "duration": 0.14934188125000247
        },
        {
          "name": "C#3",
          "midi": 49,
          "time": 56.842020000000026,
          "velocity": 0.6299212598425197,
          "duration": 0.14934188125000247
        },
        {
          "name": "F#2",
          "midi": 42,
          "time": 57.315703500000026,
          "velocity": 0.6299212598425197,
          "duration": 0.14934188125000247
        },
        {
          "name": "C#3",
          "midi": 49,
          "time": 57.315703500000026,
          "velocity": 0.6299212598425197,
          "duration": 0.14934188125000247
        },
        {
          "name": "F#2",
          "midi": 42,
          "time": 57.789387000000026,
          "velocity": 0.6299212598425197,
          "duration": 0.14934188125000247
        },
        {
          "name": "C#3",
          "midi": 49,
          "time": 57.789387000000026,
          "velocity": 0.6299212598425197,
          "duration": 0.14934188125000247
        },
        {
          "name": "A2",
          "midi": 45,
          "time": 58.10517600000003,
          "velocity": 0.6299212598425197,
          "duration": 0.14934188125000247
        },
        {
          "name": "E3",
          "midi": 52,
          "time": 58.10517600000003,
          "velocity": 0.6299212598425197,
          "duration": 0.14934188125000247
        },
        {
          "name": "A2",
          "midi": 45,
          "time": 58.57885950000003,
          "velocity": 0.6299212598425197,
          "duration": 0.14934188125000247
        },
        {
          "name": "E3",
          "midi": 52,
          "time": 58.57885950000003,
          "velocity": 0.6299212598425197,
          "duration": 0.14934188125000247
        },
        {
          "name": "A2",
          "midi": 45,
          "time": 59.05254300000003,
          "velocity": 0.6299212598425197,
          "duration": 0.14934188125000247
        },
        {
          "name": "E3",
          "midi": 52,
          "time": 59.05254300000003,
          "velocity": 0.6299212598425197,
          "duration": 0.14934188125000247
        },
        {
          "name": "B2",
          "midi": 47,
          "time": 59.36833200000003,
          "velocity": 0.6299212598425197,
          "duration": 0.14934188125000247
        },
        {
          "name": "F#3",
          "midi": 54,
          "time": 59.36833200000003,
          "velocity": 0.6299212598425197,
          "duration": 0.14934188125000247
        },
        {
          "name": "B2",
          "midi": 47,
          "time": 59.84201550000003,
          "velocity": 0.6299212598425197,
          "duration": 0.14934188125000247
        },
        {
          "name": "F#3",
          "midi": 54,
          "time": 59.84201550000003,
          "velocity": 0.6299212598425197,
          "duration": 0.14934188125000247
        },
        {
          "name": "B2",
          "midi": 47,
          "time": 60.31569900000003,
          "velocity": 0.6299212598425197,
          "duration": 0.14934188125000247
        },
        {
          "name": "F#3",
          "midi": 54,
          "time": 60.31569900000003,
          "velocity": 0.6299212598425197,
          "duration": 0.14934188125000247
        },
        {
          "name": "C#3",
          "midi": 49,
          "time": 60.63148800000003,
          "velocity": 0.6299212598425197,
          "duration": 0.14934188125000247
        },
        {
          "name": "G#3",
          "midi": 56,
          "time": 60.63148800000003,
          "velocity": 0.6299212598425197,
          "duration": 0.14934188125000247
        },
        {
          "name": "C#3",
          "midi": 49,
          "time": 61.10517150000003,
          "velocity": 0.6299212598425197,
          "duration": 0.14934188125000247
        },
        {
          "name": "G#3",
          "midi": 56,
          "time": 61.10517150000003,
          "velocity": 0.6299212598425197,
          "duration": 0.14934188125000247
        },
        {
          "name": "C#3",
          "midi": 49,
          "time": 61.57885500000003,
          "velocity": 0.6299212598425197,
          "duration": 0.14934188125000247
        },
        {
          "name": "G#3",
          "midi": 56,
          "time": 61.57885500000003,
          "velocity": 0.6299212598425197,
          "duration": 0.14934188125000247
        },
        {
          "name": "F#2",
          "midi": 42,
          "time": 61.894644000000035,
          "velocity": 0.6299212598425197,
          "duration": 0.14934188125000247
        },
        {
          "name": "C#3",
          "midi": 49,
          "time": 61.894644000000035,
          "velocity": 0.6299212598425197,
          "duration": 0.14934188125000247
        },
        {
          "name": "F#2",
          "midi": 42,
          "time": 62.368327500000035,
          "velocity": 0.6299212598425197,
          "duration": 0.14934188125000247
        },
        {
          "name": "C#3",
          "midi": 49,
          "time": 62.368327500000035,
          "velocity": 0.6299212598425197,
          "duration": 0.14934188125000247
        },
        {
          "name": "F#2",
          "midi": 42,
          "time": 62.842011000000035,
          "velocity": 0.6299212598425197,
          "duration": 0.14934188125000247
        },
        {
          "name": "C#3",
          "midi": 49,
          "time": 62.842011000000035,
          "velocity": 0.6299212598425197,
          "duration": 0.14934188125000247
        },
        {
          "name": "A2",
          "midi": 45,
          "time": 63.15780000000004,
          "velocity": 0.6299212598425197,
          "duration": 0.14934188125000247
        },
        {
          "name": "E3",
          "midi": 52,
          "time": 63.15780000000004,
          "velocity": 0.6299212598425197,
          "duration": 0.14934188125000247
        },
        {
          "name": "A2",
          "midi": 45,
          "time": 63.63148350000004,
          "velocity": 0.6299212598425197,
          "duration": 0.14934188125000247
        },
        {
          "name": "E3",
          "midi": 52,
          "time": 63.63148350000004,
          "velocity": 0.6299212598425197,
          "duration": 0.14934188125000247
        },
        {
          "name": "A2",
          "midi": 45,
          "time": 64.10516700000004,
          "velocity": 0.6299212598425197,
          "duration": 0.14934188124999537
        },
        {
          "name": "E3",
          "midi": 52,
          "time": 64.10516700000004,
          "velocity": 0.6299212598425197,
          "duration": 0.14934188124999537
        },
        {
          "name": "B2",
          "midi": 47,
          "time": 64.42095600000003,
          "velocity": 0.6299212598425197,
          "duration": 0.14934188124999537
        },
        {
          "name": "F#3",
          "midi": 54,
          "time": 64.42095600000003,
          "velocity": 0.6299212598425197,
          "duration": 0.14934188124999537
        },
        {
          "name": "B2",
          "midi": 47,
          "time": 64.89463950000003,
          "velocity": 0.6299212598425197,
          "duration": 0.14934188124999537
        },
        {
          "name": "F#3",
          "midi": 54,
          "time": 64.89463950000003,
          "velocity": 0.6299212598425197,
          "duration": 0.14934188124999537
        },
        {
          "name": "B2",
          "midi": 47,
          "time": 65.36832300000002,
          "velocity": 0.6299212598425197,
          "duration": 0.14934188124999537
        },
        {
          "name": "F#3",
          "midi": 54,
          "time": 65.36832300000002,
          "velocity": 0.6299212598425197,
          "duration": 0.14934188124999537
        },
        {
          "name": "C#3",
          "midi": 49,
          "time": 65.68411200000001,
          "velocity": 0.6299212598425197,
          "duration": 0.14934188124999537
        },
        {
          "name": "G#3",
          "midi": 56,
          "time": 65.68411200000001,
          "velocity": 0.6299212598425197,
          "duration": 0.14934188124999537
        },
        {
          "name": "C#3",
          "midi": 49,
          "time": 66.1577955,
          "velocity": 0.6299212598425197,
          "duration": 0.14934188124999537
        },
        {
          "name": "G#3",
          "midi": 56,
          "time": 66.1577955,
          "velocity": 0.6299212598425197,
          "duration": 0.14934188124999537
        },
        {
          "name": "C#3",
          "midi": 49,
          "time": 66.631479,
          "velocity": 0.6299212598425197,
          "duration": 0.14934188124999537
        },
        {
          "name": "G#3",
          "midi": 56,
          "time": 66.631479,
          "velocity": 0.6299212598425197,
          "duration": 0.14934188124999537
        },
        {
          "name": "F#2",
          "midi": 42,
          "time": 66.947268,
          "velocity": 0.6299212598425197,
          "duration": 0.14934188124999537
        },
        {
          "name": "C#3",
          "midi": 49,
          "time": 66.947268,
          "velocity": 0.6299212598425197,
          "duration": 0.14934188124999537
        },
        {
          "name": "F#2",
          "midi": 42,
          "time": 67.42095149999999,
          "velocity": 0.6299212598425197,
          "duration": 0.14934188124999537
        },
        {
          "name": "C#3",
          "midi": 49,
          "time": 67.42095149999999,
          "velocity": 0.6299212598425197,
          "duration": 0.14934188124999537
        },
        {
          "name": "F#2",
          "midi": 42,
          "time": 67.89463499999998,
          "velocity": 0.6299212598425197,
          "duration": 0.14934188124999537
        },
        {
          "name": "C#3",
          "midi": 49,
          "time": 67.89463499999998,
          "velocity": 0.6299212598425197,
          "duration": 0.14934188124999537
        },
        {
          "name": "A2",
          "midi": 45,
          "time": 68.21042399999997,
          "velocity": 0.6299212598425197,
          "duration": 0.14934188124999537
        },
        {
          "name": "E3",
          "midi": 52,
          "time": 68.21042399999997,
          "velocity": 0.6299212598425197,
          "duration": 0.14934188124999537
        },
        {
          "name": "A2",
          "midi": 45,
          "time": 68.68410749999997,
          "velocity": 0.6299212598425197,
          "duration": 0.14934188124999537
        },
        {
          "name": "E3",
          "midi": 52,
          "time": 68.68410749999997,
          "velocity": 0.6299212598425197,
          "duration": 0.14934188124999537
        },
        {
          "name": "A2",
          "midi": 45,
          "time": 69.15779099999996,
          "velocity": 0.6299212598425197,
          "duration": 0.14934188124999537
        },
        {
          "name": "E3",
          "midi": 52,
          "time": 69.15779099999996,
          "velocity": 0.6299212598425197,
          "duration": 0.14934188124999537
        },
        {
          "name": "B2",
          "midi": 47,
          "time": 69.47357999999996,
          "velocity": 0.6299212598425197,
          "duration": 0.14934188124999537
        },
        {
          "name": "F#3",
          "midi": 54,
          "time": 69.47357999999996,
          "velocity": 0.6299212598425197,
          "duration": 0.14934188124999537
        },
        {
          "name": "B2",
          "midi": 47,
          "time": 69.94726349999995,
          "velocity": 0.6299212598425197,
          "duration": 0.14934188124999537
        },
        {
          "name": "F#3",
          "midi": 54,
          "time": 69.94726349999995,
          "velocity": 0.6299212598425197,
          "duration": 0.14934188124999537
        },
        {
          "name": "B2",
          "midi": 47,
          "time": 70.42094699999994,
          "velocity": 0.6299212598425197,
          "duration": 0.14934188124999537
        },
        {
          "name": "F#3",
          "midi": 54,
          "time": 70.42094699999994,
          "velocity": 0.6299212598425197,
          "duration": 0.14934188124999537
        },
        {
          "name": "C#3",
          "midi": 49,
          "time": 70.73673599999994,
          "velocity": 0.6299212598425197,
          "duration": 0.14934188124999537
        },
        {
          "name": "G#3",
          "midi": 56,
          "time": 70.73673599999994,
          "velocity": 0.6299212598425197,
          "duration": 0.14934188124999537
        },
        {
          "name": "C#3",
          "midi": 49,
          "time": 71.21041949999993,
          "velocity": 0.6299212598425197,
          "duration": 0.14934188124999537
        },
        {
          "name": "G#3",
          "midi": 56,
          "time": 71.21041949999993,
          "velocity": 0.6299212598425197,
          "duration": 0.14934188124999537
        },
        {
          "name": "C#3",
          "midi": 49,
          "time": 71.68410299999992,
          "velocity": 0.6299212598425197,
          "duration": 0.14934188124999537
        },
        {
          "name": "G#3",
          "midi": 56,
          "time": 71.68410299999992,
          "velocity": 0.6299212598425197,
          "duration": 0.14934188124999537
        },
        {
          "name": "F#2",
          "midi": 42,
          "time": 71.99989199999992,
          "velocity": 0.6299212598425197,
          "duration": 0.14934188124999537
        },
        {
          "name": "C#3",
          "midi": 49,
          "time": 71.99989199999992,
          "velocity": 0.6299212598425197,
          "duration": 0.14934188124999537
        },
        {
          "name": "F#2",
          "midi": 42,
          "time": 72.47357549999991,
          "velocity": 0.6299212598425197,
          "duration": 0.14934188124999537
        },
        {
          "name": "C#3",
          "midi": 49,
          "time": 72.47357549999991,
          "velocity": 0.6299212598425197,
          "duration": 0.14934188124999537
        },
        {
          "name": "F#2",
          "midi": 42,
          "time": 72.9472589999999,
          "velocity": 0.6299212598425197,
          "duration": 0.14934188124999537
        },
        {
          "name": "C#3",
          "midi": 49,
          "time": 72.9472589999999,
          "velocity": 0.6299212598425197,
          "duration": 0.14934188124999537
        },
        {
          "name": "A2",
          "midi": 45,
          "time": 73.2630479999999,
          "velocity": 0.6299212598425197,
          "duration": 0.14934188124999537
        },
        {
          "name": "E3",
          "midi": 52,
          "time": 73.2630479999999,
          "velocity": 0.6299212598425197,
          "duration": 0.14934188124999537
        },
        {
          "name": "A2",
          "midi": 45,
          "time": 73.73673149999989,
          "velocity": 0.6299212598425197,
          "duration": 0.14934188124999537
        },
        {
          "name": "E3",
          "midi": 52,
          "time": 73.73673149999989,
          "velocity": 0.6299212598425197,
          "duration": 0.14934188124999537
        },
        {
          "name": "A2",
          "midi": 45,
          "time": 74.21041499999988,
          "velocity": 0.6299212598425197,
          "duration": 0.14934188124999537
        },
        {
          "name": "E3",
          "midi": 52,
          "time": 74.21041499999988,
          "velocity": 0.6299212598425197,
          "duration": 0.14934188124999537
        },
        {
          "name": "B2",
          "midi": 47,
          "time": 74.52620399999988,
          "velocity": 0.6299212598425197,
          "duration": 0.14934188124999537
        },
        {
          "name": "F#3",
          "midi": 54,
          "time": 74.52620399999988,
          "velocity": 0.6299212598425197,
          "duration": 0.14934188124999537
        },
        {
          "name": "B2",
          "midi": 47,
          "time": 74.99988749999987,
          "velocity": 0.6299212598425197,
          "duration": 0.14934188124999537
        },
        {
          "name": "F#3",
          "midi": 54,
          "time": 74.99988749999987,
          "velocity": 0.6299212598425197,
          "duration": 0.14934188124999537
        },
        {
          "name": "B2",
          "midi": 47,
          "time": 75.47357099999986,
          "velocity": 0.6299212598425197,
          "duration": 0.14934188124999537
        },
        {
          "name": "F#3",
          "midi": 54,
          "time": 75.47357099999986,
          "velocity": 0.6299212598425197,
          "duration": 0.14934188124999537
        },
        {
          "name": "C#3",
          "midi": 49,
          "time": 75.78935999999986,
          "velocity": 0.6299212598425197,
          "duration": 0.14934188124999537
        },
        {
          "name": "G#3",
          "midi": 56,
          "time": 75.78935999999986,
          "velocity": 0.6299212598425197,
          "duration": 0.14934188124999537
        },
        {
          "name": "C#3",
          "midi": 49,
          "time": 76.26304349999985,
          "velocity": 0.6299212598425197,
          "duration": 0.14934188124999537
        },
        {
          "name": "G#3",
          "midi": 56,
          "time": 76.26304349999985,
          "velocity": 0.6299212598425197,
          "duration": 0.14934188124999537
        },
        {
          "name": "C#3",
          "midi": 49,
          "time": 76.73672699999985,
          "velocity": 0.6299212598425197,
          "duration": 0.14934188124999537
        },
        {
          "name": "G#3",
          "midi": 56,
          "time": 76.73672699999985,
          "velocity": 0.6299212598425197,
          "duration": 0.14934188124999537
        },
        {
          "name": "F#2",
          "midi": 42,
          "time": 77.05251599999984,
          "velocity": 0.6299212598425197,
          "duration": 0.14934188124999537
        },
        {
          "name": "C#3",
          "midi": 49,
          "time": 77.05251599999984,
          "velocity": 0.6299212598425197,
          "duration": 0.14934188124999537
        },
        {
          "name": "F#2",
          "midi": 42,
          "time": 77.52619949999983,
          "velocity": 0.6299212598425197,
          "duration": 0.14934188124999537
        },
        {
          "name": "C#3",
          "midi": 49,
          "time": 77.52619949999983,
          "velocity": 0.6299212598425197,
          "duration": 0.14934188124999537
        },
        {
          "name": "F#2",
          "midi": 42,
          "time": 77.99988299999983,
          "velocity": 0.6299212598425197,
          "duration": 0.14934188124999537
        },
        {
          "name": "C#3",
          "midi": 49,
          "time": 77.99988299999983,
          "velocity": 0.6299212598425197,
          "duration": 0.14934188124999537
        },
        {
          "name": "A2",
          "midi": 45,
          "time": 78.31567199999982,
          "velocity": 0.6299212598425197,
          "duration": 0.14934188124999537
        },
        {
          "name": "E3",
          "midi": 52,
          "time": 78.31567199999982,
          "velocity": 0.6299212598425197,
          "duration": 0.14934188124999537
        },
        {
          "name": "A2",
          "midi": 45,
          "time": 78.78935549999981,
          "velocity": 0.6299212598425197,
          "duration": 0.14934188124999537
        },
        {
          "name": "E3",
          "midi": 52,
          "time": 78.78935549999981,
          "velocity": 0.6299212598425197,
          "duration": 0.14934188124999537
        },
        {
          "name": "A2",
          "midi": 45,
          "time": 79.26303899999981,
          "velocity": 0.6299212598425197,
          "duration": 0.14934188124999537
        },
        {
          "name": "E3",
          "midi": 52,
          "time": 79.26303899999981,
          "velocity": 0.6299212598425197,
          "duration": 0.14934188124999537
        },
        {
          "name": "B2",
          "midi": 47,
          "time": 79.5788279999998,
          "velocity": 0.6299212598425197,
          "duration": 0.14934188124999537
        },
        {
          "name": "F#3",
          "midi": 54,
          "time": 79.5788279999998,
          "velocity": 0.6299212598425197,
          "duration": 0.14934188124999537
        },
        {
          "name": "B2",
          "midi": 47,
          "time": 80.0525114999998,
          "velocity": 0.6299212598425197,
          "duration": 0.14934188124999537
        },
        {
          "name": "F#3",
          "midi": 54,
          "time": 80.0525114999998,
          "velocity": 0.6299212598425197,
          "duration": 0.14934188124999537
        },
        {
          "name": "B2",
          "midi": 47,
          "time": 80.52619499999979,
          "velocity": 0.6299212598425197,
          "duration": 0.14934188124999537
        },
        {
          "name": "F#3",
          "midi": 54,
          "time": 80.52619499999979,
          "velocity": 0.6299212598425197,
          "duration": 0.14934188124999537
        },
        {
          "name": "C#3",
          "midi": 49,
          "time": 80.84198399999978,
          "velocity": 0.6299212598425197,
          "duration": 0.14934188124999537
        },
        {
          "name": "G#3",
          "midi": 56,
          "time": 80.84198399999978,
          "velocity": 0.6299212598425197,
          "duration": 0.14934188124999537
        },
        {
          "name": "C#3",
          "midi": 49,
          "time": 81.31566749999978,
          "velocity": 0.6299212598425197,
          "duration": 0.14934188124999537
        },
        {
          "name": "G#3",
          "midi": 56,
          "time": 81.31566749999978,
          "velocity": 0.6299212598425197,
          "duration": 0.14934188124999537
        },
        {
          "name": "C#3",
          "midi": 49,
          "time": 81.78935099999977,
          "velocity": 0.6299212598425197,
          "duration": 0.14934188124999537
        },
        {
          "name": "G#3",
          "midi": 56,
          "time": 81.78935099999977,
          "velocity": 0.6299212598425197,
          "duration": 0.14934188124999537
        },
        {
          "name": "F#2",
          "midi": 42,
          "time": 82.10513999999976,
          "velocity": 0.6299212598425197,
          "duration": 0.14934188124999537
        },
        {
          "name": "C#3",
          "midi": 49,
          "time": 82.10513999999976,
          "velocity": 0.6299212598425197,
          "duration": 0.14934188124999537
        },
        {
          "name": "F#2",
          "midi": 42,
          "time": 82.57882349999976,
          "velocity": 0.6299212598425197,
          "duration": 0.14934188124999537
        },
        {
          "name": "C#3",
          "midi": 49,
          "time": 82.57882349999976,
          "velocity": 0.6299212598425197,
          "duration": 0.14934188124999537
        },
        {
          "name": "F#2",
          "midi": 42,
          "time": 83.05250699999975,
          "velocity": 0.6299212598425197,
          "duration": 0.14934188124999537
        },
        {
          "name": "C#3",
          "midi": 49,
          "time": 83.05250699999975,
          "velocity": 0.6299212598425197,
          "duration": 0.14934188124999537
        },
        {
          "name": "A2",
          "midi": 45,
          "time": 83.36829599999975,
          "velocity": 0.6299212598425197,
          "duration": 0.14934188124999537
        },
        {
          "name": "E3",
          "midi": 52,
          "time": 83.36829599999975,
          "velocity": 0.6299212598425197,
          "duration": 0.14934188124999537
        },
        {
          "name": "A2",
          "midi": 45,
          "time": 83.84197949999974,
          "velocity": 0.6299212598425197,
          "duration": 0.14934188124999537
        },
        {
          "name": "E3",
          "midi": 52,
          "time": 83.84197949999974,
          "velocity": 0.6299212598425197,
          "duration": 0.14934188124999537
        },
        {
          "name": "A2",
          "midi": 45,
          "time": 84.31566299999973,
          "velocity": 0.6299212598425197,
          "duration": 0.14934188124999537
        },
        {
          "name": "E3",
          "midi": 52,
          "time": 84.31566299999973,
          "velocity": 0.6299212598425197,
          "duration": 0.14934188124999537
        },
        {
          "name": "B2",
          "midi": 47,
          "time": 84.63145199999973,
          "velocity": 0.6299212598425197,
          "duration": 0.14934188124999537
        },
        {
          "name": "F#3",
          "midi": 54,
          "time": 84.63145199999973,
          "velocity": 0.6299212598425197,
          "duration": 0.14934188124999537
        },
        {
          "name": "B2",
          "midi": 47,
          "time": 85.10513549999972,
          "velocity": 0.6299212598425197,
          "duration": 0.14934188124999537
        },
        {
          "name": "F#3",
          "midi": 54,
          "time": 85.10513549999972,
          "velocity": 0.6299212598425197,
          "duration": 0.14934188124999537
        },
        {
          "name": "B2",
          "midi": 47,
          "time": 85.57881899999971,
          "velocity": 0.6299212598425197,
          "duration": 0.14934188124999537
        },
        {
          "name": "F#3",
          "midi": 54,
          "time": 85.57881899999971,
          "velocity": 0.6299212598425197,
          "duration": 0.14934188124999537
        },
        {
          "name": "C#3",
          "midi": 49,
          "time": 85.8946079999997,
          "velocity": 0.6299212598425197,
          "duration": 0.14934188124999537
        },
        {
          "name": "G#3",
          "midi": 56,
          "time": 85.8946079999997,
          "velocity": 0.6299212598425197,
          "duration": 0.14934188124999537
        },
        {
          "name": "C#3",
          "midi": 49,
          "time": 86.3682914999997,
          "velocity": 0.6299212598425197,
          "duration": 0.14934188124999537
        },
        {
          "name": "G#3",
          "midi": 56,
          "time": 86.3682914999997,
          "velocity": 0.6299212598425197,
          "duration": 0.14934188124999537
        },
        {
          "name": "C#3",
          "midi": 49,
          "time": 86.84197499999969,
          "velocity": 0.6299212598425197,
          "duration": 0.14934188124999537
        },
        {
          "name": "G#3",
          "midi": 56,
          "time": 86.84197499999969,
          "velocity": 0.6299212598425197,
          "duration": 0.14934188124999537
        },
        {
          "name": "F#2",
          "midi": 42,
          "time": 87.15776399999969,
          "velocity": 0.6299212598425197,
          "duration": 0.14934188124999537
        },
        {
          "name": "C#3",
          "midi": 49,
          "time": 87.15776399999969,
          "velocity": 0.6299212598425197,
          "duration": 0.14934188124999537
        },
        {
          "name": "F#2",
          "midi": 42,
          "time": 87.63144749999968,
          "velocity": 0.6299212598425197,
          "duration": 0.14934188124999537
        },
        {
          "name": "C#3",
          "midi": 49,
          "time": 87.63144749999968,
          "velocity": 0.6299212598425197,
          "duration": 0.14934188124999537
        },
        {
          "name": "F#2",
          "midi": 42,
          "time": 88.10513099999967,
          "velocity": 0.6299212598425197,
          "duration": 0.14934188124999537
        },
        {
          "name": "C#3",
          "midi": 49,
          "time": 88.10513099999967,
          "velocity": 0.6299212598425197,
          "duration": 0.14934188124999537
        },
        {
          "name": "A2",
          "midi": 45,
          "time": 88.42091999999967,
          "velocity": 0.6299212598425197,
          "duration": 0.14934188124999537
        },
        {
          "name": "E3",
          "midi": 52,
          "time": 88.42091999999967,
          "velocity": 0.6299212598425197,
          "duration": 0.14934188124999537
        },
        {
          "name": "A2",
          "midi": 45,
          "time": 88.89460349999966,
          "velocity": 0.6299212598425197,
          "duration": 0.14934188124999537
        },
        {
          "name": "E3",
          "midi": 52,
          "time": 88.89460349999966,
          "velocity": 0.6299212598425197,
          "duration": 0.14934188124999537
        },
        {
          "name": "A2",
          "midi": 45,
          "time": 89.36828699999965,
          "velocity": 0.6299212598425197,
          "duration": 0.14934188124999537
        },
        {
          "name": "E3",
          "midi": 52,
          "time": 89.36828699999965,
          "velocity": 0.6299212598425197,
          "duration": 0.14934188124999537
        },
        {
          "name": "B2",
          "midi": 47,
          "time": 89.68407599999965,
          "velocity": 0.6299212598425197,
          "duration": 0.14934188124999537
        },
        {
          "name": "F#3",
          "midi": 54,
          "time": 89.68407599999965,
          "velocity": 0.6299212598425197,
          "duration": 0.14934188124999537
        },
        {
          "name": "B2",
          "midi": 47,
          "time": 90.15775949999964,
          "velocity": 0.6299212598425197,
          "duration": 0.14934188124999537
        },
        {
          "name": "F#3",
          "midi": 54,
          "time": 90.15775949999964,
          "velocity": 0.6299212598425197,
          "duration": 0.14934188124999537
        },
        {
          "name": "B2",
          "midi": 47,
          "time": 90.63144299999963,
          "velocity": 0.6299212598425197,
          "duration": 0.14934188124999537
        },
        {
          "name": "F#3",
          "midi": 54,
          "time": 90.63144299999963,
          "velocity": 0.6299212598425197,
          "duration": 0.14934188124999537
        },
        {
          "name": "C#3",
          "midi": 49,
          "time": 90.94723199999963,
          "velocity": 0.6299212598425197,
          "duration": 0.14934188124999537
        },
        {
          "name": "G#3",
          "midi": 56,
          "time": 90.94723199999963,
          "velocity": 0.6299212598425197,
          "duration": 0.14934188124999537
        },
        {
          "name": "C#3",
          "midi": 49,
          "time": 91.42091549999962,
          "velocity": 0.6299212598425197,
          "duration": 0.14934188124999537
        },
        {
          "name": "G#3",
          "midi": 56,
          "time": 91.42091549999962,
          "velocity": 0.6299212598425197,
          "duration": 0.14934188124999537
        },
        {
          "name": "C#3",
          "midi": 49,
          "time": 91.89459899999962,
          "velocity": 0.6299212598425197,
          "duration": 0.14934188124999537
        },
        {
          "name": "G#3",
          "midi": 56,
          "time": 91.89459899999962,
          "velocity": 0.6299212598425197,
          "duration": 0.14934188124999537
        },
        {
          "name": "F#2",
          "midi": 42,
          "time": 92.21038799999961,
          "velocity": 0.6299212598425197,
          "duration": 0.14934188124999537
        },
        {
          "name": "C#3",
          "midi": 49,
          "time": 92.21038799999961,
          "velocity": 0.6299212598425197,
          "duration": 0.14934188124999537
        },
        {
          "name": "F#2",
          "midi": 42,
          "time": 92.6840714999996,
          "velocity": 0.6299212598425197,
          "duration": 0.14934188124999537
        },
        {
          "name": "C#3",
          "midi": 49,
          "time": 92.6840714999996,
          "velocity": 0.6299212598425197,
          "duration": 0.14934188124999537
        },
        {
          "name": "F#2",
          "midi": 42,
          "time": 93.1577549999996,
          "velocity": 0.6299212598425197,
          "duration": 0.14934188124999537
        },
        {
          "name": "C#3",
          "midi": 49,
          "time": 93.1577549999996,
          "velocity": 0.6299212598425197,
          "duration": 0.14934188124999537
        },
        {
          "name": "A2",
          "midi": 45,
          "time": 93.47354399999959,
          "velocity": 0.6299212598425197,
          "duration": 0.14934188124999537
        },
        {
          "name": "E3",
          "midi": 52,
          "time": 93.47354399999959,
          "velocity": 0.6299212598425197,
          "duration": 0.14934188124999537
        },
        {
          "name": "A2",
          "midi": 45,
          "time": 93.94722749999958,
          "velocity": 0.6299212598425197,
          "duration": 0.14934188124999537
        },
        {
          "name": "E3",
          "midi": 52,
          "time": 93.94722749999958,
          "velocity": 0.6299212598425197,
          "duration": 0.14934188124999537
        },
        {
          "name": "A2",
          "midi": 45,
          "time": 94.42091099999958,
          "velocity": 0.6299212598425197,
          "duration": 0.14934188124999537
        },
        {
          "name": "E3",
          "midi": 52,
          "time": 94.42091099999958,
          "velocity": 0.6299212598425197,
          "duration": 0.14934188124999537
        },
        {
          "name": "B2",
          "midi": 47,
          "time": 94.73669999999957,
          "velocity": 0.6299212598425197,
          "duration": 0.14934188124999537
        },
        {
          "name": "F#3",
          "midi": 54,
          "time": 94.73669999999957,
          "velocity": 0.6299212598425197,
          "duration": 0.14934188124999537
        },
        {
          "name": "B2",
          "midi": 47,
          "time": 95.21038349999957,
          "velocity": 0.6299212598425197,
          "duration": 0.14934188124999537
        },
        {
          "name": "F#3",
          "midi": 54,
          "time": 95.21038349999957,
          "velocity": 0.6299212598425197,
          "duration": 0.14934188124999537
        },
        {
          "name": "B2",
          "midi": 47,
          "time": 95.68406699999956,
          "velocity": 0.6299212598425197,
          "duration": 0.14934188124999537
        },
        {
          "name": "F#3",
          "midi": 54,
          "time": 95.68406699999956,
          "velocity": 0.6299212598425197,
          "duration": 0.14934188124999537
        },
        {
          "name": "C#3",
          "midi": 49,
          "time": 95.99985599999955,
          "velocity": 0.6299212598425197,
          "duration": 0.14934188124999537
        },
        {
          "name": "G#3",
          "midi": 56,
          "time": 95.99985599999955,
          "velocity": 0.6299212598425197,
          "duration": 0.14934188124999537
        },
        {
          "name": "C#3",
          "midi": 49,
          "time": 96.47353949999955,
          "velocity": 0.6299212598425197,
          "duration": 0.14934188124999537
        },
        {
          "name": "G#3",
          "midi": 56,
          "time": 96.47353949999955,
          "velocity": 0.6299212598425197,
          "duration": 0.14934188124999537
        },
        {
          "name": "C#3",
          "midi": 49,
          "time": 96.94722299999954,
          "velocity": 0.6299212598425197,
          "duration": 0.14934188124999537
        },
        {
          "name": "G#3",
          "midi": 56,
          "time": 96.94722299999954,
          "velocity": 0.6299212598425197,
          "duration": 0.14934188124999537
        },
        {
          "name": "F#2",
          "midi": 42,
          "time": 97.26301199999953,
          "velocity": 0.6299212598425197,
          "duration": 0.14934188124999537
        },
        {
          "name": "C#3",
          "midi": 49,
          "time": 97.26301199999953,
          "velocity": 0.6299212598425197,
          "duration": 0.14934188124999537
        },
        {
          "name": "F#2",
          "midi": 42,
          "time": 97.73669549999953,
          "velocity": 0.6299212598425197,
          "duration": 0.14934188124999537
        },
        {
          "name": "C#3",
          "midi": 49,
          "time": 97.73669549999953,
          "velocity": 0.6299212598425197,
          "duration": 0.14934188124999537
        },
        {
          "name": "F#2",
          "midi": 42,
          "time": 98.21037899999952,
          "velocity": 0.6299212598425197,
          "duration": 0.14934188124999537
        },
        {
          "name": "C#3",
          "midi": 49,
          "time": 98.21037899999952,
          "velocity": 0.6299212598425197,
          "duration": 0.14934188124999537
        },
        {
          "name": "A2",
          "midi": 45,
          "time": 98.52616799999952,
          "velocity": 0.6299212598425197,
          "duration": 0.14934188124999537
        },
        {
          "name": "E3",
          "midi": 52,
          "time": 98.52616799999952,
          "velocity": 0.6299212598425197,
          "duration": 0.14934188124999537
        },
        {
          "name": "A2",
          "midi": 45,
          "time": 98.99985149999951,
          "velocity": 0.6299212598425197,
          "duration": 0.14934188124999537
        },
        {
          "name": "E3",
          "midi": 52,
          "time": 98.99985149999951,
          "velocity": 0.6299212598425197,
          "duration": 0.14934188124999537
        },
        {
          "name": "A2",
          "midi": 45,
          "time": 99.4735349999995,
          "velocity": 0.6299212598425197,
          "duration": 0.14934188124999537
        },
        {
          "name": "E3",
          "midi": 52,
          "time": 99.4735349999995,
          "velocity": 0.6299212598425197,
          "duration": 0.14934188124999537
        },
        {
          "name": "B2",
          "midi": 47,
          "time": 99.7893239999995,
          "velocity": 0.6299212598425197,
          "duration": 0.14934188124999537
        },
        {
          "name": "F#3",
          "midi": 54,
          "time": 99.7893239999995,
          "velocity": 0.6299212598425197,
          "duration": 0.14934188124999537
        },
        {
          "name": "B2",
          "midi": 47,
          "time": 100.26300749999949,
          "velocity": 0.6299212598425197,
          "duration": 0.14934188124999537
        },
        {
          "name": "F#3",
          "midi": 54,
          "time": 100.26300749999949,
          "velocity": 0.6299212598425197,
          "duration": 0.14934188124999537
        },
        {
          "name": "B2",
          "midi": 47,
          "time": 100.73669099999948,
          "velocity": 0.6299212598425197,
          "duration": 0.14934188124999537
        },
        {
          "name": "F#3",
          "midi": 54,
          "time": 100.73669099999948,
          "velocity": 0.6299212598425197,
          "duration": 0.14934188124999537
        },
        {
          "name": "C#3",
          "midi": 49,
          "time": 101.05247999999948,
          "velocity": 0.6299212598425197,
          "duration": 0.14934188124999537
        },
        {
          "name": "G#3",
          "midi": 56,
          "time": 101.05247999999948,
          "velocity": 0.6299212598425197,
          "duration": 0.14934188124999537
        },
        {
          "name": "C#3",
          "midi": 49,
          "time": 101.52616349999947,
          "velocity": 0.6299212598425197,
          "duration": 0.14934188124999537
        },
        {
          "name": "G#3",
          "midi": 56,
          "time": 101.52616349999947,
          "velocity": 0.6299212598425197,
          "duration": 0.14934188124999537
        },
        {
          "name": "C#3",
          "midi": 49,
          "time": 101.99984699999946,
          "velocity": 0.6299212598425197,
          "duration": 0.14934188124999537
        },
        {
          "name": "G#3",
          "midi": 56,
          "time": 101.99984699999946,
          "velocity": 0.6299212598425197,
          "duration": 0.14934188124999537
        },
        {
          "name": "F#2",
          "midi": 42,
          "time": 102.31563599999946,
          "velocity": 0.6299212598425197,
          "duration": 0.14934188124999537
        },
        {
          "name": "C#3",
          "midi": 49,
          "time": 102.31563599999946,
          "velocity": 0.6299212598425197,
          "duration": 0.14934188124999537
        },
        {
          "name": "F#2",
          "midi": 42,
          "time": 102.78931949999945,
          "velocity": 0.6299212598425197,
          "duration": 0.14934188124999537
        },
        {
          "name": "C#3",
          "midi": 49,
          "time": 102.78931949999945,
          "velocity": 0.6299212598425197,
          "duration": 0.14934188124999537
        },
        {
          "name": "F#2",
          "midi": 42,
          "time": 103.26300299999944,
          "velocity": 0.6299212598425197,
          "duration": 0.14934188124999537
        },
        {
          "name": "C#3",
          "midi": 49,
          "time": 103.26300299999944,
          "velocity": 0.6299212598425197,
          "duration": 0.14934188124999537
        },
        {
          "name": "A2",
          "midi": 45,
          "time": 103.57879199999944,
          "velocity": 0.6299212598425197,
          "duration": 0.14934188124999537
        },
        {
          "name": "E3",
          "midi": 52,
          "time": 103.57879199999944,
          "velocity": 0.6299212598425197,
          "duration": 0.14934188124999537
        },
        {
          "name": "A2",
          "midi": 45,
          "time": 104.05247549999943,
          "velocity": 0.6299212598425197,
          "duration": 0.14934188124999537
        },
        {
          "name": "E3",
          "midi": 52,
          "time": 104.05247549999943,
          "velocity": 0.6299212598425197,
          "duration": 0.14934188124999537
        },
        {
          "name": "A2",
          "midi": 45,
          "time": 104.52615899999942,
          "velocity": 0.6299212598425197,
          "duration": 0.14934188124999537
        },
        {
          "name": "E3",
          "midi": 52,
          "time": 104.52615899999942,
          "velocity": 0.6299212598425197,
          "duration": 0.14934188124999537
        },
        {
          "name": "B2",
          "midi": 47,
          "time": 104.84194799999942,
          "velocity": 0.6299212598425197,
          "duration": 0.14934188124999537
        },
        {
          "name": "F#3",
          "midi": 54,
          "time": 104.84194799999942,
          "velocity": 0.6299212598425197,
          "duration": 0.14934188124999537
        },
        {
          "name": "B2",
          "midi": 47,
          "time": 105.31563149999941,
          "velocity": 0.6299212598425197,
          "duration": 0.14934188124999537
        },
        {
          "name": "F#3",
          "midi": 54,
          "time": 105.31563149999941,
          "velocity": 0.6299212598425197,
          "duration": 0.14934188124999537
        },
        {
          "name": "B2",
          "midi": 47,
          "time": 105.7893149999994,
          "velocity": 0.6299212598425197,
          "duration": 0.14934188124999537
        },
        {
          "name": "F#3",
          "midi": 54,
          "time": 105.7893149999994,
          "velocity": 0.6299212598425197,
          "duration": 0.14934188124999537
        },
        {
          "name": "C#3",
          "midi": 49,
          "time": 106.1051039999994,
          "velocity": 0.6299212598425197,
          "duration": 0.14934188124999537
        },
        {
          "name": "G#3",
          "midi": 56,
          "time": 106.1051039999994,
          "velocity": 0.6299212598425197,
          "duration": 0.14934188124999537
        },
        {
          "name": "C#3",
          "midi": 49,
          "time": 106.5787874999994,
          "velocity": 0.6299212598425197,
          "duration": 0.14934188124999537
        },
        {
          "name": "G#3",
          "midi": 56,
          "time": 106.5787874999994,
          "velocity": 0.6299212598425197,
          "duration": 0.14934188124999537
        },
        {
          "name": "C#3",
          "midi": 49,
          "time": 107.05247099999939,
          "velocity": 0.6299212598425197,
          "duration": 0.14934188124999537
        },
        {
          "name": "G#3",
          "midi": 56,
          "time": 107.05247099999939,
          "velocity": 0.6299212598425197,
          "duration": 0.14934188124999537
        },
        {
          "name": "F#2",
          "midi": 42,
          "time": 107.36825999999938,
          "velocity": 0.6299212598425197,
          "duration": 0.14934188124999537
        },
        {
          "name": "C#3",
          "midi": 49,
          "time": 107.36825999999938,
          "velocity": 0.6299212598425197,
          "duration": 0.14934188124999537
        },
        {
          "name": "F#2",
          "midi": 42,
          "time": 107.84194349999937,
          "velocity": 0.6299212598425197,
          "duration": 0.14934188124999537
        },
        {
          "name": "C#3",
          "midi": 49,
          "time": 107.84194349999937,
          "velocity": 0.6299212598425197,
          "duration": 0.14934188124999537
        },
        {
          "name": "F#2",
          "midi": 42,
          "time": 108.31562699999937,
          "velocity": 0.6299212598425197,
          "duration": 0.14934188124999537
        },
        {
          "name": "C#3",
          "midi": 49,
          "time": 108.31562699999937,
          "velocity": 0.6299212598425197,
          "duration": 0.14934188124999537
        },
        {
          "name": "A2",
          "midi": 45,
          "time": 108.63141599999936,
          "velocity": 0.6299212598425197,
          "duration": 0.14934188124999537
        },
        {
          "name": "E3",
          "midi": 52,
          "time": 108.63141599999936,
          "velocity": 0.6299212598425197,
          "duration": 0.14934188124999537
        },
        {
          "name": "A2",
          "midi": 45,
          "time": 109.10509949999935,
          "velocity": 0.6299212598425197,
          "duration": 0.14934188124999537
        },
        {
          "name": "E3",
          "midi": 52,
          "time": 109.10509949999935,
          "velocity": 0.6299212598425197,
          "duration": 0.14934188124999537
        },
        {
          "name": "A2",
          "midi": 45,
          "time": 109.57878299999935,
          "velocity": 0.6299212598425197,
          "duration": 0.14934188124999537
        },
        {
          "name": "E3",
          "midi": 52,
          "time": 109.57878299999935,
          "velocity": 0.6299212598425197,
          "duration": 0.14934188124999537
        },
        {
          "name": "B2",
          "midi": 47,
          "time": 109.89457199999934,
          "velocity": 0.6299212598425197,
          "duration": 0.14934188124999537
        },
        {
          "name": "F#3",
          "midi": 54,
          "time": 109.89457199999934,
          "velocity": 0.6299212598425197,
          "duration": 0.14934188124999537
        },
        {
          "name": "B2",
          "midi": 47,
          "time": 110.36825549999934,
          "velocity": 0.6299212598425197,
          "duration": 0.14934188124999537
        },
        {
          "name": "F#3",
          "midi": 54,
          "time": 110.36825549999934,
          "velocity": 0.6299212598425197,
          "duration": 0.14934188124999537
        },
        {
          "name": "B2",
          "midi": 47,
          "time": 110.84193899999933,
          "velocity": 0.6299212598425197,
          "duration": 0.14934188124999537
        },
        {
          "name": "F#3",
          "midi": 54,
          "time": 110.84193899999933,
          "velocity": 0.6299212598425197,
          "duration": 0.14934188124999537
        },
        {
          "name": "C#3",
          "midi": 49,
          "time": 111.15772799999932,
          "velocity": 0.6299212598425197,
          "duration": 0.14934188124999537
        },
        {
          "name": "G#3",
          "midi": 56,
          "time": 111.15772799999932,
          "velocity": 0.6299212598425197,
          "duration": 0.14934188124999537
        },
        {
          "name": "C#3",
          "midi": 49,
          "time": 111.63141149999932,
          "velocity": 0.6299212598425197,
          "duration": 0.14934188124999537
        },
        {
          "name": "G#3",
          "midi": 56,
          "time": 111.63141149999932,
          "velocity": 0.6299212598425197,
          "duration": 0.14934188124999537
        },
        {
          "name": "C#3",
          "midi": 49,
          "time": 112.10509499999931,
          "velocity": 0.6299212598425197,
          "duration": 0.14934188124999537
        },
        {
          "name": "G#3",
          "midi": 56,
          "time": 112.10509499999931,
          "velocity": 0.6299212598425197,
          "duration": 0.14934188124999537
        },
        {
          "name": "F#2",
          "midi": 42,
          "time": 112.4208839999993,
          "velocity": 0.6299212598425197,
          "duration": 0.14934188124999537
        },
        {
          "name": "C#3",
          "midi": 49,
          "time": 112.4208839999993,
          "velocity": 0.6299212598425197,
          "duration": 0.14934188124999537
        },
        {
          "name": "F#2",
          "midi": 42,
          "time": 112.8945674999993,
          "velocity": 0.6299212598425197,
          "duration": 0.14934188124999537
        },
        {
          "name": "C#3",
          "midi": 49,
          "time": 112.8945674999993,
          "velocity": 0.6299212598425197,
          "duration": 0.14934188124999537
        },
        {
          "name": "F#2",
          "midi": 42,
          "time": 113.36825099999929,
          "velocity": 0.6299212598425197,
          "duration": 0.14934188124999537
        },
        {
          "name": "C#3",
          "midi": 49,
          "time": 113.36825099999929,
          "velocity": 0.6299212598425197,
          "duration": 0.14934188124999537
        },
        {
          "name": "A2",
          "midi": 45,
          "time": 113.68403999999929,
          "velocity": 0.6299212598425197,
          "duration": 0.14934188124999537
        },
        {
          "name": "E3",
          "midi": 52,
          "time": 113.68403999999929,
          "velocity": 0.6299212598425197,
          "duration": 0.14934188124999537
        },
        {
          "name": "A2",
          "midi": 45,
          "time": 114.15772349999928,
          "velocity": 0.6299212598425197,
          "duration": 0.14934188124999537
        },
        {
          "name": "E3",
          "midi": 52,
          "time": 114.15772349999928,
          "velocity": 0.6299212598425197,
          "duration": 0.14934188124999537
        },
        {
          "name": "A2",
          "midi": 45,
          "time": 114.63140699999927,
          "velocity": 0.6299212598425197,
          "duration": 0.14934188124999537
        },
        {
          "name": "E3",
          "midi": 52,
          "time": 114.63140699999927,
          "velocity": 0.6299212598425197,
          "duration": 0.14934188124999537
        },
        {
          "name": "B2",
          "midi": 47,
          "time": 114.94719599999927,
          "velocity": 0.6299212598425197,
          "duration": 0.14934188124999537
        },
        {
          "name": "F#3",
          "midi": 54,
          "time": 114.94719599999927,
          "velocity": 0.6299212598425197,
          "duration": 0.14934188124999537
        },
        {
          "name": "B2",
          "midi": 47,
          "time": 115.42087949999926,
          "velocity": 0.6299212598425197,
          "duration": 0.14934188124999537
        },
        {
          "name": "F#3",
          "midi": 54,
          "time": 115.42087949999926,
          "velocity": 0.6299212598425197,
          "duration": 0.14934188124999537
        },
        {
          "name": "B2",
          "midi": 47,
          "time": 115.89456299999925,
          "velocity": 0.6299212598425197,
          "duration": 0.14934188124999537
        },
        {
          "name": "F#3",
          "midi": 54,
          "time": 115.89456299999925,
          "velocity": 0.6299212598425197,
          "duration": 0.14934188124999537
        },
        {
          "name": "C#3",
          "midi": 49,
          "time": 116.21035199999925,
          "velocity": 0.6299212598425197,
          "duration": 0.14934188124999537
        },
        {
          "name": "G#3",
          "midi": 56,
          "time": 116.21035199999925,
          "velocity": 0.6299212598425197,
          "duration": 0.14934188124999537
        },
        {
          "name": "C#3",
          "midi": 49,
          "time": 116.68403549999924,
          "velocity": 0.6299212598425197,
          "duration": 0.14934188124999537
        },
        {
          "name": "G#3",
          "midi": 56,
          "time": 116.68403549999924,
          "velocity": 0.6299212598425197,
          "duration": 0.14934188124999537
        },
        {
          "name": "C#3",
          "midi": 49,
          "time": 117.15771899999923,
          "velocity": 0.6299212598425197,
          "duration": 0.14934188124999537
        },
        {
          "name": "G#3",
          "midi": 56,
          "time": 117.15771899999923,
          "velocity": 0.6299212598425197,
          "duration": 0.14934188124999537
        },
        {
          "name": "F#2",
          "midi": 42,
          "time": 117.47350799999923,
          "velocity": 0.6299212598425197,
          "duration": 0.14934188124999537
        },
        {
          "name": "C#3",
          "midi": 49,
          "time": 117.47350799999923,
          "velocity": 0.6299212598425197,
          "duration": 0.14934188124999537
        },
        {
          "name": "F#2",
          "midi": 42,
          "time": 117.94719149999922,
          "velocity": 0.6299212598425197,
          "duration": 0.14934188124999537
        },
        {
          "name": "C#3",
          "midi": 49,
          "time": 117.94719149999922,
          "velocity": 0.6299212598425197,
          "duration": 0.14934188124999537
        },
        {
          "name": "F#2",
          "midi": 42,
          "time": 118.42087499999921,
          "velocity": 0.6299212598425197,
          "duration": 0.14934188124999537
        },
        {
          "name": "C#3",
          "midi": 49,
          "time": 118.42087499999921,
          "velocity": 0.6299212598425197,
          "duration": 0.14934188124999537
        },
        {
          "name": "A2",
          "midi": 45,
          "time": 118.73666399999921,
          "velocity": 0.6299212598425197,
          "duration": 0.14934188124999537
        },
        {
          "name": "E3",
          "midi": 52,
          "time": 118.73666399999921,
          "velocity": 0.6299212598425197,
          "duration": 0.14934188124999537
        },
        {
          "name": "A2",
          "midi": 45,
          "time": 119.2103474999992,
          "velocity": 0.6299212598425197,
          "duration": 0.14934188124999537
        },
        {
          "name": "E3",
          "midi": 52,
          "time": 119.2103474999992,
          "velocity": 0.6299212598425197,
          "duration": 0.14934188124999537
        },
        {
          "name": "A2",
          "midi": 45,
          "time": 119.6840309999992,
          "velocity": 0.6299212598425197,
          "duration": 0.14934188124999537
        },
        {
          "name": "E3",
          "midi": 52,
          "time": 119.6840309999992,
          "velocity": 0.6299212598425197,
          "duration": 0.14934188124999537
        },
        {
          "name": "B2",
          "midi": 47,
          "time": 119.99981999999919,
          "velocity": 0.6299212598425197,
          "duration": 0.14934188124999537
        },
        {
          "name": "F#3",
          "midi": 54,
          "time": 119.99981999999919,
          "velocity": 0.6299212598425197,
          "duration": 0.14934188124999537
        },
        {
          "name": "B2",
          "midi": 47,
          "time": 120.47350349999918,
          "velocity": 0.6299212598425197,
          "duration": 0.14934188124999537
        },
        {
          "name": "F#3",
          "midi": 54,
          "time": 120.47350349999918,
          "velocity": 0.6299212598425197,
          "duration": 0.14934188124999537
        },
        {
          "name": "B2",
          "midi": 47,
          "time": 120.94718699999918,
          "velocity": 0.6299212598425197,
          "duration": 0.14934188124999537
        },
        {
          "name": "F#3",
          "midi": 54,
          "time": 120.94718699999918,
          "velocity": 0.6299212598425197,
          "duration": 0.14934188124999537
        },
        {
          "name": "C#3",
          "midi": 49,
          "time": 121.26297599999917,
          "velocity": 0.6299212598425197,
          "duration": 0.14934188124999537
        },
        {
          "name": "G#3",
          "midi": 56,
          "time": 121.26297599999917,
          "velocity": 0.6299212598425197,
          "duration": 0.14934188124999537
        },
        {
          "name": "C#3",
          "midi": 49,
          "time": 121.73665949999916,
          "velocity": 0.6299212598425197,
          "duration": 0.14934188124999537
        },
        {
          "name": "G#3",
          "midi": 56,
          "time": 121.73665949999916,
          "velocity": 0.6299212598425197,
          "duration": 0.14934188124999537
        },
        {
          "name": "C#3",
          "midi": 49,
          "time": 122.21034299999916,
          "velocity": 0.6299212598425197,
          "duration": 0.14934188124999537
        },
        {
          "name": "G#3",
          "midi": 56,
          "time": 122.21034299999916,
          "velocity": 0.6299212598425197,
          "duration": 0.14934188124999537
        },
        {
          "name": "F#2",
          "midi": 42,
          "time": 122.52613199999915,
          "velocity": 0.6299212598425197,
          "duration": 0.14934188124999537
        },
        {
          "name": "C#3",
          "midi": 49,
          "time": 122.52613199999915,
          "velocity": 0.6299212598425197,
          "duration": 0.14934188124999537
        },
        {
          "name": "F#2",
          "midi": 42,
          "time": 122.99981549999914,
          "velocity": 0.6299212598425197,
          "duration": 0.14934188124999537
        },
        {
          "name": "C#3",
          "midi": 49,
          "time": 122.99981549999914,
          "velocity": 0.6299212598425197,
          "duration": 0.14934188124999537
        },
        {
          "name": "F#2",
          "midi": 42,
          "time": 123.47349899999914,
          "velocity": 0.6299212598425197,
          "duration": 0.14934188124999537
        },
        {
          "name": "C#3",
          "midi": 49,
          "time": 123.47349899999914,
          "velocity": 0.6299212598425197,
          "duration": 0.14934188124999537
        },
        {
          "name": "A2",
          "midi": 45,
          "time": 123.78928799999913,
          "velocity": 0.6299212598425197,
          "duration": 0.14934188124999537
        },
        {
          "name": "E3",
          "midi": 52,
          "time": 123.78928799999913,
          "velocity": 0.6299212598425197,
          "duration": 0.14934188124999537
        },
        {
          "name": "A2",
          "midi": 45,
          "time": 124.26297149999913,
          "velocity": 0.6299212598425197,
          "duration": 0.14934188124999537
        },
        {
          "name": "E3",
          "midi": 52,
          "time": 124.26297149999913,
          "velocity": 0.6299212598425197,
          "duration": 0.14934188124999537
        },
        {
          "name": "A2",
          "midi": 45,
          "time": 124.73665499999912,
          "velocity": 0.6299212598425197,
          "duration": 0.14934188124999537
        },
        {
          "name": "E3",
          "midi": 52,
          "time": 124.73665499999912,
          "velocity": 0.6299212598425197,
          "duration": 0.14934188124999537
        },
        {
          "name": "B2",
          "midi": 47,
          "time": 125.05244399999911,
          "velocity": 0.6299212598425197,
          "duration": 0.14934188124999537
        },
        {
          "name": "F#3",
          "midi": 54,
          "time": 125.05244399999911,
          "velocity": 0.6299212598425197,
          "duration": 0.14934188124999537
        },
        {
          "name": "B2",
          "midi": 47,
          "time": 125.5261274999991,
          "velocity": 0.6299212598425197,
          "duration": 0.14934188124999537
        },
        {
          "name": "F#3",
          "midi": 54,
          "time": 125.5261274999991,
          "velocity": 0.6299212598425197,
          "duration": 0.14934188124999537
        },
        {
          "name": "B2",
          "midi": 47,
          "time": 125.9998109999991,
          "velocity": 0.6299212598425197,
          "duration": 0.14934188124999537
        },
        {
          "name": "F#3",
          "midi": 54,
          "time": 125.9998109999991,
          "velocity": 0.6299212598425197,
          "duration": 0.14934188124999537
        },
        {
          "name": "C#3",
          "midi": 49,
          "time": 126.3155999999991,
          "velocity": 0.6299212598425197,
          "duration": 0.14934188124999537
        },
        {
          "name": "G#3",
          "midi": 56,
          "time": 126.3155999999991,
          "velocity": 0.6299212598425197,
          "duration": 0.14934188124999537
        },
        {
          "name": "C#3",
          "midi": 49,
          "time": 126.78928349999909,
          "velocity": 0.6299212598425197,
          "duration": 0.14934188124999537
        },
        {
          "name": "G#3",
          "midi": 56,
          "time": 126.78928349999909,
          "velocity": 0.6299212598425197,
          "duration": 0.14934188124999537
        },
        {
          "name": "C#3",
          "midi": 49,
          "time": 127.26296699999908,
          "velocity": 0.6299212598425197,
          "duration": 0.14934188124999537
        },
        {
          "name": "G#3",
          "midi": 56,
          "time": 127.26296699999908,
          "velocity": 0.6299212598425197,
          "duration": 0.14934188124999537
        },
        {
          "name": "F#2",
          "midi": 42,
          "time": 127.57875599999907,
          "velocity": 0.6299212598425197,
          "duration": 0.14934188124999537
        },
        {
          "name": "C#3",
          "midi": 49,
          "time": 127.57875599999907,
          "velocity": 0.6299212598425197,
          "duration": 0.14934188124999537
        },
        {
          "name": "F#2",
          "midi": 42,
          "time": 128.05243949999908,
          "velocity": 0.6299212598425197,
          "duration": 0.14934188124999537
        },
        {
          "name": "C#3",
          "midi": 49,
          "time": 128.05243949999908,
          "velocity": 0.6299212598425197,
          "duration": 0.14934188124999537
        },
        {
          "name": "F#2",
          "midi": 42,
          "time": 128.52612299999907,
          "velocity": 0.6299212598425197,
          "duration": 0.14934188124999537
        },
        {
          "name": "C#3",
          "midi": 49,
          "time": 128.52612299999907,
          "velocity": 0.6299212598425197,
          "duration": 0.14934188124999537
        },
        {
          "name": "A2",
          "midi": 45,
          "time": 128.84191199999907,
          "velocity": 0.6299212598425197,
          "duration": 0.14934188124999537
        },
        {
          "name": "E3",
          "midi": 52,
          "time": 128.84191199999907,
          "velocity": 0.6299212598425197,
          "duration": 0.14934188124999537
        },
        {
          "name": "A2",
          "midi": 45,
          "time": 129.31559549999906,
          "velocity": 0.6299212598425197,
          "duration": 0.14934188124999537
        },
        {
          "name": "E3",
          "midi": 52,
          "time": 129.31559549999906,
          "velocity": 0.6299212598425197,
          "duration": 0.14934188124999537
        },
        {
          "name": "A2",
          "midi": 45,
          "time": 129.78927899999906,
          "velocity": 0.6299212598425197,
          "duration": 0.14934188124999537
        },
        {
          "name": "E3",
          "midi": 52,
          "time": 129.78927899999906,
          "velocity": 0.6299212598425197,
          "duration": 0.14934188124999537
        },
        {
          "name": "B2",
          "midi": 47,
          "time": 130.10506799999905,
          "velocity": 0.6299212598425197,
          "duration": 0.14934188124999537
        },
        {
          "name": "F#3",
          "midi": 54,
          "time": 130.10506799999905,
          "velocity": 0.6299212598425197,
          "duration": 0.14934188124999537
        },
        {
          "name": "C#3",
          "midi": 49,
          "time": 131.36822399999906,
          "velocity": 0.6299212598425197,
          "duration": 0.14934188124999537
        },
        {
          "name": "G#3",
          "midi": 56,
          "time": 131.36822399999906,
          "velocity": 0.6299212598425197,
          "duration": 0.14934188124999537
        },
        {
          "name": "C#3",
          "midi": 49,
          "time": 131.84190749999905,
          "velocity": 0.6299212598425197,
          "duration": 0.14934188124999537
        },
        {
          "name": "G#3",
          "midi": 56,
          "time": 131.84190749999905,
          "velocity": 0.6299212598425197,
          "duration": 0.14934188124999537
        },
        {
          "name": "C#3",
          "midi": 49,
          "time": 132.31559099999905,
          "velocity": 0.6299212598425197,
          "duration": 0.14934188124999537
        },
        {
          "name": "G#3",
          "midi": 56,
          "time": 132.31559099999905,
          "velocity": 0.6299212598425197,
          "duration": 0.14934188124999537
        },
        {
          "name": "F#2",
          "midi": 42,
          "time": 132.63137999999904,
          "velocity": 0.6299212598425197,
          "duration": 0.14934188124999537
        },
        {
          "name": "C#3",
          "midi": 49,
          "time": 132.63137999999904,
          "velocity": 0.6299212598425197,
          "duration": 0.14934188124999537
        },
        {
          "name": "F#2",
          "midi": 42,
          "time": 133.10506349999903,
          "velocity": 0.6299212598425197,
          "duration": 0.14934188124999537
        },
        {
          "name": "C#3",
          "midi": 49,
          "time": 133.10506349999903,
          "velocity": 0.6299212598425197,
          "duration": 0.14934188124999537
        },
        {
          "name": "F#2",
          "midi": 42,
          "time": 133.57874699999903,
          "velocity": 0.6299212598425197,
          "duration": 0.14934188124999537
        },
        {
          "name": "C#3",
          "midi": 49,
          "time": 133.57874699999903,
          "velocity": 0.6299212598425197,
          "duration": 0.14934188124999537
        },
        {
          "name": "A2",
          "midi": 45,
          "time": 133.89453599999902,
          "velocity": 0.6299212598425197,
          "duration": 0.14934188124999537
        },
        {
          "name": "E3",
          "midi": 52,
          "time": 133.89453599999902,
          "velocity": 0.6299212598425197,
          "duration": 0.14934188124999537
        },
        {
          "name": "A2",
          "midi": 45,
          "time": 134.36821949999901,
          "velocity": 0.6299212598425197,
          "duration": 0.14934188124999537
        },
        {
          "name": "E3",
          "midi": 52,
          "time": 134.36821949999901,
          "velocity": 0.6299212598425197,
          "duration": 0.14934188124999537
        },
        {
          "name": "A2",
          "midi": 45,
          "time": 134.841902999999,
          "velocity": 0.6299212598425197,
          "duration": 0.14934188124999537
        },
        {
          "name": "E3",
          "midi": 52,
          "time": 134.841902999999,
          "velocity": 0.6299212598425197,
          "duration": 0.14934188124999537
        },
        {
          "name": "B2",
          "midi": 47,
          "time": 135.157691999999,
          "velocity": 0.6299212598425197,
          "duration": 0.14934188124999537
        },
        {
          "name": "F#3",
          "midi": 54,
          "time": 135.157691999999,
          "velocity": 0.6299212598425197,
          "duration": 0.14934188124999537
        },
        {
          "name": "B2",
          "midi": 47,
          "time": 135.631375499999,
          "velocity": 0.6299212598425197,
          "duration": 0.14934188124999537
        },
        {
          "name": "F#3",
          "midi": 54,
          "time": 135.631375499999,
          "velocity": 0.6299212598425197,
          "duration": 0.14934188124999537
        },
        {
          "name": "B2",
          "midi": 47,
          "time": 136.105058999999,
          "velocity": 0.6299212598425197,
          "duration": 0.14934188124999537
        },
        {
          "name": "F#3",
          "midi": 54,
          "time": 136.105058999999,
          "velocity": 0.6299212598425197,
          "duration": 0.14934188124999537
        },
        {
          "name": "C#3",
          "midi": 49,
          "time": 136.42084799999898,
          "velocity": 0.6299212598425197,
          "duration": 0.14934188124999537
        },
        {
          "name": "G#3",
          "midi": 56,
          "time": 136.42084799999898,
          "velocity": 0.6299212598425197,
          "duration": 0.14934188124999537
        },
        {
          "name": "C#3",
          "midi": 49,
          "time": 136.89453149999898,
          "velocity": 0.6299212598425197,
          "duration": 0.14934188124999537
        },
        {
          "name": "G#3",
          "midi": 56,
          "time": 136.89453149999898,
          "velocity": 0.6299212598425197,
          "duration": 0.14934188124999537
        },
        {
          "name": "C#3",
          "midi": 49,
          "time": 137.36821499999897,
          "velocity": 0.6299212598425197,
          "duration": 0.14934188124999537
        },
        {
          "name": "G#3",
          "midi": 56,
          "time": 137.36821499999897,
          "velocity": 0.6299212598425197,
          "duration": 0.14934188124999537
        },
        {
          "name": "F#2",
          "midi": 42,
          "time": 137.68400399999896,
          "velocity": 0.6299212598425197,
          "duration": 0.14934188124999537
        },
        {
          "name": "C#3",
          "midi": 49,
          "time": 137.68400399999896,
          "velocity": 0.6299212598425197,
          "duration": 0.14934188124999537
        },
        {
          "name": "F#2",
          "midi": 42,
          "time": 138.15768749999896,
          "velocity": 0.6299212598425197,
          "duration": 0.14934188124999537
        },
        {
          "name": "C#3",
          "midi": 49,
          "time": 138.15768749999896,
          "velocity": 0.6299212598425197,
          "duration": 0.14934188124999537
        },
        {
          "name": "F#2",
          "midi": 42,
          "time": 138.63137099999895,
          "velocity": 0.6299212598425197,
          "duration": 0.14934188124999537
        },
        {
          "name": "C#3",
          "midi": 49,
          "time": 138.63137099999895,
          "velocity": 0.6299212598425197,
          "duration": 0.14934188124999537
        },
        {
          "name": "A2",
          "midi": 45,
          "time": 138.94715999999895,
          "velocity": 0.6299212598425197,
          "duration": 0.14934188124999537
        },
        {
          "name": "E3",
          "midi": 52,
          "time": 138.94715999999895,
          "velocity": 0.6299212598425197,
          "duration": 0.14934188124999537
        },
        {
          "name": "A2",
          "midi": 45,
          "time": 139.42084349999894,
          "velocity": 0.6299212598425197,
          "duration": 0.14934188124999537
        },
        {
          "name": "E3",
          "midi": 52,
          "time": 139.42084349999894,
          "velocity": 0.6299212598425197,
          "duration": 0.14934188124999537
        },
        {
          "name": "A2",
          "midi": 45,
          "time": 139.89452699999893,
          "velocity": 0.6299212598425197,
          "duration": 0.14934188124999537
        },
        {
          "name": "E3",
          "midi": 52,
          "time": 139.89452699999893,
          "velocity": 0.6299212598425197,
          "duration": 0.14934188124999537
        },
        {
          "name": "B2",
          "midi": 47,
          "time": 140.21031599999893,
          "velocity": 0.6299212598425197,
          "duration": 0.14934188124999537
        },
        {
          "name": "F#3",
          "midi": 54,
          "time": 140.21031599999893,
          "velocity": 0.6299212598425197,
          "duration": 0.14934188124999537
        },
        {
          "name": "B2",
          "midi": 47,
          "time": 140.68399949999892,
          "velocity": 0.6299212598425197,
          "duration": 0.14934188124999537
        },
        {
          "name": "F#3",
          "midi": 54,
          "time": 140.68399949999892,
          "velocity": 0.6299212598425197,
          "duration": 0.14934188124999537
        },
        {
          "name": "B2",
          "midi": 47,
          "time": 141.1576829999989,
          "velocity": 0.6299212598425197,
          "duration": 0.14934188124999537
        },
        {
          "name": "F#3",
          "midi": 54,
          "time": 141.1576829999989,
          "velocity": 0.6299212598425197,
          "duration": 0.14934188124999537
        },
        {
          "name": "C#3",
          "midi": 49,
          "time": 141.4734719999989,
          "velocity": 0.6299212598425197,
          "duration": 0.14934188124999537
        },
        {
          "name": "G#3",
          "midi": 56,
          "time": 141.4734719999989,
          "velocity": 0.6299212598425197,
          "duration": 0.14934188124999537
        },
        {
          "name": "C#3",
          "midi": 49,
          "time": 141.9471554999989,
          "velocity": 0.6299212598425197,
          "duration": 0.14934188124999537
        },
        {
          "name": "G#3",
          "midi": 56,
          "time": 141.9471554999989,
          "velocity": 0.6299212598425197,
          "duration": 0.14934188124999537
        },
        {
          "name": "C#3",
          "midi": 49,
          "time": 142.4208389999989,
          "velocity": 0.6299212598425197,
          "duration": 0.14934188124999537
        },
        {
          "name": "G#3",
          "midi": 56,
          "time": 142.4208389999989,
          "velocity": 0.6299212598425197,
          "duration": 0.14934188124999537
        },
        {
          "name": "F#2",
          "midi": 42,
          "time": 142.7366279999989,
          "velocity": 0.6299212598425197,
          "duration": 0.14934188124999537
        },
        {
          "name": "C#3",
          "midi": 49,
          "time": 142.7366279999989,
          "velocity": 0.6299212598425197,
          "duration": 0.14934188124999537
        },
        {
          "name": "F#2",
          "midi": 42,
          "time": 143.21031149999888,
          "velocity": 0.6299212598425197,
          "duration": 0.14934188124999537
        },
        {
          "name": "C#3",
          "midi": 49,
          "time": 143.21031149999888,
          "velocity": 0.6299212598425197,
          "duration": 0.14934188124999537
        },
        {
          "name": "F#2",
          "midi": 42,
          "time": 143.68399499999887,
          "velocity": 0.6299212598425197,
          "duration": 0.14934188124999537
        },
        {
          "name": "C#3",
          "midi": 49,
          "time": 143.68399499999887,
          "velocity": 0.6299212598425197,
          "duration": 0.14934188124999537
        },
        {
          "name": "A2",
          "midi": 45,
          "time": 143.99978399999887,
          "velocity": 0.6299212598425197,
          "duration": 0.14934188124999537
        },
        {
          "name": "E3",
          "midi": 52,
          "time": 143.99978399999887,
          "velocity": 0.6299212598425197,
          "duration": 0.14934188124999537
        },
        {
          "name": "A2",
          "midi": 45,
          "time": 144.47346749999886,
          "velocity": 0.6299212598425197,
          "duration": 0.14934188124999537
        },
        {
          "name": "E3",
          "midi": 52,
          "time": 144.47346749999886,
          "velocity": 0.6299212598425197,
          "duration": 0.14934188124999537
        },
        {
          "name": "A2",
          "midi": 45,
          "time": 144.94715099999885,
          "velocity": 0.6299212598425197,
          "duration": 0.14934188124999537
        },
        {
          "name": "E3",
          "midi": 52,
          "time": 144.94715099999885,
          "velocity": 0.6299212598425197,
          "duration": 0.14934188124999537
        },
        {
          "name": "B2",
          "midi": 47,
          "time": 145.26293999999885,
          "velocity": 0.6299212598425197,
          "duration": 0.14934188124999537
        },
        {
          "name": "F#3",
          "midi": 54,
          "time": 145.26293999999885,
          "velocity": 0.6299212598425197,
          "duration": 0.14934188124999537
        },
        {
          "name": "B2",
          "midi": 47,
          "time": 145.73662349999884,
          "velocity": 0.6299212598425197,
          "duration": 0.14934188124999537
        },
        {
          "name": "F#3",
          "midi": 54,
          "time": 145.73662349999884,
          "velocity": 0.6299212598425197,
          "duration": 0.14934188124999537
        },
        {
          "name": "B2",
          "midi": 47,
          "time": 146.21030699999883,
          "velocity": 0.6299212598425197,
          "duration": 0.14934188124999537
        },
        {
          "name": "F#3",
          "midi": 54,
          "time": 146.21030699999883,
          "velocity": 0.6299212598425197,
          "duration": 0.14934188124999537
        },
        {
          "name": "C#3",
          "midi": 49,
          "time": 146.52609599999883,
          "velocity": 0.6299212598425197,
          "duration": 0.14934188124999537
        },
        {
          "name": "G#3",
          "midi": 56,
          "time": 146.52609599999883,
          "velocity": 0.6299212598425197,
          "duration": 0.14934188124999537
        },
        {
          "name": "C#3",
          "midi": 49,
          "time": 146.99977949999882,
          "velocity": 0.6299212598425197,
          "duration": 0.14934188124999537
        },
        {
          "name": "G#3",
          "midi": 56,
          "time": 146.99977949999882,
          "velocity": 0.6299212598425197,
          "duration": 0.14934188124999537
        },
        {
          "name": "C#3",
          "midi": 49,
          "time": 147.47346299999882,
          "velocity": 0.6299212598425197,
          "duration": 0.14934188124999537
        },
        {
          "name": "G#3",
          "midi": 56,
          "time": 147.47346299999882,
          "velocity": 0.6299212598425197,
          "duration": 0.14934188124999537
        },
        {
          "name": "F#2",
          "midi": 42,
          "time": 147.7892519999988,
          "velocity": 0.6299212598425197,
          "duration": 0.14934188124999537
        },
        {
          "name": "C#3",
          "midi": 49,
          "time": 147.7892519999988,
          "velocity": 0.6299212598425197,
          "duration": 0.14934188124999537
        },
        {
          "name": "F#2",
          "midi": 42,
          "time": 148.2629354999988,
          "velocity": 0.6299212598425197,
          "duration": 0.14934188124999537
        },
        {
          "name": "C#3",
          "midi": 49,
          "time": 148.2629354999988,
          "velocity": 0.6299212598425197,
          "duration": 0.14934188124999537
        },
        {
          "name": "F#2",
          "midi": 42,
          "time": 148.7366189999988,
          "velocity": 0.6299212598425197,
          "duration": 0.14934188124999537
        },
        {
          "name": "C#3",
          "midi": 49,
          "time": 148.7366189999988,
          "velocity": 0.6299212598425197,
          "duration": 0.14934188124999537
        },
        {
          "name": "A2",
          "midi": 45,
          "time": 149.0524079999988,
          "velocity": 0.6299212598425197,
          "duration": 0.14934188124999537
        },
        {
          "name": "E3",
          "midi": 52,
          "time": 149.0524079999988,
          "velocity": 0.6299212598425197,
          "duration": 0.14934188124999537
        },
        {
          "name": "A2",
          "midi": 45,
          "time": 149.52609149999878,
          "velocity": 0.6299212598425197,
          "duration": 0.14934188124999537
        },
        {
          "name": "E3",
          "midi": 52,
          "time": 149.52609149999878,
          "velocity": 0.6299212598425197,
          "duration": 0.14934188124999537
        },
        {
          "name": "A2",
          "midi": 45,
          "time": 149.99977499999878,
          "velocity": 0.6299212598425197,
          "duration": 0.14934188124999537
        },
        {
          "name": "E3",
          "midi": 52,
          "time": 149.99977499999878,
          "velocity": 0.6299212598425197,
          "duration": 0.14934188124999537
        },
        {
          "name": "B2",
          "midi": 47,
          "time": 150.31556399999877,
          "velocity": 0.6299212598425197,
          "duration": 0.14934188124999537
        },
        {
          "name": "F#3",
          "midi": 54,
          "time": 150.31556399999877,
          "velocity": 0.6299212598425197,
          "duration": 0.14934188124999537
        },
        {
          "name": "B2",
          "midi": 47,
          "time": 150.78924749999877,
          "velocity": 0.6299212598425197,
          "duration": 0.14934188124999537
        },
        {
          "name": "F#3",
          "midi": 54,
          "time": 150.78924749999877,
          "velocity": 0.6299212598425197,
          "duration": 0.14934188124999537
        },
        {
          "name": "B2",
          "midi": 47,
          "time": 151.26293099999876,
          "velocity": 0.6299212598425197,
          "duration": 0.14934188124999537
        },
        {
          "name": "F#3",
          "midi": 54,
          "time": 151.26293099999876,
          "velocity": 0.6299212598425197,
          "duration": 0.14934188124999537
        },
        {
          "name": "C#3",
          "midi": 49,
          "time": 151.57871999999875,
          "velocity": 0.6299212598425197,
          "duration": 0.14934188124999537
        },
        {
          "name": "G#3",
          "midi": 56,
          "time": 151.57871999999875,
          "velocity": 0.6299212598425197,
          "duration": 0.14934188124999537
        },
        {
          "name": "C#3",
          "midi": 49,
          "time": 152.05240349999875,
          "velocity": 0.6299212598425197,
          "duration": 0.14934188124999537
        },
        {
          "name": "G#3",
          "midi": 56,
          "time": 152.05240349999875,
          "velocity": 0.6299212598425197,
          "duration": 0.14934188124999537
        },
        {
          "name": "C#3",
          "midi": 49,
          "time": 152.52608699999874,
          "velocity": 0.6299212598425197,
          "duration": 0.14934188124999537
        },
        {
          "name": "G#3",
          "midi": 56,
          "time": 152.52608699999874,
          "velocity": 0.6299212598425197,
          "duration": 0.14934188124999537
        },
        {
          "name": "F#2",
          "midi": 42,
          "time": 152.84187599999873,
          "velocity": 0.6299212598425197,
          "duration": 0.14934188124999537
        },
        {
          "name": "C#3",
          "midi": 49,
          "time": 152.84187599999873,
          "velocity": 0.6299212598425197,
          "duration": 0.14934188124999537
        },
        {
          "name": "F#2",
          "midi": 42,
          "time": 153.31555949999873,
          "velocity": 0.6299212598425197,
          "duration": 0.14934188124999537
        },
        {
          "name": "C#3",
          "midi": 49,
          "time": 153.31555949999873,
          "velocity": 0.6299212598425197,
          "duration": 0.14934188124999537
        },
        {
          "name": "F#2",
          "midi": 42,
          "time": 153.78924299999872,
          "velocity": 0.6299212598425197,
          "duration": 0.14934188124999537
        },
        {
          "name": "C#3",
          "midi": 49,
          "time": 153.78924299999872,
          "velocity": 0.6299212598425197,
          "duration": 0.14934188124999537
        },
        {
          "name": "A2",
          "midi": 45,
          "time": 154.10503199999872,
          "velocity": 0.6299212598425197,
          "duration": 0.14934188124999537
        },
        {
          "name": "E3",
          "midi": 52,
          "time": 154.10503199999872,
          "velocity": 0.6299212598425197,
          "duration": 0.14934188124999537
        },
        {
          "name": "A2",
          "midi": 45,
          "time": 154.5787154999987,
          "velocity": 0.6299212598425197,
          "duration": 0.14934188124999537
        },
        {
          "name": "E3",
          "midi": 52,
          "time": 154.5787154999987,
          "velocity": 0.6299212598425197,
          "duration": 0.14934188124999537
        },
        {
          "name": "A2",
          "midi": 45,
          "time": 155.0523989999987,
          "velocity": 0.6299212598425197,
          "duration": 0.14934188124999537
        },
        {
          "name": "E3",
          "midi": 52,
          "time": 155.0523989999987,
          "velocity": 0.6299212598425197,
          "duration": 0.14934188124999537
        },
        {
          "name": "B2",
          "midi": 47,
          "time": 155.3681879999987,
          "velocity": 0.6299212598425197,
          "duration": 0.14934188124999537
        },
        {
          "name": "F#3",
          "midi": 54,
          "time": 155.3681879999987,
          "velocity": 0.6299212598425197,
          "duration": 0.14934188124999537
        },
        {
          "name": "B2",
          "midi": 47,
          "time": 155.8418714999987,
          "velocity": 0.6299212598425197,
          "duration": 0.14934188124999537
        },
        {
          "name": "F#3",
          "midi": 54,
          "time": 155.8418714999987,
          "velocity": 0.6299212598425197,
          "duration": 0.14934188124999537
        },
        {
          "name": "B2",
          "midi": 47,
          "time": 156.31555499999868,
          "velocity": 0.6299212598425197,
          "duration": 0.14934188124999537
        },
        {
          "name": "F#3",
          "midi": 54,
          "time": 156.31555499999868,
          "velocity": 0.6299212598425197,
          "duration": 0.14934188124999537
        },
        {
          "name": "C#3",
          "midi": 49,
          "time": 156.63134399999868,
          "velocity": 0.6299212598425197,
          "duration": 0.14934188124999537
        },
        {
          "name": "G#3",
          "midi": 56,
          "time": 156.63134399999868,
          "velocity": 0.6299212598425197,
          "duration": 0.14934188124999537
        },
        {
          "name": "C#3",
          "midi": 49,
          "time": 157.10502749999867,
          "velocity": 0.6299212598425197,
          "duration": 0.14934188124999537
        },
        {
          "name": "G#3",
          "midi": 56,
          "time": 157.10502749999867,
          "velocity": 0.6299212598425197,
          "duration": 0.14934188124999537
        },
        {
          "name": "C#3",
          "midi": 49,
          "time": 157.57871099999866,
          "velocity": 0.6299212598425197,
          "duration": 0.14934188124999537
        },
        {
          "name": "G#3",
          "midi": 56,
          "time": 157.57871099999866,
          "velocity": 0.6299212598425197,
          "duration": 0.14934188124999537
        },
        {
          "name": "F#2",
          "midi": 42,
          "time": 157.89449999999866,
          "velocity": 0.6299212598425197,
          "duration": 0.14934188124999537
        },
        {
          "name": "C#3",
          "midi": 49,
          "time": 157.89449999999866,
          "velocity": 0.6299212598425197,
          "duration": 0.14934188124999537
        },
        {
          "name": "F#2",
          "midi": 42,
          "time": 158.36818349999865,
          "velocity": 0.6299212598425197,
          "duration": 0.14934188124999537
        },
        {
          "name": "C#3",
          "midi": 49,
          "time": 158.36818349999865,
          "velocity": 0.6299212598425197,
          "duration": 0.14934188124999537
        },
        {
          "name": "F#2",
          "midi": 42,
          "time": 158.84186699999864,
          "velocity": 0.6299212598425197,
          "duration": 0.14934188124999537
        },
        {
          "name": "C#3",
          "midi": 49,
          "time": 158.84186699999864,
          "velocity": 0.6299212598425197,
          "duration": 0.14934188124999537
        },
        {
          "name": "A2",
          "midi": 45,
          "time": 159.15765599999864,
          "velocity": 0.6299212598425197,
          "duration": 0.14934188124999537
        },
        {
          "name": "E3",
          "midi": 52,
          "time": 159.15765599999864,
          "velocity": 0.6299212598425197,
          "duration": 0.14934188124999537
        },
        {
          "name": "A2",
          "midi": 45,
          "time": 159.63133949999863,
          "velocity": 0.6299212598425197,
          "duration": 0.14934188124999537
        },
        {
          "name": "E3",
          "midi": 52,
          "time": 159.63133949999863,
          "velocity": 0.6299212598425197,
          "duration": 0.14934188124999537
        },
        {
          "name": "A2",
          "midi": 45,
          "time": 160.10502299999862,
          "velocity": 0.6299212598425197,
          "duration": 0.14934188124999537
        },
        {
          "name": "E3",
          "midi": 52,
          "time": 160.10502299999862,
          "velocity": 0.6299212598425197,
          "duration": 0.14934188124999537
        },
        {
          "name": "B2",
          "midi": 47,
          "time": 160.42081199999862,
          "velocity": 0.6299212598425197,
          "duration": 0.14934188124999537
        },
        {
          "name": "F#3",
          "midi": 54,
          "time": 160.42081199999862,
          "velocity": 0.6299212598425197,
          "duration": 0.14934188124999537
        },
        {
          "name": "B2",
          "midi": 47,
          "time": 160.8944954999986,
          "velocity": 0.6299212598425197,
          "duration": 0.14934188124999537
        },
        {
          "name": "F#3",
          "midi": 54,
          "time": 160.8944954999986,
          "velocity": 0.6299212598425197,
          "duration": 0.14934188124999537
        },
        {
          "name": "B2",
          "midi": 47,
          "time": 161.3681789999986,
          "velocity": 0.6299212598425197,
          "duration": 0.14934188124999537
        },
        {
          "name": "F#3",
          "midi": 54,
          "time": 161.3681789999986,
          "velocity": 0.6299212598425197,
          "duration": 0.14934188124999537
        },
        {
          "name": "C#3",
          "midi": 49,
          "time": 161.6839679999986,
          "velocity": 0.6299212598425197,
          "duration": 0.14934188124999537
        },
        {
          "name": "G#3",
          "midi": 56,
          "time": 161.6839679999986,
          "velocity": 0.6299212598425197,
          "duration": 0.14934188124999537
        },
        {
          "name": "C#3",
          "midi": 49,
          "time": 162.1576514999986,
          "velocity": 0.6299212598425197,
          "duration": 0.14934188124999537
        },
        {
          "name": "G#3",
          "midi": 56,
          "time": 162.1576514999986,
          "velocity": 0.6299212598425197,
          "duration": 0.14934188124999537
        },
        {
          "name": "C#3",
          "midi": 49,
          "time": 162.6313349999986,
          "velocity": 0.6299212598425197,
          "duration": 0.14934188124999537
        },
        {
          "name": "G#3",
          "midi": 56,
          "time": 162.6313349999986,
          "velocity": 0.6299212598425197,
          "duration": 0.14934188124999537
        },
        {
          "name": "F#2",
          "midi": 42,
          "time": 162.94712399999858,
          "velocity": 0.6299212598425197,
          "duration": 0.14934188124999537
        },
        {
          "name": "C#3",
          "midi": 49,
          "time": 162.94712399999858,
          "velocity": 0.6299212598425197,
          "duration": 0.14934188124999537
        },
        {
          "name": "F#2",
          "midi": 42,
          "time": 163.42080749999857,
          "velocity": 0.6299212598425197,
          "duration": 0.14934188124999537
        },
        {
          "name": "C#3",
          "midi": 49,
          "time": 163.42080749999857,
          "velocity": 0.6299212598425197,
          "duration": 0.14934188124999537
        },
        {
          "name": "F#2",
          "midi": 42,
          "time": 163.89449099999857,
          "velocity": 0.6299212598425197,
          "duration": 0.14934188124999537
        },
        {
          "name": "C#3",
          "midi": 49,
          "time": 163.89449099999857,
          "velocity": 0.6299212598425197,
          "duration": 0.14934188124999537
        },
        {
          "name": "A2",
          "midi": 45,
          "time": 164.21027999999856,
          "velocity": 0.6299212598425197,
          "duration": 0.14934188124999537
        },
        {
          "name": "E3",
          "midi": 52,
          "time": 164.21027999999856,
          "velocity": 0.6299212598425197,
          "duration": 0.14934188124999537
        },
        {
          "name": "A2",
          "midi": 45,
          "time": 164.68396349999855,
          "velocity": 0.6299212598425197,
          "duration": 0.14934188124999537
        },
        {
          "name": "E3",
          "midi": 52,
          "time": 164.68396349999855,
          "velocity": 0.6299212598425197,
          "duration": 0.14934188124999537
        },
        {
          "name": "A2",
          "midi": 45,
          "time": 165.15764699999855,
          "velocity": 0.6299212598425197,
          "duration": 0.14934188124999537
        },
        {
          "name": "E3",
          "midi": 52,
          "time": 165.15764699999855,
          "velocity": 0.6299212598425197,
          "duration": 0.14934188124999537
        },
        {
          "name": "B2",
          "midi": 47,
          "time": 165.47343599999854,
          "velocity": 0.6299212598425197,
          "duration": 0.14934188124999537
        },
        {
          "name": "F#3",
          "midi": 54,
          "time": 165.47343599999854,
          "velocity": 0.6299212598425197,
          "duration": 0.14934188124999537
        },
        {
          "name": "B2",
          "midi": 47,
          "time": 165.94711949999854,
          "velocity": 0.6299212598425197,
          "duration": 0.14934188124999537
        },
        {
          "name": "F#3",
          "midi": 54,
          "time": 165.94711949999854,
          "velocity": 0.6299212598425197,
          "duration": 0.14934188124999537
        },
        {
          "name": "B2",
          "midi": 47,
          "time": 166.42080299999853,
          "velocity": 0.6299212598425197,
          "duration": 0.14934188124999537
        },
        {
          "name": "F#3",
          "midi": 54,
          "time": 166.42080299999853,
          "velocity": 0.6299212598425197,
          "duration": 0.14934188124999537
        },
        {
          "name": "C#3",
          "midi": 49,
          "time": 166.73659199999852,
          "velocity": 0.6299212598425197,
          "duration": 0.14934188124999537
        },
        {
          "name": "G#3",
          "midi": 56,
          "time": 166.73659199999852,
          "velocity": 0.6299212598425197,
          "duration": 0.14934188124999537
        },
        {
          "name": "C#3",
          "midi": 49,
          "time": 167.21027549999852,
          "velocity": 0.6299212598425197,
          "duration": 0.14934188124999537
        },
        {
          "name": "G#3",
          "midi": 56,
          "time": 167.21027549999852,
          "velocity": 0.6299212598425197,
          "duration": 0.14934188124999537
        },
        {
          "name": "C#3",
          "midi": 49,
          "time": 167.6839589999985,
          "velocity": 0.6299212598425197,
          "duration": 0.14934188124999537
        },
        {
          "name": "G#3",
          "midi": 56,
          "time": 167.6839589999985,
          "velocity": 0.6299212598425197,
          "duration": 0.14934188124999537
        },
        {
          "name": "F#2",
          "midi": 42,
          "time": 167.9997479999985,
          "velocity": 0.6299212598425197,
          "duration": 0.14934188124999537
        },
        {
          "name": "C#3",
          "midi": 49,
          "time": 167.9997479999985,
          "velocity": 0.6299212598425197,
          "duration": 0.14934188124999537
        },
        {
          "name": "F#2",
          "midi": 42,
          "time": 168.4734314999985,
          "velocity": 0.6299212598425197,
          "duration": 0.14934188124999537
        },
        {
          "name": "C#3",
          "midi": 49,
          "time": 168.4734314999985,
          "velocity": 0.6299212598425197,
          "duration": 0.14934188124999537
        },
        {
          "name": "F#2",
          "midi": 42,
          "time": 168.9471149999985,
          "velocity": 0.6299212598425197,
          "duration": 0.14934188124999537
        },
        {
          "name": "C#3",
          "midi": 49,
          "time": 168.9471149999985,
          "velocity": 0.6299212598425197,
          "duration": 0.14934188124999537
        },
        {
          "name": "A2",
          "midi": 45,
          "time": 169.26290399999849,
          "velocity": 0.6299212598425197,
          "duration": 0.14934188124999537
        },
        {
          "name": "E3",
          "midi": 52,
          "time": 169.26290399999849,
          "velocity": 0.6299212598425197,
          "duration": 0.14934188124999537
        },
        {
          "name": "A2",
          "midi": 45,
          "time": 169.73658749999848,
          "velocity": 0.6299212598425197,
          "duration": 0.14934188124999537
        },
        {
          "name": "E3",
          "midi": 52,
          "time": 169.73658749999848,
          "velocity": 0.6299212598425197,
          "duration": 0.14934188124999537
        },
        {
          "name": "A2",
          "midi": 45,
          "time": 170.21027099999847,
          "velocity": 0.6299212598425197,
          "duration": 0.14934188124999537
        },
        {
          "name": "E3",
          "midi": 52,
          "time": 170.21027099999847,
          "velocity": 0.6299212598425197,
          "duration": 0.14934188124999537
        },
        {
          "name": "B2",
          "midi": 47,
          "time": 170.52605999999847,
          "velocity": 0.6299212598425197,
          "duration": 0.14934188124999537
        },
        {
          "name": "F#3",
          "midi": 54,
          "time": 170.52605999999847,
          "velocity": 0.6299212598425197,
          "duration": 0.14934188124999537
        },
        {
          "name": "B2",
          "midi": 47,
          "time": 170.99974349999846,
          "velocity": 0.6299212598425197,
          "duration": 0.14934188124999537
        },
        {
          "name": "F#3",
          "midi": 54,
          "time": 170.99974349999846,
          "velocity": 0.6299212598425197,
          "duration": 0.14934188124999537
        },
        {
          "name": "B2",
          "midi": 47,
          "time": 171.47342699999845,
          "velocity": 0.6299212598425197,
          "duration": 0.14934188124999537
        },
        {
          "name": "F#3",
          "midi": 54,
          "time": 171.47342699999845,
          "velocity": 0.6299212598425197,
          "duration": 0.14934188124999537
        },
        {
          "name": "G#3",
          "midi": 56,
          "time": 181.89446399999844,
          "velocity": 0.6299212598425197,
          "duration": 0.14934188124999537
        },
        {
          "name": "C#4",
          "midi": 61,
          "time": 181.89446399999844,
          "velocity": 0.6299212598425197,
          "duration": 0.14934188124999537
        },
        {
          "name": "G#3",
          "midi": 56,
          "time": 182.36814749999843,
          "velocity": 0.6299212598425197,
          "duration": 0.14934188124999537
        },
        {
          "name": "C#4",
          "midi": 61,
          "time": 182.36814749999843,
          "velocity": 0.6299212598425197,
          "duration": 0.14934188124999537
        },
        {
          "name": "G#3",
          "midi": 56,
          "time": 182.84183099999842,
          "velocity": 0.6299212598425197,
          "duration": 0.14934188124999537
        },
        {
          "name": "C#4",
          "midi": 61,
          "time": 182.84183099999842,
          "velocity": 0.6299212598425197,
          "duration": 0.14934188124999537
        },
        {
          "name": "F#3",
          "midi": 54,
          "time": 183.15761999999842,
          "velocity": 0.6299212598425197,
          "duration": 0.14934188124999537
        },
        {
          "name": "C#4",
          "midi": 61,
          "time": 183.15761999999842,
          "velocity": 0.6299212598425197,
          "duration": 0.14934188124999537
        },
        {
          "name": "F#3",
          "midi": 54,
          "time": 183.6313034999984,
          "velocity": 0.6299212598425197,
          "duration": 0.14934188124999537
        },
        {
          "name": "C#4",
          "midi": 61,
          "time": 183.6313034999984,
          "velocity": 0.6299212598425197,
          "duration": 0.14934188124999537
        },
        {
          "name": "F#3",
          "midi": 54,
          "time": 184.1049869999984,
          "velocity": 0.6299212598425197,
          "duration": 0.14934188124999537
        },
        {
          "name": "C#4",
          "midi": 61,
          "time": 184.1049869999984,
          "velocity": 0.6299212598425197,
          "duration": 0.14934188124999537
        },
        {
          "name": "A3",
          "midi": 57,
          "time": 184.4207759999984,
          "velocity": 0.6299212598425197,
          "duration": 0.14934188124999537
        },
        {
          "name": "C#4",
          "midi": 61,
          "time": 184.4207759999984,
          "velocity": 0.6299212598425197,
          "duration": 0.14934188124999537
        },
        {
          "name": "A3",
          "midi": 57,
          "time": 184.8944594999984,
          "velocity": 0.6299212598425197,
          "duration": 0.14934188124999537
        },
        {
          "name": "C#4",
          "midi": 61,
          "time": 184.8944594999984,
          "velocity": 0.6299212598425197,
          "duration": 0.14934188124999537
        },
        {
          "name": "A3",
          "midi": 57,
          "time": 185.36814299999838,
          "velocity": 0.6299212598425197,
          "duration": 0.14934188124999537
        },
        {
          "name": "C#4",
          "midi": 61,
          "time": 185.36814299999838,
          "velocity": 0.6299212598425197,
          "duration": 0.14934188124999537
        },
        {
          "name": "F#3",
          "midi": 54,
          "time": 185.68393199999838,
          "velocity": 0.6299212598425197,
          "duration": 0.14934188124999537
        },
        {
          "name": "B3",
          "midi": 59,
          "time": 185.68393199999838,
          "velocity": 0.6299212598425197,
          "duration": 0.14934188124999537
        },
        {
          "name": "F#3",
          "midi": 54,
          "time": 186.15761549999837,
          "velocity": 0.6299212598425197,
          "duration": 0.14934188124999537
        },
        {
          "name": "B3",
          "midi": 59,
          "time": 186.15761549999837,
          "velocity": 0.6299212598425197,
          "duration": 0.14934188124999537
        },
        {
          "name": "F#3",
          "midi": 54,
          "time": 186.63129899999836,
          "velocity": 0.6299212598425197,
          "duration": 0.14934188124999537
        },
        {
          "name": "B3",
          "midi": 59,
          "time": 186.63129899999836,
          "velocity": 0.6299212598425197,
          "duration": 0.14934188124999537
        },
        {
          "name": "G#3",
          "midi": 56,
          "time": 186.94708799999836,
          "velocity": 0.6299212598425197,
          "duration": 0.14934188124999537
        },
        {
          "name": "C#4",
          "midi": 61,
          "time": 186.94708799999836,
          "velocity": 0.6299212598425197,
          "duration": 0.14934188124999537
        },
        {
          "name": "G#3",
          "midi": 56,
          "time": 187.42077149999835,
          "velocity": 0.6299212598425197,
          "duration": 0.14934188124999537
        },
        {
          "name": "C#4",
          "midi": 61,
          "time": 187.42077149999835,
          "velocity": 0.6299212598425197,
          "duration": 0.14934188124999537
        },
        {
          "name": "G#3",
          "midi": 56,
          "time": 187.89445499999835,
          "velocity": 0.6299212598425197,
          "duration": 0.14934188124999537
        },
        {
          "name": "C#4",
          "midi": 61,
          "time": 187.89445499999835,
          "velocity": 0.6299212598425197,
          "duration": 0.14934188124999537
        },
        {
          "name": "F#3",
          "midi": 54,
          "time": 188.21024399999834,
          "velocity": 0.6299212598425197,
          "duration": 0.14934188124999537
        },
        {
          "name": "C#4",
          "midi": 61,
          "time": 188.21024399999834,
          "velocity": 0.6299212598425197,
          "duration": 0.14934188124999537
        },
        {
          "name": "F#3",
          "midi": 54,
          "time": 188.68392749999833,
          "velocity": 0.6299212598425197,
          "duration": 0.14934188124999537
        },
        {
          "name": "C#4",
          "midi": 61,
          "time": 188.68392749999833,
          "velocity": 0.6299212598425197,
          "duration": 0.14934188124999537
        },
        {
          "name": "F#3",
          "midi": 54,
          "time": 189.15761099999833,
          "velocity": 0.6299212598425197,
          "duration": 0.14934188124999537
        },
        {
          "name": "C#4",
          "midi": 61,
          "time": 189.15761099999833,
          "velocity": 0.6299212598425197,
          "duration": 0.14934188124999537
        },
        {
          "name": "A3",
          "midi": 57,
          "time": 189.47339999999832,
          "velocity": 0.6299212598425197,
          "duration": 0.14934188124999537
        },
        {
          "name": "C#4",
          "midi": 61,
          "time": 189.47339999999832,
          "velocity": 0.6299212598425197,
          "duration": 0.14934188124999537
        },
        {
          "name": "A3",
          "midi": 57,
          "time": 189.9470834999983,
          "velocity": 0.6299212598425197,
          "duration": 0.14934188124999537
        },
        {
          "name": "C#4",
          "midi": 61,
          "time": 189.9470834999983,
          "velocity": 0.6299212598425197,
          "duration": 0.14934188124999537
        },
        {
          "name": "A3",
          "midi": 57,
          "time": 190.4207669999983,
          "velocity": 0.6299212598425197,
          "duration": 0.14934188124999537
        },
        {
          "name": "C#4",
          "midi": 61,
          "time": 190.4207669999983,
          "velocity": 0.6299212598425197,
          "duration": 0.14934188124999537
        },
        {
          "name": "F#3",
          "midi": 54,
          "time": 190.7365559999983,
          "velocity": 0.6299212598425197,
          "duration": 0.14934188124999537
        },
        {
          "name": "B3",
          "midi": 59,
          "time": 190.7365559999983,
          "velocity": 0.6299212598425197,
          "duration": 0.14934188124999537
        },
        {
          "name": "F#3",
          "midi": 54,
          "time": 191.2102394999983,
          "velocity": 0.6299212598425197,
          "duration": 0.14934188124999537
        },
        {
          "name": "B3",
          "midi": 59,
          "time": 191.2102394999983,
          "velocity": 0.6299212598425197,
          "duration": 0.14934188124999537
        },
        {
          "name": "F#3",
          "midi": 54,
          "time": 191.6839229999983,
          "velocity": 0.6299212598425197,
          "duration": 0.14934188124999537
        },
        {
          "name": "B3",
          "midi": 59,
          "time": 191.6839229999983,
          "velocity": 0.6299212598425197,
          "duration": 0.14934188124999537
        },
        {
          "name": "C#3",
          "midi": 49,
          "time": 194.52602399999827,
          "velocity": 0.6299212598425197,
          "duration": 0.14934188124999537
        },
        {
          "name": "G#3",
          "midi": 56,
          "time": 194.52602399999827,
          "velocity": 0.6299212598425197,
          "duration": 0.14934188124999537
        },
        {
          "name": "C#3",
          "midi": 49,
          "time": 194.99970749999827,
          "velocity": 0.6299212598425197,
          "duration": 0.14934188124999537
        },
        {
          "name": "G#3",
          "midi": 56,
          "time": 194.99970749999827,
          "velocity": 0.6299212598425197,
          "duration": 0.14934188124999537
        },
        {
          "name": "C#3",
          "midi": 49,
          "time": 195.47339099999826,
          "velocity": 0.6299212598425197,
          "duration": 0.14934188124999537
        },
        {
          "name": "G#3",
          "midi": 56,
          "time": 195.47339099999826,
          "velocity": 0.6299212598425197,
          "duration": 0.14934188124999537
        },
        {
          "name": "F#2",
          "midi": 42,
          "time": 195.78917999999825,
          "velocity": 0.6299212598425197,
          "duration": 0.14934188124999537
        },
        {
          "name": "C#3",
          "midi": 49,
          "time": 195.78917999999825,
          "velocity": 0.6299212598425197,
          "duration": 0.14934188124999537
        },
        {
          "name": "F#2",
          "midi": 42,
          "time": 196.26286349999825,
          "velocity": 0.6299212598425197,
          "duration": 0.14934188124999537
        },
        {
          "name": "C#3",
          "midi": 49,
          "time": 196.26286349999825,
          "velocity": 0.6299212598425197,
          "duration": 0.14934188124999537
        },
        {
          "name": "F#2",
          "midi": 42,
          "time": 196.73654699999824,
          "velocity": 0.6299212598425197,
          "duration": 0.14934188124999537
        },
        {
          "name": "C#3",
          "midi": 49,
          "time": 196.73654699999824,
          "velocity": 0.6299212598425197,
          "duration": 0.14934188124999537
        },
        {
          "name": "A2",
          "midi": 45,
          "time": 197.05233599999823,
          "velocity": 0.6299212598425197,
          "duration": 0.14934188124999537
        },
        {
          "name": "E3",
          "midi": 52,
          "time": 197.05233599999823,
          "velocity": 0.6299212598425197,
          "duration": 0.14934188124999537
        },
        {
          "name": "A2",
          "midi": 45,
          "time": 197.52601949999823,
          "velocity": 0.6299212598425197,
          "duration": 0.14934188124999537
        },
        {
          "name": "E3",
          "midi": 52,
          "time": 197.52601949999823,
          "velocity": 0.6299212598425197,
          "duration": 0.14934188124999537
        },
        {
          "name": "A2",
          "midi": 45,
          "time": 197.99970299999822,
          "velocity": 0.6299212598425197,
          "duration": 0.14934188124999537
        },
        {
          "name": "E3",
          "midi": 52,
          "time": 197.99970299999822,
          "velocity": 0.6299212598425197,
          "duration": 0.14934188124999537
        },
        {
          "name": "B2",
          "midi": 47,
          "time": 198.31549199999822,
          "velocity": 0.6299212598425197,
          "duration": 0.14934188124999537
        },
        {
          "name": "F#3",
          "midi": 54,
          "time": 198.31549199999822,
          "velocity": 0.6299212598425197,
          "duration": 0.14934188124999537
        },
        {
          "name": "B2",
          "midi": 47,
          "time": 198.7891754999982,
          "velocity": 0.6299212598425197,
          "duration": 0.14934188124999537
        },
        {
          "name": "F#3",
          "midi": 54,
          "time": 198.7891754999982,
          "velocity": 0.6299212598425197,
          "duration": 0.14934188124999537
        },
        {
          "name": "B2",
          "midi": 47,
          "time": 199.2628589999982,
          "velocity": 0.6299212598425197,
          "duration": 0.14934188124999537
        },
        {
          "name": "F#3",
          "midi": 54,
          "time": 199.2628589999982,
          "velocity": 0.6299212598425197,
          "duration": 0.14934188124999537
        },
        {
          "name": "C#3",
          "midi": 49,
          "time": 199.5786479999982,
          "velocity": 0.6299212598425197,
          "duration": 0.14934188124999537
        },
        {
          "name": "G#3",
          "midi": 56,
          "time": 199.5786479999982,
          "velocity": 0.6299212598425197,
          "duration": 0.14934188124999537
        },
        {
          "name": "C#3",
          "midi": 49,
          "time": 200.0523314999982,
          "velocity": 0.6299212598425197,
          "duration": 0.14934188124999537
        },
        {
          "name": "G#3",
          "midi": 56,
          "time": 200.0523314999982,
          "velocity": 0.6299212598425197,
          "duration": 0.14934188124999537
        },
        {
          "name": "C#3",
          "midi": 49,
          "time": 200.52601499999818,
          "velocity": 0.6299212598425197,
          "duration": 0.14934188124999537
        },
        {
          "name": "G#3",
          "midi": 56,
          "time": 200.52601499999818,
          "velocity": 0.6299212598425197,
          "duration": 0.14934188124999537
        },
        {
          "name": "F#2",
          "midi": 42,
          "time": 200.84180399999818,
          "velocity": 0.6299212598425197,
          "duration": 0.14934188124999537
        },
        {
          "name": "C#3",
          "midi": 49,
          "time": 200.84180399999818,
          "velocity": 0.6299212598425197,
          "duration": 0.14934188124999537
        },
        {
          "name": "F#2",
          "midi": 42,
          "time": 201.31548749999817,
          "velocity": 0.6299212598425197,
          "duration": 0.14934188124999537
        },
        {
          "name": "C#3",
          "midi": 49,
          "time": 201.31548749999817,
          "velocity": 0.6299212598425197,
          "duration": 0.14934188124999537
        },
        {
          "name": "F#2",
          "midi": 42,
          "time": 201.78917099999816,
          "velocity": 0.6299212598425197,
          "duration": 0.14934188124999537
        },
        {
          "name": "C#3",
          "midi": 49,
          "time": 201.78917099999816,
          "velocity": 0.6299212598425197,
          "duration": 0.14934188124999537
        },
        {
          "name": "A2",
          "midi": 45,
          "time": 202.10495999999816,
          "velocity": 0.6299212598425197,
          "duration": 0.14934188124999537
        },
        {
          "name": "E3",
          "midi": 52,
          "time": 202.10495999999816,
          "velocity": 0.6299212598425197,
          "duration": 0.14934188124999537
        },
        {
          "name": "A2",
          "midi": 45,
          "time": 202.57864349999815,
          "velocity": 0.6299212598425197,
          "duration": 0.14934188124999537
        },
        {
          "name": "E3",
          "midi": 52,
          "time": 202.57864349999815,
          "velocity": 0.6299212598425197,
          "duration": 0.14934188124999537
        },
        {
          "name": "A2",
          "midi": 45,
          "time": 203.05232699999814,
          "velocity": 0.6299212598425197,
          "duration": 0.14934188124999537
        },
        {
          "name": "E3",
          "midi": 52,
          "time": 203.05232699999814,
          "velocity": 0.6299212598425197,
          "duration": 0.14934188124999537
        },
        {
          "name": "B2",
          "midi": 47,
          "time": 203.36811599999814,
          "velocity": 0.6299212598425197,
          "duration": 0.14934188124999537
        },
        {
          "name": "F#3",
          "midi": 54,
          "time": 203.36811599999814,
          "velocity": 0.6299212598425197,
          "duration": 0.14934188124999537
        },
        {
          "name": "B2",
          "midi": 47,
          "time": 203.84179949999813,
          "velocity": 0.6299212598425197,
          "duration": 0.14934188124999537
        },
        {
          "name": "F#3",
          "midi": 54,
          "time": 203.84179949999813,
          "velocity": 0.6299212598425197,
          "duration": 0.14934188124999537
        },
        {
          "name": "B2",
          "midi": 47,
          "time": 204.31548299999812,
          "velocity": 0.6299212598425197,
          "duration": 0.14934188124999537
        },
        {
          "name": "F#3",
          "midi": 54,
          "time": 204.31548299999812,
          "velocity": 0.6299212598425197,
          "duration": 0.14934188124999537
        },
        {
          "name": "C#3",
          "midi": 49,
          "time": 204.63127199999812,
          "velocity": 0.6299212598425197,
          "duration": 0.14934188124999537
        },
        {
          "name": "G#3",
          "midi": 56,
          "time": 204.63127199999812,
          "velocity": 0.6299212598425197,
          "duration": 0.14934188124999537
        },
        {
          "name": "C#3",
          "midi": 49,
          "time": 205.1049554999981,
          "velocity": 0.6299212598425197,
          "duration": 0.14934188124999537
        },
        {
          "name": "G#3",
          "midi": 56,
          "time": 205.1049554999981,
          "velocity": 0.6299212598425197,
          "duration": 0.14934188124999537
        },
        {
          "name": "C#3",
          "midi": 49,
          "time": 205.5786389999981,
          "velocity": 0.6299212598425197,
          "duration": 0.14934188124999537
        },
        {
          "name": "G#3",
          "midi": 56,
          "time": 205.5786389999981,
          "velocity": 0.6299212598425197,
          "duration": 0.14934188124999537
        },
        {
          "name": "F#2",
          "midi": 42,
          "time": 205.8944279999981,
          "velocity": 0.6299212598425197,
          "duration": 0.14934188124999537
        },
        {
          "name": "C#3",
          "midi": 49,
          "time": 205.8944279999981,
          "velocity": 0.6299212598425197,
          "duration": 0.14934188124999537
        },
        {
          "name": "F#2",
          "midi": 42,
          "time": 206.3681114999981,
          "velocity": 0.6299212598425197,
          "duration": 0.14934188124999537
        },
        {
          "name": "C#3",
          "midi": 49,
          "time": 206.3681114999981,
          "velocity": 0.6299212598425197,
          "duration": 0.14934188124999537
        },
        {
          "name": "F#2",
          "midi": 42,
          "time": 206.8417949999981,
          "velocity": 0.6299212598425197,
          "duration": 0.14934188124999537
        },
        {
          "name": "C#3",
          "midi": 49,
          "time": 206.8417949999981,
          "velocity": 0.6299212598425197,
          "duration": 0.14934188124999537
        },
        {
          "name": "A2",
          "midi": 45,
          "time": 207.15758399999808,
          "velocity": 0.6299212598425197,
          "duration": 0.14934188124999537
        },
        {
          "name": "E3",
          "midi": 52,
          "time": 207.15758399999808,
          "velocity": 0.6299212598425197,
          "duration": 0.14934188124999537
        },
        {
          "name": "A2",
          "midi": 45,
          "time": 207.63126749999807,
          "velocity": 0.6299212598425197,
          "duration": 0.14934188124999537
        },
        {
          "name": "E3",
          "midi": 52,
          "time": 207.63126749999807,
          "velocity": 0.6299212598425197,
          "duration": 0.14934188124999537
        },
        {
          "name": "A2",
          "midi": 45,
          "time": 208.10495099999807,
          "velocity": 0.6299212598425197,
          "duration": 0.14934188124999537
        },
        {
          "name": "E3",
          "midi": 52,
          "time": 208.10495099999807,
          "velocity": 0.6299212598425197,
          "duration": 0.14934188124999537
        },
        {
          "name": "B2",
          "midi": 47,
          "time": 208.42073999999806,
          "velocity": 0.6299212598425197,
          "duration": 0.14934188124999537
        },
        {
          "name": "F#3",
          "midi": 54,
          "time": 208.42073999999806,
          "velocity": 0.6299212598425197,
          "duration": 0.14934188124999537
        },
        {
          "name": "B2",
          "midi": 47,
          "time": 208.89442349999806,
          "velocity": 0.6299212598425197,
          "duration": 0.14934188124999537
        },
        {
          "name": "F#3",
          "midi": 54,
          "time": 208.89442349999806,
          "velocity": 0.6299212598425197,
          "duration": 0.14934188124999537
        },
        {
          "name": "B2",
          "midi": 47,
          "time": 209.36810699999805,
          "velocity": 0.6299212598425197,
          "duration": 0.14934188124999537
        },
        {
          "name": "F#3",
          "midi": 54,
          "time": 209.36810699999805,
          "velocity": 0.6299212598425197,
          "duration": 0.14934188124999537
        },
        {
          "name": "C#3",
          "midi": 49,
          "time": 209.68389599999804,
          "velocity": 0.6299212598425197,
          "duration": 0.14934188124999537
        },
        {
          "name": "G#3",
          "midi": 56,
          "time": 209.68389599999804,
          "velocity": 0.6299212598425197,
          "duration": 0.14934188124999537
        },
        {
          "name": "C#3",
          "midi": 49,
          "time": 210.15757949999804,
          "velocity": 0.6299212598425197,
          "duration": 0.14934188124999537
        },
        {
          "name": "G#3",
          "midi": 56,
          "time": 210.15757949999804,
          "velocity": 0.6299212598425197,
          "duration": 0.14934188124999537
        },
        {
          "name": "C#3",
          "midi": 49,
          "time": 210.63126299999803,
          "velocity": 0.6299212598425197,
          "duration": 0.14934188124999537
        },
        {
          "name": "G#3",
          "midi": 56,
          "time": 210.63126299999803,
          "velocity": 0.6299212598425197,
          "duration": 0.14934188124999537
        },
        {
          "name": "F#2",
          "midi": 42,
          "time": 210.94705199999802,
          "velocity": 0.6299212598425197,
          "duration": 0.14934188124999537
        },
        {
          "name": "C#3",
          "midi": 49,
          "time": 210.94705199999802,
          "velocity": 0.6299212598425197,
          "duration": 0.14934188124999537
        },
        {
          "name": "F#2",
          "midi": 42,
          "time": 211.42073549999802,
          "velocity": 0.6299212598425197,
          "duration": 0.14934188124999537
        },
        {
          "name": "C#3",
          "midi": 49,
          "time": 211.42073549999802,
          "velocity": 0.6299212598425197,
          "duration": 0.14934188124999537
        },
        {
          "name": "F#2",
          "midi": 42,
          "time": 211.894418999998,
          "velocity": 0.6299212598425197,
          "duration": 0.14934188124999537
        },
        {
          "name": "C#3",
          "midi": 49,
          "time": 211.894418999998,
          "velocity": 0.6299212598425197,
          "duration": 0.14934188124999537
        },
        {
          "name": "A2",
          "midi": 45,
          "time": 212.210207999998,
          "velocity": 0.6299212598425197,
          "duration": 0.14934188124999537
        },
        {
          "name": "E3",
          "midi": 52,
          "time": 212.210207999998,
          "velocity": 0.6299212598425197,
          "duration": 0.14934188124999537
        },
        {
          "name": "A2",
          "midi": 45,
          "time": 212.683891499998,
          "velocity": 0.6299212598425197,
          "duration": 0.14934188124999537
        },
        {
          "name": "E3",
          "midi": 52,
          "time": 212.683891499998,
          "velocity": 0.6299212598425197,
          "duration": 0.14934188124999537
        },
        {
          "name": "A2",
          "midi": 45,
          "time": 213.157574999998,
          "velocity": 0.6299212598425197,
          "duration": 0.14934188124999537
        },
        {
          "name": "E3",
          "midi": 52,
          "time": 213.157574999998,
          "velocity": 0.6299212598425197,
          "duration": 0.14934188124999537
        },
        {
          "name": "B2",
          "midi": 47,
          "time": 213.47336399999799,
          "velocity": 0.6299212598425197,
          "duration": 0.14934188124999537
        },
        {
          "name": "F#3",
          "midi": 54,
          "time": 213.47336399999799,
          "velocity": 0.6299212598425197,
          "duration": 0.14934188124999537
        },
        {
          "name": "B2",
          "midi": 47,
          "time": 213.94704749999798,
          "velocity": 0.6299212598425197,
          "duration": 0.14934188124999537
        },
        {
          "name": "F#3",
          "midi": 54,
          "time": 213.94704749999798,
          "velocity": 0.6299212598425197,
          "duration": 0.14934188124999537
        },
        {
          "name": "B2",
          "midi": 47,
          "time": 214.42073099999797,
          "velocity": 0.6299212598425197,
          "duration": 0.14934188124999537
        },
        {
          "name": "F#3",
          "midi": 54,
          "time": 214.42073099999797,
          "velocity": 0.6299212598425197,
          "duration": 0.14934188124999537
        },
        {
          "name": "C#3",
          "midi": 49,
          "time": 214.73651999999797,
          "velocity": 0.6299212598425197,
          "duration": 0.14934188124999537
        },
        {
          "name": "G#3",
          "midi": 56,
          "time": 214.73651999999797,
          "velocity": 0.6299212598425197,
          "duration": 0.14934188124999537
        },
        {
          "name": "C#3",
          "midi": 49,
          "time": 215.21020349999796,
          "velocity": 0.6299212598425197,
          "duration": 0.14934188124999537
        },
        {
          "name": "G#3",
          "midi": 56,
          "time": 215.21020349999796,
          "velocity": 0.6299212598425197,
          "duration": 0.14934188124999537
        },
        {
          "name": "C#3",
          "midi": 49,
          "time": 215.68388699999795,
          "velocity": 0.6299212598425197,
          "duration": 0.14934188124999537
        },
        {
          "name": "G#3",
          "midi": 56,
          "time": 215.68388699999795,
          "velocity": 0.6299212598425197,
          "duration": 0.14934188124999537
        },
        {
          "name": "F#2",
          "midi": 42,
          "time": 215.99967599999795,
          "velocity": 0.6299212598425197,
          "duration": 0.14934188124999537
        },
        {
          "name": "C#3",
          "midi": 49,
          "time": 215.99967599999795,
          "velocity": 0.6299212598425197,
          "duration": 0.14934188124999537
        },
        {
          "name": "F#2",
          "midi": 42,
          "time": 216.47335949999794,
          "velocity": 0.6299212598425197,
          "duration": 0.14934188124999537
        },
        {
          "name": "C#3",
          "midi": 49,
          "time": 216.47335949999794,
          "velocity": 0.6299212598425197,
          "duration": 0.14934188124999537
        },
        {
          "name": "F#2",
          "midi": 42,
          "time": 216.94704299999793,
          "velocity": 0.6299212598425197,
          "duration": 0.14934188124999537
        },
        {
          "name": "C#3",
          "midi": 49,
          "time": 216.94704299999793,
          "velocity": 0.6299212598425197,
          "duration": 0.14934188124999537
        },
        {
          "name": "A2",
          "midi": 45,
          "time": 217.26283199999793,
          "velocity": 0.6299212598425197,
          "duration": 0.14934188124999537
        },
        {
          "name": "E3",
          "midi": 52,
          "time": 217.26283199999793,
          "velocity": 0.6299212598425197,
          "duration": 0.14934188124999537
        },
        {
          "name": "A2",
          "midi": 45,
          "time": 217.73651549999792,
          "velocity": 0.6299212598425197,
          "duration": 0.14934188124999537
        },
        {
          "name": "E3",
          "midi": 52,
          "time": 217.73651549999792,
          "velocity": 0.6299212598425197,
          "duration": 0.14934188124999537
        },
        {
          "name": "A2",
          "midi": 45,
          "time": 218.2101989999979,
          "velocity": 0.6299212598425197,
          "duration": 0.14934188124999537
        },
        {
          "name": "E3",
          "midi": 52,
          "time": 218.2101989999979,
          "velocity": 0.6299212598425197,
          "duration": 0.14934188124999537
        },
        {
          "name": "B2",
          "midi": 47,
          "time": 218.5259879999979,
          "velocity": 0.6299212598425197,
          "duration": 0.14934188124999537
        },
        {
          "name": "F#3",
          "midi": 54,
          "time": 218.5259879999979,
          "velocity": 0.6299212598425197,
          "duration": 0.14934188124999537
        },
        {
          "name": "B2",
          "midi": 47,
          "time": 218.9996714999979,
          "velocity": 0.6299212598425197,
          "duration": 0.14934188124999537
        },
        {
          "name": "F#3",
          "midi": 54,
          "time": 218.9996714999979,
          "velocity": 0.6299212598425197,
          "duration": 0.14934188124999537
        },
        {
          "name": "B2",
          "midi": 47,
          "time": 219.4733549999979,
          "velocity": 0.6299212598425197,
          "duration": 0.14934188124999537
        },
        {
          "name": "F#3",
          "midi": 54,
          "time": 219.4733549999979,
          "velocity": 0.6299212598425197,
          "duration": 0.14934188124999537
        },
        {
          "name": "C#3",
          "midi": 49,
          "time": 219.7891439999979,
          "velocity": 0.6299212598425197,
          "duration": 0.14934188124999537
        },
        {
          "name": "G#3",
          "midi": 56,
          "time": 219.7891439999979,
          "velocity": 0.6299212598425197,
          "duration": 0.14934188124999537
        },
        {
          "name": "C#3",
          "midi": 49,
          "time": 220.26282749999788,
          "velocity": 0.6299212598425197,
          "duration": 0.14934188124999537
        },
        {
          "name": "G#3",
          "midi": 56,
          "time": 220.26282749999788,
          "velocity": 0.6299212598425197,
          "duration": 0.14934188124999537
        },
        {
          "name": "C#3",
          "midi": 49,
          "time": 220.73651099999788,
          "velocity": 0.6299212598425197,
          "duration": 0.14934188124999537
        },
        {
          "name": "G#3",
          "midi": 56,
          "time": 220.73651099999788,
          "velocity": 0.6299212598425197,
          "duration": 0.14934188124999537
        },
        {
          "name": "F#2",
          "midi": 42,
          "time": 221.05229999999787,
          "velocity": 0.6299212598425197,
          "duration": 0.14934188124999537
        },
        {
          "name": "C#3",
          "midi": 49,
          "time": 221.05229999999787,
          "velocity": 0.6299212598425197,
          "duration": 0.14934188124999537
        },
        {
          "name": "F#2",
          "midi": 42,
          "time": 221.52598349999786,
          "velocity": 0.6299212598425197,
          "duration": 0.14934188124999537
        },
        {
          "name": "C#3",
          "midi": 49,
          "time": 221.52598349999786,
          "velocity": 0.6299212598425197,
          "duration": 0.14934188124999537
        },
        {
          "name": "F#2",
          "midi": 42,
          "time": 221.99966699999786,
          "velocity": 0.6299212598425197,
          "duration": 0.14934188124999537
        },
        {
          "name": "C#3",
          "midi": 49,
          "time": 221.99966699999786,
          "velocity": 0.6299212598425197,
          "duration": 0.14934188124999537
        },
        {
          "name": "A2",
          "midi": 45,
          "time": 222.31545599999785,
          "velocity": 0.6299212598425197,
          "duration": 0.14934188124999537
        },
        {
          "name": "E3",
          "midi": 52,
          "time": 222.31545599999785,
          "velocity": 0.6299212598425197,
          "duration": 0.14934188124999537
        },
        {
          "name": "A2",
          "midi": 45,
          "time": 222.78913949999784,
          "velocity": 0.6299212598425197,
          "duration": 0.14934188124999537
        },
        {
          "name": "E3",
          "midi": 52,
          "time": 222.78913949999784,
          "velocity": 0.6299212598425197,
          "duration": 0.14934188124999537
        },
        {
          "name": "A2",
          "midi": 45,
          "time": 223.26282299999784,
          "velocity": 0.6299212598425197,
          "duration": 0.14934188124999537
        },
        {
          "name": "E3",
          "midi": 52,
          "time": 223.26282299999784,
          "velocity": 0.6299212598425197,
          "duration": 0.14934188124999537
        },
        {
          "name": "B2",
          "midi": 47,
          "time": 223.57861199999783,
          "velocity": 0.6299212598425197,
          "duration": 0.14934188124999537
        },
        {
          "name": "F#3",
          "midi": 54,
          "time": 223.57861199999783,
          "velocity": 0.6299212598425197,
          "duration": 0.14934188124999537
        },
        {
          "name": "B2",
          "midi": 47,
          "time": 224.05229549999783,
          "velocity": 0.6299212598425197,
          "duration": 0.14934188124999537
        },
        {
          "name": "F#3",
          "midi": 54,
          "time": 224.05229549999783,
          "velocity": 0.6299212598425197,
          "duration": 0.14934188124999537
        },
        {
          "name": "B2",
          "midi": 47,
          "time": 224.52597899999782,
          "velocity": 0.6299212598425197,
          "duration": 0.14934188124999537
        },
        {
          "name": "F#3",
          "midi": 54,
          "time": 224.52597899999782,
          "velocity": 0.6299212598425197,
          "duration": 0.14934188124999537
        },
        {
          "name": "C#3",
          "midi": 49,
          "time": 224.8417679999978,
          "velocity": 0.6299212598425197,
          "duration": 0.14934188124999537
        },
        {
          "name": "G#3",
          "midi": 56,
          "time": 224.8417679999978,
          "velocity": 0.6299212598425197,
          "duration": 0.14934188124999537
        },
        {
          "name": "C#3",
          "midi": 49,
          "time": 225.3154514999978,
          "velocity": 0.6299212598425197,
          "duration": 0.14934188124999537
        },
        {
          "name": "G#3",
          "midi": 56,
          "time": 225.3154514999978,
          "velocity": 0.6299212598425197,
          "duration": 0.14934188124999537
        },
        {
          "name": "C#3",
          "midi": 49,
          "time": 225.7891349999978,
          "velocity": 0.6299212598425197,
          "duration": 0.14934188124999537
        },
        {
          "name": "G#3",
          "midi": 56,
          "time": 225.7891349999978,
          "velocity": 0.6299212598425197,
          "duration": 0.14934188124999537
        },
        {
          "name": "F#2",
          "midi": 42,
          "time": 226.1049239999978,
          "velocity": 0.6299212598425197,
          "duration": 0.14934188124999537
        },
        {
          "name": "C#3",
          "midi": 49,
          "time": 226.1049239999978,
          "velocity": 0.6299212598425197,
          "duration": 0.14934188124999537
        },
        {
          "name": "F#2",
          "midi": 42,
          "time": 226.5786074999978,
          "velocity": 0.6299212598425197,
          "duration": 0.14934188124999537
        },
        {
          "name": "C#3",
          "midi": 49,
          "time": 226.5786074999978,
          "velocity": 0.6299212598425197,
          "duration": 0.14934188124999537
        },
        {
          "name": "F#2",
          "midi": 42,
          "time": 227.05229099999778,
          "velocity": 0.6299212598425197,
          "duration": 0.14934188124999537
        },
        {
          "name": "C#3",
          "midi": 49,
          "time": 227.05229099999778,
          "velocity": 0.6299212598425197,
          "duration": 0.14934188124999537
        },
        {
          "name": "A2",
          "midi": 45,
          "time": 227.36807999999778,
          "velocity": 0.6299212598425197,
          "duration": 0.14934188124999537
        },
        {
          "name": "E3",
          "midi": 52,
          "time": 227.36807999999778,
          "velocity": 0.6299212598425197,
          "duration": 0.14934188124999537
        },
        {
          "name": "A2",
          "midi": 45,
          "time": 227.84176349999777,
          "velocity": 0.6299212598425197,
          "duration": 0.14934188124999537
        },
        {
          "name": "E3",
          "midi": 52,
          "time": 227.84176349999777,
          "velocity": 0.6299212598425197,
          "duration": 0.14934188124999537
        },
        {
          "name": "A2",
          "midi": 45,
          "time": 228.31544699999776,
          "velocity": 0.6299212598425197,
          "duration": 0.14934188124999537
        },
        {
          "name": "E3",
          "midi": 52,
          "time": 228.31544699999776,
          "velocity": 0.6299212598425197,
          "duration": 0.14934188124999537
        },
        {
          "name": "B2",
          "midi": 47,
          "time": 228.63123599999776,
          "velocity": 0.6299212598425197,
          "duration": 0.14934188124999537
        },
        {
          "name": "F#3",
          "midi": 54,
          "time": 228.63123599999776,
          "velocity": 0.6299212598425197,
          "duration": 0.14934188124999537
        },
        {
          "name": "B2",
          "midi": 47,
          "time": 229.10491949999775,
          "velocity": 0.6299212598425197,
          "duration": 0.14934188124999537
        },
        {
          "name": "F#3",
          "midi": 54,
          "time": 229.10491949999775,
          "velocity": 0.6299212598425197,
          "duration": 0.14934188124999537
        },
        {
          "name": "B2",
          "midi": 47,
          "time": 229.57860299999774,
          "velocity": 0.6299212598425197,
          "duration": 0.14934188124999537
        },
        {
          "name": "F#3",
          "midi": 54,
          "time": 229.57860299999774,
          "velocity": 0.6299212598425197,
          "duration": 0.14934188124999537
        },
        {
          "name": "C#3",
          "midi": 49,
          "time": 229.89439199999774,
          "velocity": 0.6299212598425197,
          "duration": 0.14934188124999537
        },
        {
          "name": "G#3",
          "midi": 56,
          "time": 229.89439199999774,
          "velocity": 0.6299212598425197,
          "duration": 0.14934188124999537
        },
        {
          "name": "C#3",
          "midi": 49,
          "time": 230.36807549999773,
          "velocity": 0.6299212598425197,
          "duration": 0.14934188124999537
        },
        {
          "name": "G#3",
          "midi": 56,
          "time": 230.36807549999773,
          "velocity": 0.6299212598425197,
          "duration": 0.14934188124999537
        },
        {
          "name": "C#3",
          "midi": 49,
          "time": 230.84175899999772,
          "velocity": 0.6299212598425197,
          "duration": 0.14934188124999537
        },
        {
          "name": "G#3",
          "midi": 56,
          "time": 230.84175899999772,
          "velocity": 0.6299212598425197,
          "duration": 0.14934188124999537
        },
        {
          "name": "F#2",
          "midi": 42,
          "time": 231.15754799999772,
          "velocity": 0.6299212598425197,
          "duration": 0.14934188124999537
        },
        {
          "name": "C#3",
          "midi": 49,
          "time": 231.15754799999772,
          "velocity": 0.6299212598425197,
          "duration": 0.14934188124999537
        },
        {
          "name": "F#2",
          "midi": 42,
          "time": 231.6312314999977,
          "velocity": 0.6299212598425197,
          "duration": 0.14934188124999537
        },
        {
          "name": "C#3",
          "midi": 49,
          "time": 231.6312314999977,
          "velocity": 0.6299212598425197,
          "duration": 0.14934188124999537
        },
        {
          "name": "F#2",
          "midi": 42,
          "time": 232.1049149999977,
          "velocity": 0.6299212598425197,
          "duration": 0.14934188124999537
        },
        {
          "name": "C#3",
          "midi": 49,
          "time": 232.1049149999977,
          "velocity": 0.6299212598425197,
          "duration": 0.14934188124999537
        },
        {
          "name": "A2",
          "midi": 45,
          "time": 232.4207039999977,
          "velocity": 0.6299212598425197,
          "duration": 0.14934188124999537
        },
        {
          "name": "E3",
          "midi": 52,
          "time": 232.4207039999977,
          "velocity": 0.6299212598425197,
          "duration": 0.14934188124999537
        },
        {
          "name": "A2",
          "midi": 45,
          "time": 232.8943874999977,
          "velocity": 0.6299212598425197,
          "duration": 0.14934188124999537
        },
        {
          "name": "E3",
          "midi": 52,
          "time": 232.8943874999977,
          "velocity": 0.6299212598425197,
          "duration": 0.14934188124999537
        },
        {
          "name": "A2",
          "midi": 45,
          "time": 233.36807099999768,
          "velocity": 0.6299212598425197,
          "duration": 0.14934188124999537
        },
        {
          "name": "E3",
          "midi": 52,
          "time": 233.36807099999768,
          "velocity": 0.6299212598425197,
          "duration": 0.14934188124999537
        },
        {
          "name": "D#2",
          "midi": 39,
          "time": 233.68385999999768,
          "velocity": 0.6299212598425197,
          "duration": 0.22434176875000844
        },
        {
          "name": "F#2",
          "midi": 42,
          "time": 233.68385999999768,
          "velocity": 0.6299212598425197,
          "duration": 0.22434176875000844
        },
        {
          "name": "B2",
          "midi": 47,
          "time": 233.68385999999768,
          "velocity": 0.6299212598425197,
          "duration": 0.22434176875000844
        }
      ],
      "controlChanges": {
        "7": [
          {
            "number": 7,
            "time": 0,
            "value": 1
          }
        ],
        "32": [
          {
            "number": 32,
            "time": 0,
            "value": 0
          }
        ],
        "127": [
          {
            "number": 127,
            "time": 236.2095141062477,
            "value": 0
          }
        ]
      },
      "id": 2,
      "name": "Untitled",
      "instrumentNumber": 0,
      "instrument": "acoustic grand piano",
      "instrumentFamily": "piano",
      "channelNumber": 0,
      "isPercussion": false
    }
  ]
}